{"glyphs":{"0":{"ha":1314,"x_min":50,"x_max":1264,"o":"m 657 -25 q 338 43 475 -25 q 126 234 201 111 q 50 521 50 357 q 126 808 50 685 q 338 999 201 931 q 657 1067 475 1067 q 976 999 839 1067 q 1188 808 1113 931 q 1264 521 1264 685 q 1188 234 1264 357 q 976 43 1113 111 q 657 -25 839 -25 m 658 264 q 842 331 776 264 q 908 521 908 399 q 842 711 908 644 q 657 778 776 778 q 472 711 539 778 q 406 522 406 644 q 472 331 406 399 q 658 264 539 264 z "},"1":{"ha":767,"x_min":24,"x_max":678,"o":"m 678 1042 l 678 0 l 325 0 l 325 911 l 482 765 l 24 685 l 24 958 l 417 1042 l 678 1042 z "},"2":{"ha":1201,"x_min":39,"x_max":1142,"o":"m 39 656 q 125 876 49 783 q 328 1017 201 968 q 614 1067 456 1067 q 878 1022 765 1067 q 1053 897 990 976 q 1115 711 1115 817 q 1068 558 1115 629 q 924 422 1021 488 q 674 293 826 357 l 428 190 l 425 278 l 1142 278 l 1142 0 l 69 0 l 69 244 l 519 485 q 668 569 617 536 q 740 630 719 603 q 760 689 760 657 q 741 747 760 724 q 686 784 722 771 q 600 797 650 797 q 487 778 531 797 q 421 726 443 758 q 394 656 399 694 l 39 656 z "},"3":{"ha":1197,"x_min":31,"x_max":1144,"o":"m 57 694 q 127 880 63 796 q 316 1015 192 964 q 621 1067 440 1067 q 885 1029 772 1067 q 1060 925 997 992 q 1122 769 1122 858 q 1080 642 1122 700 q 943 549 1038 583 q 693 517 849 515 l 693 547 q 935 531 835 554 q 1090 451 1036 507 q 1144 306 1144 396 q 1081 135 1144 210 q 894 18 1017 61 q 597 -25 772 -25 q 301 21 428 -25 q 105 151 175 67 q 31 351 35 236 l 386 351 q 444 272 394 300 q 597 244 493 244 q 732 267 683 244 q 781 333 781 290 q 766 375 781 358 q 712 399 751 392 q 599 407 672 407 l 426 407 l 426 639 l 599 639 q 730 660 696 639 q 764 717 764 681 q 722 777 764 757 q 601 797 679 797 q 466 770 511 797 q 413 694 421 743 l 57 694 z "},"4":{"ha":1249,"x_min":35,"x_max":1199,"o":"m 1049 1042 l 1049 0 l 696 0 l 696 882 l 792 882 l 288 328 l 288 435 l 1199 435 l 1199 178 l 35 178 l 35 428 l 597 1042 l 1049 1042 z "},"5":{"ha":1150,"x_min":36,"x_max":1103,"o":"m 169 1042 l 1022 1042 l 1022 785 l 272 785 l 413 836 l 356 504 l 274 504 q 354 601 303 558 q 483 670 406 644 q 665 696 560 696 q 895 653 797 696 q 1048 535 993 611 q 1103 358 1103 460 q 1041 160 1103 246 q 861 24 979 74 q 575 -25 743 -25 q 296 22 415 -25 q 109 148 176 68 q 36 325 42 228 l 390 325 q 447 267 399 290 q 575 244 496 244 q 669 258 631 244 q 727 298 707 272 q 747 360 747 324 q 727 419 747 393 q 669 460 707 446 q 576 475 631 475 q 495 466 532 475 q 431 442 458 457 q 385 411 404 428 l 72 411 l 169 1042 z "},"6":{"ha":1219,"x_min":53,"x_max":1169,"o":"m 638 1067 q 891 1023 781 1067 q 1069 906 1001 979 q 1149 740 1136 832 l 825 740 q 764 795 807 774 q 647 817 721 817 q 501 785 560 817 q 412 691 442 753 q 382 536 382 629 q 414 363 382 431 q 506 261 446 294 q 649 228 565 228 q 738 242 701 228 q 792 279 774 256 q 811 331 811 303 q 792 387 811 364 q 738 421 774 410 q 651 432 703 432 q 517 406 583 432 q 386 317 451 381 l 275 389 q 381 542 317 476 q 537 646 446 608 q 746 683 628 683 q 974 640 879 683 q 1119 519 1068 596 q 1169 343 1169 442 q 1109 154 1169 238 q 932 23 1049 71 q 642 -25 815 -25 q 311 45 442 -25 q 117 238 181 115 q 53 519 53 361 q 117 801 53 678 q 313 996 182 925 q 638 1067 443 1067 z "},"7":{"ha":1090,"x_min":22,"x_max":1053,"o":"m 154 0 l 722 861 l 722 764 l 22 764 l 22 1042 l 1053 1042 l 1053 758 l 572 0 l 154 0 z "},"8":{"ha":1275,"x_min":53,"x_max":1222,"o":"m 638 1067 q 1053 985 911 1067 q 1196 760 1196 904 q 1076 572 1196 633 q 742 521 956 511 l 742 547 q 1095 503 968 568 q 1222 292 1222 438 q 1074 56 1222 136 q 638 -25 925 -25 q 201 56 350 -25 q 53 292 53 136 q 180 503 53 438 q 533 547 307 568 l 533 521 q 199 572 319 511 q 79 760 79 633 q 222 985 79 904 q 638 1067 364 1067 m 638 243 q 803 265 747 243 q 860 326 860 286 q 803 388 860 367 q 638 408 747 408 q 472 388 528 408 q 415 326 415 367 q 472 265 415 286 q 638 243 528 243 m 638 643 q 749 652 704 643 q 817 678 794 661 q 840 721 840 696 q 789 778 840 758 q 638 799 738 799 q 486 778 538 799 q 435 721 435 758 q 458 678 435 696 q 526 652 481 661 q 638 643 571 643 z "},"9":{"ha":1219,"x_min":50,"x_max":1168,"o":"m 582 -25 q 328 19 439 -25 q 151 137 218 63 q 71 301 85 211 l 394 301 q 456 247 413 268 q 572 225 500 225 q 719 257 661 225 q 808 351 778 289 q 838 506 838 414 q 806 679 838 611 q 714 781 774 747 q 571 814 654 814 q 482 800 518 814 q 427 763 446 786 q 408 711 408 740 q 427 656 408 678 q 482 622 446 633 q 568 610 518 610 q 703 635 638 610 q 833 725 769 661 l 944 653 q 839 500 904 567 q 683 396 774 433 q 474 358 593 358 q 246 402 340 358 q 101 523 151 446 q 50 699 51 600 q 111 888 51 804 q 288 1019 171 971 q 578 1067 406 1067 q 908 997 778 1067 q 1103 803 1039 926 q 1167 522 1168 681 q 1103 240 1168 364 q 908 46 1038 117 q 582 -25 778 -25 z "},"A":{"ha":1383,"x_min":-4,"x_max":1388,"o":"m 331 175 l 331 460 l 1040 460 l 1040 175 l 331 175 m 931 1042 l 1388 0 l 1006 0 l 646 883 l 738 883 l 378 0 l -4 0 l 453 1042 l 931 1042 z "},"Á":{"ha":1383,"x_min":-4,"x_max":1388,"o":"m 331 175 l 331 460 l 1040 460 l 1040 175 l 331 175 m 931 1042 l 1388 0 l 1006 0 l 646 883 l 738 883 l 378 0 l -4 0 l 453 1042 l 931 1042 m 694 1364 l 1089 1364 l 839 1114 l 489 1114 l 694 1364 z "},"Ă":{"ha":1383,"x_min":-4,"x_max":1388,"o":"m 331 175 l 331 460 l 1040 460 l 1040 175 l 331 175 m 931 1042 l 1388 0 l 1006 0 l 646 883 l 738 883 l 378 0 l -4 0 l 453 1042 l 931 1042 m 303 1371 l 567 1371 q 619 1325 589 1340 q 692 1310 650 1310 q 764 1325 733 1310 q 817 1371 794 1340 l 1081 1371 q 939 1166 1042 1232 q 692 1100 836 1100 q 446 1166 549 1100 q 303 1371 343 1232 z "},"Ắ":{"ha":1383,"x_min":-4,"x_max":1388,"o":"m 331 175 l 331 460 l 1040 460 l 1040 175 l 331 175 m 931 1042 l 1388 0 l 1006 0 l 646 883 l 738 883 l 378 0 l -4 0 l 453 1042 l 931 1042 m 683 1646 l 994 1646 l 811 1406 l 544 1406 l 683 1646 m 303 1371 l 567 1371 q 619 1325 589 1340 q 692 1310 650 1310 q 764 1325 733 1310 q 817 1371 794 1340 l 1081 1371 q 939 1166 1042 1232 q 692 1100 836 1100 q 446 1166 549 1100 q 303 1371 343 1232 z "},"Ặ":{"ha":1383,"x_min":-4,"x_max":1388,"o":"m 331 175 l 331 460 l 1040 460 l 1040 175 l 331 175 m 931 1042 l 1388 0 l 1006 0 l 646 883 l 738 883 l 378 0 l -4 0 l 453 1042 l 931 1042 m 692 -381 q 549 -337 603 -381 q 494 -219 494 -294 q 549 -101 494 -144 q 692 -58 603 -58 q 835 -101 782 -58 q 889 -219 889 -144 q 835 -337 889 -294 q 692 -381 782 -381 m 303 1371 l 567 1371 q 619 1325 589 1340 q 692 1310 650 1310 q 764 1325 733 1310 q 817 1371 794 1340 l 1081 1371 q 939 1166 1042 1232 q 692 1100 836 1100 q 446 1166 549 1100 q 303 1371 343 1232 z "},"Ằ":{"ha":1383,"x_min":-4,"x_max":1388,"o":"m 331 175 l 331 460 l 1040 460 l 1040 175 l 331 175 m 931 1042 l 1388 0 l 1006 0 l 646 883 l 738 883 l 378 0 l -4 0 l 453 1042 l 931 1042 m 697 1646 l 836 1406 l 569 1406 l 386 1646 l 697 1646 m 303 1371 l 567 1371 q 619 1325 589 1340 q 692 1310 650 1310 q 764 1325 733 1310 q 817 1371 794 1340 l 1081 1371 q 939 1166 1042 1232 q 692 1100 836 1100 q 446 1166 549 1100 q 303 1371 343 1232 z "},"Ẳ":{"ha":1383,"x_min":-4,"x_max":1388,"o":"m 331 175 l 331 460 l 1040 460 l 1040 175 l 331 175 m 931 1042 l 1388 0 l 1006 0 l 646 883 l 738 883 l 378 0 l -4 0 l 453 1042 l 931 1042 m 679 1386 l 621 1464 q 674 1492 657 1478 q 692 1522 692 1507 q 619 1558 692 1558 q 579 1556 601 1558 q 533 1549 557 1554 l 533 1721 q 611 1736 563 1729 q 715 1743 660 1743 q 903 1704 836 1743 q 971 1596 971 1665 q 897 1470 971 1524 q 679 1386 824 1417 m 303 1371 l 567 1371 q 619 1325 589 1340 q 692 1310 650 1310 q 764 1325 733 1310 q 817 1371 794 1340 l 1081 1371 q 939 1166 1042 1232 q 692 1100 836 1100 q 446 1166 549 1100 q 303 1371 343 1232 z "},"Ẵ":{"ha":1383,"x_min":-4,"x_max":1388,"o":"m 331 175 l 331 460 l 1040 460 l 1040 175 l 331 175 m 931 1042 l 1388 0 l 1006 0 l 646 883 l 738 883 l 378 0 l -4 0 l 453 1042 l 931 1042 m 335 1422 q 395 1608 342 1538 q 550 1679 449 1679 q 628 1669 594 1679 q 688 1647 663 1660 q 735 1623 714 1633 q 776 1613 757 1613 q 819 1629 804 1613 q 839 1676 833 1646 l 1047 1676 q 988 1488 1042 1557 q 832 1419 933 1419 q 753 1430 788 1419 q 694 1453 719 1440 q 647 1476 668 1467 q 606 1486 625 1486 q 563 1469 578 1486 q 543 1422 549 1453 l 335 1422 m 303 1371 l 567 1371 q 619 1325 589 1340 q 692 1310 650 1310 q 764 1325 733 1310 q 817 1371 794 1340 l 1081 1371 q 939 1166 1042 1232 q 692 1100 836 1100 q 446 1166 549 1100 q 303 1371 343 1232 z "},"Ǎ":{"ha":1383,"x_min":-4,"x_max":1388,"o":"m 331 175 l 331 460 l 1040 460 l 1040 175 l 331 175 m 931 1042 l 1388 0 l 1006 0 l 646 883 l 738 883 l 378 0 l -4 0 l 453 1042 l 931 1042 m 874 1113 l 510 1113 l 294 1363 l 572 1363 l 775 1218 l 608 1218 l 811 1363 l 1089 1363 l 874 1113 z "},"Â":{"ha":1383,"x_min":-4,"x_max":1388,"o":"m 331 175 l 331 460 l 1040 460 l 1040 175 l 331 175 m 931 1042 l 1388 0 l 1006 0 l 646 883 l 738 883 l 378 0 l -4 0 l 453 1042 l 931 1042 m 510 1364 l 874 1364 l 1089 1114 l 811 1114 l 608 1258 l 775 1258 l 572 1114 l 294 1114 l 510 1364 z "},"Ấ":{"ha":1383,"x_min":-4,"x_max":1406,"o":"m 331 175 l 331 460 l 1040 460 l 1040 175 l 331 175 m 931 1042 l 1388 0 l 1006 0 l 646 883 l 738 883 l 378 0 l -4 0 l 453 1042 l 931 1042 m 1094 1547 l 1406 1547 l 1222 1307 l 956 1307 l 1094 1547 m 510 1364 l 874 1364 l 1089 1114 l 811 1114 l 608 1258 l 775 1258 l 572 1114 l 294 1114 l 510 1364 z "},"Ậ":{"ha":1383,"x_min":-4,"x_max":1388,"o":"m 331 175 l 331 460 l 1040 460 l 1040 175 l 331 175 m 931 1042 l 1388 0 l 1006 0 l 646 883 l 738 883 l 378 0 l -4 0 l 453 1042 l 931 1042 m 692 -381 q 549 -337 603 -381 q 494 -219 494 -294 q 549 -101 494 -144 q 692 -58 603 -58 q 835 -101 782 -58 q 889 -219 889 -144 q 835 -337 889 -294 q 692 -381 782 -381 m 510 1364 l 874 1364 l 1089 1114 l 811 1114 l 608 1258 l 775 1258 l 572 1114 l 294 1114 l 510 1364 z "},"Ầ":{"ha":1383,"x_min":-4,"x_max":1388,"o":"m 331 175 l 331 460 l 1040 460 l 1040 175 l 331 175 m 931 1042 l 1388 0 l 1006 0 l 646 883 l 738 883 l 378 0 l -4 0 l 453 1042 l 931 1042 m 1118 1547 l 1257 1307 l 990 1307 l 807 1547 l 1118 1547 m 510 1364 l 874 1364 l 1089 1114 l 811 1114 l 608 1258 l 775 1258 l 572 1114 l 294 1114 l 510 1364 z "},"Ẩ":{"ha":1383,"x_min":-4,"x_max":1388,"o":"m 331 175 l 331 460 l 1040 460 l 1040 175 l 331 175 m 931 1042 l 1388 0 l 1006 0 l 646 883 l 738 883 l 378 0 l -4 0 l 453 1042 l 931 1042 m 1021 1276 l 963 1354 q 1016 1383 999 1368 q 1033 1413 1033 1397 q 961 1449 1033 1449 q 921 1447 943 1449 q 875 1439 899 1444 l 875 1611 q 953 1626 904 1619 q 1057 1633 1001 1633 q 1245 1594 1178 1633 q 1313 1486 1313 1556 q 1239 1360 1313 1414 q 1021 1276 1165 1307 m 510 1364 l 874 1364 l 1089 1114 l 811 1114 l 608 1258 l 775 1258 l 572 1114 l 294 1114 l 510 1364 z "},"Ẫ":{"ha":1383,"x_min":-4,"x_max":1388,"o":"m 331 175 l 331 460 l 1040 460 l 1040 175 l 331 175 m 931 1042 l 1388 0 l 1006 0 l 646 883 l 738 883 l 378 0 l -4 0 l 453 1042 l 931 1042 m 335 1419 q 395 1606 342 1535 q 550 1676 449 1676 q 628 1667 594 1676 q 688 1644 663 1657 q 735 1620 714 1631 q 776 1610 757 1610 q 819 1626 804 1610 q 839 1674 833 1643 l 1047 1674 q 988 1485 1042 1554 q 832 1417 933 1417 q 753 1427 788 1417 q 694 1451 719 1438 q 647 1474 668 1464 q 606 1483 625 1483 q 563 1467 578 1483 q 543 1419 549 1450 l 335 1419 m 510 1364 l 874 1364 l 1089 1114 l 811 1114 l 608 1258 l 775 1258 l 572 1114 l 294 1114 l 510 1364 z "},"Ȁ":{"ha":1383,"x_min":-4,"x_max":1388,"o":"m 331 175 l 331 460 l 1040 460 l 1040 175 l 331 175 m 931 1042 l 1388 0 l 1006 0 l 646 883 l 738 883 l 378 0 l -4 0 l 453 1042 l 931 1042 m 871 1364 l 1044 1114 l 743 1114 l 539 1364 l 871 1364 m 465 1364 l 639 1114 l 338 1114 l 133 1364 l 465 1364 z "},"Ä":{"ha":1383,"x_min":-4,"x_max":1388,"o":"m 331 175 l 331 460 l 1040 460 l 1040 175 l 331 175 m 931 1042 l 1388 0 l 1006 0 l 646 883 l 738 883 l 378 0 l -4 0 l 453 1042 l 931 1042 m 469 1100 q 337 1140 386 1100 q 288 1254 288 1181 q 337 1363 288 1324 q 469 1403 386 1403 q 602 1363 553 1403 q 651 1254 651 1324 q 602 1140 651 1181 q 469 1100 553 1100 m 914 1100 q 781 1140 831 1100 q 732 1254 732 1181 q 781 1363 732 1324 q 914 1403 831 1403 q 1047 1363 997 1403 q 1096 1254 1096 1324 q 1047 1140 1096 1181 q 914 1100 997 1100 z "},"Ǟ":{"ha":1383,"x_min":-4,"x_max":1388,"o":"m 331 175 l 331 460 l 1040 460 l 1040 175 l 331 175 m 931 1042 l 1388 0 l 1006 0 l 646 883 l 738 883 l 378 0 l -4 0 l 453 1042 l 931 1042 m 469 1100 q 337 1140 386 1100 q 288 1254 288 1181 q 337 1363 288 1324 q 469 1403 386 1403 q 602 1363 553 1403 q 651 1254 651 1324 q 602 1140 651 1181 q 469 1100 553 1100 m 914 1100 q 781 1140 831 1100 q 732 1254 732 1181 q 781 1363 732 1324 q 914 1403 831 1403 q 1047 1363 997 1403 q 1096 1254 1096 1324 q 1047 1140 1096 1181 q 914 1100 997 1100 m 329 1457 l 329 1661 l 1057 1661 l 1057 1457 l 329 1457 z "},"Ȧ":{"ha":1383,"x_min":-4,"x_max":1388,"o":"m 331 175 l 331 460 l 1040 460 l 1040 175 l 331 175 m 931 1042 l 1388 0 l 1006 0 l 646 883 l 738 883 l 378 0 l -4 0 l 453 1042 l 931 1042 m 692 1100 q 549 1143 603 1100 q 494 1261 494 1186 q 549 1379 494 1336 q 692 1422 603 1422 q 835 1379 782 1422 q 889 1261 889 1336 q 835 1143 889 1186 q 692 1100 782 1100 z "},"Ạ":{"ha":1383,"x_min":-4,"x_max":1388,"o":"m 331 175 l 331 460 l 1040 460 l 1040 175 l 331 175 m 931 1042 l 1388 0 l 1006 0 l 646 883 l 738 883 l 378 0 l -4 0 l 453 1042 l 931 1042 m 692 -381 q 549 -337 603 -381 q 494 -219 494 -294 q 549 -101 494 -144 q 692 -58 603 -58 q 835 -101 782 -58 q 889 -219 889 -144 q 835 -337 889 -294 q 692 -381 782 -381 z "},"Ǡ":{"ha":1383,"x_min":-4,"x_max":1388,"o":"m 331 175 l 331 460 l 1040 460 l 1040 175 l 331 175 m 931 1042 l 1388 0 l 1006 0 l 646 883 l 738 883 l 378 0 l -4 0 l 453 1042 l 931 1042 m 692 1100 q 549 1143 603 1100 q 494 1261 494 1186 q 549 1379 494 1336 q 692 1422 603 1422 q 835 1379 782 1422 q 889 1261 889 1336 q 835 1143 889 1186 q 692 1100 782 1100 m 328 1457 l 328 1661 l 1056 1661 l 1056 1457 l 328 1457 z "},"À":{"ha":1383,"x_min":-4,"x_max":1388,"o":"m 331 175 l 331 460 l 1040 460 l 1040 175 l 331 175 m 931 1042 l 1388 0 l 1006 0 l 646 883 l 738 883 l 378 0 l -4 0 l 453 1042 l 931 1042 m 676 1364 l 882 1114 l 532 1114 l 282 1364 l 676 1364 z "},"Ả":{"ha":1383,"x_min":-4,"x_max":1388,"o":"m 331 175 l 331 460 l 1040 460 l 1040 175 l 331 175 m 931 1042 l 1388 0 l 1006 0 l 646 883 l 738 883 l 378 0 l -4 0 l 453 1042 l 931 1042 m 619 1094 l 560 1193 q 651 1219 625 1204 q 676 1247 676 1233 q 658 1268 676 1261 q 600 1275 639 1275 q 543 1272 569 1275 q 486 1264 517 1269 l 486 1429 q 574 1448 517 1439 q 689 1457 631 1457 q 897 1420 825 1457 q 968 1300 968 1383 q 889 1174 968 1224 q 619 1094 810 1124 z "},"Ȃ":{"ha":1383,"x_min":-4,"x_max":1388,"o":"m 331 175 l 331 460 l 1040 460 l 1040 175 l 331 175 m 931 1042 l 1388 0 l 1006 0 l 646 883 l 738 883 l 378 0 l -4 0 l 453 1042 l 931 1042 m 1081 1106 l 817 1106 q 764 1151 794 1136 q 692 1167 733 1167 q 619 1151 650 1167 q 567 1106 589 1136 l 303 1106 q 446 1310 343 1244 q 692 1376 549 1376 q 939 1310 836 1376 q 1081 1106 1042 1244 z "},"Ɑ":{"ha":1375,"x_min":47,"x_max":1318,"o":"m 976 0 l 925 369 l 976 521 l 925 668 l 976 1042 l 1318 1042 l 1246 521 l 1318 0 l 976 0 m 1071 521 q 986 234 1054 357 q 810 43 918 111 q 560 -25 701 -25 q 291 43 407 -25 q 111 234 175 111 q 47 521 47 357 q 111 808 47 685 q 291 999 175 931 q 560 1067 407 1067 q 810 1000 700 1067 q 988 811 919 933 q 1071 521 1056 689 m 408 521 q 440 403 408 456 q 527 322 471 351 q 657 292 583 292 q 783 322 722 292 q 890 403 844 351 q 956 521 936 456 q 890 639 936 588 q 783 720 844 690 q 657 750 722 750 q 527 720 583 750 q 440 639 471 690 q 408 521 408 588 z "},"Ɒ":{"ha":1375,"x_min":57,"x_max":1328,"o":"m 399 0 l 57 0 l 129 521 l 57 1042 l 399 1042 l 450 668 l 399 521 l 450 369 l 399 0 m 304 521 q 388 811 321 689 q 565 1000 456 933 q 815 1067 675 1067 q 1085 999 969 1067 q 1264 808 1200 931 q 1328 521 1328 685 q 1264 234 1328 357 q 1085 43 1200 111 q 815 -25 969 -25 q 566 43 675 -25 q 390 234 457 111 q 304 521 322 357 m 967 521 q 935 639 967 588 q 848 720 904 690 q 718 750 792 750 q 592 720 653 750 q 485 639 531 690 q 419 521 439 588 q 485 403 439 456 q 592 322 531 351 q 718 292 653 292 q 848 322 792 292 q 935 403 904 351 q 967 521 967 456 z "},"Ā":{"ha":1383,"x_min":-4,"x_max":1388,"o":"m 331 175 l 331 460 l 1040 460 l 1040 175 l 331 175 m 931 1042 l 1388 0 l 1006 0 l 646 883 l 738 883 l 378 0 l -4 0 l 453 1042 l 931 1042 m 328 1135 l 328 1339 l 1056 1339 l 1056 1135 l 328 1135 z "},"Ą":{"ha":1383,"x_min":-4,"x_max":1388,"o":"m 331 175 l 331 460 l 1040 460 l 1040 175 l 331 175 m 931 1042 l 1388 0 l 1006 0 l 646 883 l 738 883 l 378 0 l -4 0 l 453 1042 l 931 1042 m 1251 31 l 1356 17 l 1356 0 l 1388 0 q 1297 -28 1335 -12 q 1241 -58 1260 -43 q 1222 -87 1222 -72 q 1308 -124 1222 -124 q 1351 -121 1332 -124 q 1388 -114 1369 -118 l 1388 -286 q 1321 -301 1369 -293 q 1219 -308 1272 -308 q 1047 -271 1113 -308 q 981 -172 981 -233 q 1049 -50 981 -100 q 1251 31 1118 0 z "},"Å":{"ha":1383,"x_min":-4,"x_max":1388,"o":"m 331 175 l 331 460 l 1040 460 l 1040 175 l 331 175 m 931 1042 l 1388 0 l 1006 0 l 646 883 l 738 883 l 378 0 l -4 0 l 453 1042 l 931 1042 m 692 1086 q 464 1140 544 1086 q 383 1294 383 1194 q 464 1449 383 1394 q 692 1503 544 1503 q 920 1449 840 1503 q 1000 1294 1000 1394 q 920 1140 1000 1194 q 692 1086 840 1086 m 692 1231 q 783 1247 756 1231 q 811 1294 811 1264 q 783 1342 811 1325 q 692 1358 756 1358 q 600 1342 628 1358 q 572 1294 572 1325 q 600 1247 572 1264 q 692 1231 628 1231 z "},"Ǻ":{"ha":1383,"x_min":-4,"x_max":1388,"o":"m 656 1753 l 967 1753 l 811 1471 l 558 1471 l 656 1753 m 331 175 l 331 460 l 1040 460 l 1040 175 l 331 175 m 931 1042 l 1388 0 l 1006 0 l 646 883 l 738 883 l 378 0 l -4 0 l 453 1042 l 931 1042 m 692 1086 q 464 1140 544 1086 q 383 1294 383 1194 q 464 1449 383 1394 q 692 1503 544 1503 q 920 1449 840 1503 q 1000 1294 1000 1394 q 920 1140 1000 1194 q 692 1086 840 1086 m 692 1231 q 783 1247 756 1231 q 811 1294 811 1264 q 783 1342 811 1325 q 692 1358 756 1358 q 600 1342 628 1358 q 572 1294 572 1325 q 600 1247 572 1264 q 692 1231 628 1231 z "},"Ḁ":{"ha":1383,"x_min":-4,"x_max":1388,"o":"m 331 175 l 331 460 l 1040 460 l 1040 175 l 331 175 m 931 1042 l 1388 0 l 1006 0 l 646 883 l 738 883 l 378 0 l -4 0 l 453 1042 l 931 1042 m 692 -475 q 477 -419 554 -475 q 400 -265 400 -364 q 477 -113 400 -168 q 692 -58 554 -58 q 906 -113 829 -58 q 983 -265 983 -168 q 906 -419 983 -364 q 692 -475 829 -475 m 692 -342 q 767 -322 740 -342 q 793 -267 793 -301 q 767 -211 793 -231 q 692 -192 740 -192 q 617 -211 644 -192 q 590 -267 590 -231 q 617 -322 590 -301 q 692 -342 644 -342 z "},"Ⱥ":{"ha":1383,"x_min":-4,"x_max":1388,"o":"m 924 1211 l 1111 1211 l 576 -169 l 389 -169 l 924 1211 m 331 175 l 331 460 l 1040 460 l 1040 175 l 331 175 m 931 1042 l 1388 0 l 1006 0 l 646 883 l 738 883 l 378 0 l -4 0 l 453 1042 l 931 1042 z "},"Ã":{"ha":1383,"x_min":-4,"x_max":1388,"o":"m 331 175 l 331 460 l 1040 460 l 1040 175 l 331 175 m 931 1042 l 1388 0 l 1006 0 l 646 883 l 738 883 l 378 0 l -4 0 l 453 1042 l 931 1042 m 281 1119 q 363 1313 299 1243 q 557 1383 428 1383 q 631 1374 596 1383 q 698 1353 667 1365 q 757 1333 729 1342 q 808 1324 785 1324 q 855 1336 836 1324 q 879 1374 874 1349 l 1101 1374 q 1019 1181 1083 1251 q 825 1110 954 1110 q 751 1119 786 1110 q 684 1140 715 1128 q 625 1160 653 1151 q 574 1169 597 1169 q 527 1157 546 1169 q 503 1119 508 1144 l 281 1119 z "},"Ɐ":{"ha":1383,"x_min":-4,"x_max":1388,"o":"m 1053 867 l 1053 582 l 343 582 l 343 867 l 1053 867 m 453 0 l -4 1042 l 378 1042 l 738 158 l 646 158 l 1006 1042 l 1388 1042 l 931 0 l 453 0 z "},"Æ":{"ha":1758,"x_min":0,"x_max":1694,"o":"m 1149 397 l 1188 283 l 1694 283 l 1694 0 l 926 0 l 611 940 l 725 940 l 382 0 l 0 0 l 415 1042 l 1688 1042 l 1688 758 l 1028 758 l 1067 644 l 1643 644 l 1643 397 l 1149 397 m 307 175 l 307 460 l 975 460 l 975 175 l 307 175 z "},"Ǽ":{"ha":1758,"x_min":0,"x_max":1694,"o":"m 1149 397 l 1188 283 l 1694 283 l 1694 0 l 926 0 l 611 940 l 725 940 l 382 0 l 0 0 l 415 1042 l 1688 1042 l 1688 758 l 1028 758 l 1067 644 l 1643 644 l 1643 397 l 1149 397 m 307 175 l 307 460 l 975 460 l 975 175 l 307 175 m 1033 1364 l 1428 1364 l 1178 1114 l 828 1114 l 1033 1364 z "},"Ǣ":{"ha":1758,"x_min":0,"x_max":1694,"o":"m 1149 397 l 1188 283 l 1694 283 l 1694 0 l 926 0 l 611 940 l 725 940 l 382 0 l 0 0 l 415 1042 l 1688 1042 l 1688 758 l 1028 758 l 1067 644 l 1643 644 l 1643 397 l 1149 397 m 307 175 l 307 460 l 975 460 l 975 175 l 307 175 m 667 1135 l 667 1339 l 1394 1339 l 1394 1135 l 667 1135 z "},"B":{"ha":1260,"x_min":56,"x_max":1222,"o":"m 839 506 l 867 569 q 1064 532 985 565 q 1183 440 1143 499 q 1222 299 1222 381 q 1184 146 1222 214 q 1068 39 1146 78 q 874 0 990 0 l 56 0 l 135 535 l 56 1042 l 844 1042 q 1071 974 989 1042 q 1153 788 1153 907 q 1122 660 1153 719 q 1023 559 1092 600 q 839 506 954 518 m 406 78 l 269 238 l 760 238 q 832 262 806 238 q 858 328 858 286 q 833 392 858 365 q 757 418 807 418 l 346 418 l 346 651 l 704 651 q 765 674 740 651 q 789 731 789 696 q 767 783 789 763 q 704 804 744 804 l 271 804 l 406 964 l 476 535 l 406 78 z "},"Ḃ":{"ha":1260,"x_min":56,"x_max":1222,"o":"m 839 506 l 867 569 q 1064 532 985 565 q 1183 440 1143 499 q 1222 299 1222 381 q 1184 146 1222 214 q 1068 39 1146 78 q 874 0 990 0 l 56 0 l 135 535 l 56 1042 l 844 1042 q 1071 974 989 1042 q 1153 788 1153 907 q 1122 660 1153 719 q 1023 559 1092 600 q 839 506 954 518 m 406 78 l 269 238 l 760 238 q 832 262 806 238 q 858 328 858 286 q 833 392 858 365 q 757 418 807 418 l 346 418 l 346 651 l 704 651 q 765 674 740 651 q 789 731 789 696 q 767 783 789 763 q 704 804 744 804 l 271 804 l 406 964 l 476 535 l 406 78 m 607 1100 q 464 1143 518 1100 q 410 1261 410 1186 q 464 1379 410 1336 q 607 1422 518 1422 q 751 1379 697 1422 q 804 1261 804 1336 q 751 1143 804 1186 q 607 1100 697 1100 z "},"Ḅ":{"ha":1260,"x_min":56,"x_max":1222,"o":"m 839 506 l 867 569 q 1064 532 985 565 q 1183 440 1143 499 q 1222 299 1222 381 q 1184 146 1222 214 q 1068 39 1146 78 q 874 0 990 0 l 56 0 l 135 535 l 56 1042 l 844 1042 q 1071 974 989 1042 q 1153 788 1153 907 q 1122 660 1153 719 q 1023 559 1092 600 q 839 506 954 518 m 406 78 l 269 238 l 760 238 q 832 262 806 238 q 858 328 858 286 q 833 392 858 365 q 757 418 807 418 l 346 418 l 346 651 l 704 651 q 765 674 740 651 q 789 731 789 696 q 767 783 789 763 q 704 804 744 804 l 271 804 l 406 964 l 476 535 l 406 78 m 638 -381 q 494 -337 549 -381 q 440 -219 440 -294 q 494 -101 440 -144 q 638 -58 549 -58 q 781 -101 728 -58 q 835 -219 835 -144 q 781 -337 835 -294 q 638 -381 728 -381 z "},"Ꞵ":{"ha":1274,"x_min":83,"x_max":1236,"o":"m 1021 550 q 1140 497 1093 532 q 1212 413 1188 463 q 1236 299 1236 363 q 1198 146 1236 214 q 1082 39 1160 78 q 888 0 1004 0 l 439 0 l 439 -229 l 83 -229 l 83 1042 l 858 1042 q 1085 974 1003 1042 q 1167 788 1167 907 q 1152 696 1167 740 q 1106 614 1138 651 q 1021 550 1074 576 m 803 731 q 781 783 803 763 q 718 804 758 804 l 439 804 l 439 651 l 718 651 q 778 674 754 651 q 803 731 803 696 m 439 238 l 774 238 q 846 262 819 238 q 872 328 872 286 q 847 392 872 365 q 771 418 821 418 l 439 418 l 439 238 z "},"Ɓ":{"ha":1572,"x_min":21,"x_max":1535,"o":"m 319 1042 l 1157 1042 q 1383 974 1301 1042 q 1465 788 1465 907 q 1435 660 1465 719 q 1335 559 1404 600 q 1151 506 1267 518 l 1179 569 q 1376 532 1297 565 q 1495 440 1456 499 q 1535 299 1535 381 q 1497 146 1535 214 q 1381 39 1458 78 q 1186 0 1303 0 l 368 0 l 447 535 l 379 972 l 503 783 l 401 783 q 338 760 358 783 q 317 688 317 738 q 324 609 317 646 q 338 547 331 572 l 81 547 q 40 648 58 592 q 21 774 21 704 q 95 968 21 894 q 319 1042 169 1042 m 718 78 l 582 238 l 1072 238 q 1144 262 1118 238 q 1171 328 1171 286 q 1145 392 1171 365 q 1069 418 1119 418 l 658 418 l 658 651 l 1017 651 q 1077 674 1053 651 q 1101 731 1101 696 q 1079 783 1101 763 q 1017 804 1057 804 l 583 804 l 718 964 l 789 535 l 718 78 z "},"Ḇ":{"ha":1260,"x_min":56,"x_max":1222,"o":"m 839 506 l 867 569 q 1064 532 985 565 q 1183 440 1143 499 q 1222 299 1222 381 q 1184 146 1222 214 q 1068 39 1146 78 q 874 0 990 0 l 56 0 l 135 535 l 56 1042 l 844 1042 q 1071 974 989 1042 q 1153 788 1153 907 q 1122 660 1153 719 q 1023 559 1092 600 q 839 506 954 518 m 406 78 l 269 238 l 760 238 q 832 262 806 238 q 858 328 858 286 q 833 392 858 365 q 757 418 807 418 l 346 418 l 346 651 l 704 651 q 765 674 740 651 q 789 731 789 696 q 767 783 789 763 q 704 804 744 804 l 271 804 l 406 964 l 476 535 l 406 78 m 300 -292 l 300 -87 l 1028 -87 l 1028 -292 l 300 -292 z "},"Ƀ":{"ha":1313,"x_min":25,"x_max":1275,"o":"m 25 415 l 714 415 l 714 240 l 25 240 l 25 415 m 892 506 l 919 569 q 1117 532 1038 565 q 1235 440 1196 499 q 1275 299 1275 381 q 1237 146 1275 214 q 1121 39 1199 78 q 926 0 1043 0 l 108 0 l 188 535 l 108 1042 l 897 1042 q 1124 974 1042 1042 q 1206 788 1206 907 q 1175 660 1206 719 q 1076 559 1144 600 q 892 506 1007 518 m 458 78 l 322 238 l 813 238 q 885 262 858 238 q 911 328 911 286 q 885 392 911 365 q 810 418 860 418 l 399 418 l 399 651 l 757 651 q 817 674 793 651 q 842 731 842 696 q 819 783 842 763 q 757 804 797 804 l 324 804 l 458 964 l 529 535 l 458 78 z "},"C":{"ha":1318,"x_min":44,"x_max":1281,"o":"m 1281 451 q 1183 201 1264 308 q 968 35 1101 94 q 663 -25 835 -25 q 338 43 476 -25 q 122 234 199 111 q 44 521 44 357 q 122 808 44 685 q 338 999 199 931 q 663 1067 476 1067 q 968 1007 835 1067 q 1183 840 1101 947 q 1281 590 1264 733 l 921 590 q 875 683 908 644 q 788 741 842 721 q 663 761 735 761 q 524 733 582 761 q 436 650 467 704 q 406 521 406 596 q 436 392 406 446 q 524 310 467 339 q 663 281 582 281 q 788 299 735 281 q 875 356 842 318 q 921 451 908 394 l 1281 451 z "},"Ć":{"ha":1318,"x_min":44,"x_max":1281,"o":"m 1281 451 q 1183 201 1264 308 q 968 35 1101 94 q 663 -25 835 -25 q 338 43 476 -25 q 122 234 199 111 q 44 521 44 357 q 122 808 44 685 q 338 999 199 931 q 663 1067 476 1067 q 968 1007 835 1067 q 1183 840 1101 947 q 1281 590 1264 733 l 921 590 q 875 683 908 644 q 788 741 842 721 q 663 761 735 761 q 524 733 582 761 q 436 650 467 704 q 406 521 406 596 q 436 392 406 446 q 524 310 467 339 q 663 281 582 281 q 788 299 735 281 q 875 356 842 318 q 921 451 908 394 l 1281 451 m 665 1364 l 1060 1364 l 810 1114 l 460 1114 l 665 1364 z "},"Č":{"ha":1318,"x_min":44,"x_max":1281,"o":"m 1281 451 q 1183 201 1264 308 q 968 35 1101 94 q 663 -25 835 -25 q 338 43 476 -25 q 122 234 199 111 q 44 521 44 357 q 122 808 44 685 q 338 999 199 931 q 663 1067 476 1067 q 968 1007 835 1067 q 1183 840 1101 947 q 1281 590 1264 733 l 921 590 q 875 683 908 644 q 788 741 842 721 q 663 761 735 761 q 524 733 582 761 q 436 650 467 704 q 406 521 406 596 q 436 392 406 446 q 524 310 467 339 q 663 281 582 281 q 788 299 735 281 q 875 356 842 318 q 921 451 908 394 l 1281 451 m 844 1113 l 481 1113 l 265 1363 l 543 1363 l 746 1218 l 579 1218 l 782 1363 l 1060 1363 l 844 1113 z "},"Ç":{"ha":1318,"x_min":44,"x_max":1281,"o":"m 1281 451 q 1183 201 1264 308 q 968 35 1101 94 q 663 -25 835 -25 q 338 43 476 -25 q 122 234 199 111 q 44 521 44 357 q 122 808 44 685 q 338 999 199 931 q 663 1067 476 1067 q 968 1007 835 1067 q 1183 840 1101 947 q 1281 590 1264 733 l 921 590 q 875 683 908 644 q 788 741 842 721 q 663 761 735 761 q 524 733 582 761 q 436 650 467 704 q 406 521 406 596 q 436 392 406 446 q 524 310 467 339 q 663 281 582 281 q 788 299 735 281 q 875 356 842 318 q 921 451 908 394 l 1281 451 m 594 35 l 754 35 l 683 -94 l 596 -89 q 677 -62 635 -72 q 765 -51 719 -51 q 928 -90 872 -51 q 983 -197 983 -128 q 910 -317 983 -269 q 690 -365 836 -365 q 482 -322 564 -365 q 378 -199 400 -278 l 596 -199 q 625 -221 603 -211 q 690 -231 647 -231 q 755 -219 733 -231 q 776 -189 776 -207 q 759 -160 776 -172 q 704 -149 742 -149 q 666 -151 686 -149 q 629 -160 646 -153 l 467 -160 l 594 35 z "},"Ḉ":{"ha":1318,"x_min":44,"x_max":1281,"o":"m 1281 451 q 1183 201 1264 308 q 968 35 1101 94 q 663 -25 835 -25 q 338 43 476 -25 q 122 234 199 111 q 44 521 44 357 q 122 808 44 685 q 338 999 199 931 q 663 1067 476 1067 q 968 1007 835 1067 q 1183 840 1101 947 q 1281 590 1264 733 l 921 590 q 875 683 908 644 q 788 741 842 721 q 663 761 735 761 q 524 733 582 761 q 436 650 467 704 q 406 521 406 596 q 436 392 406 446 q 524 310 467 339 q 663 281 582 281 q 788 299 735 281 q 875 356 842 318 q 921 451 908 394 l 1281 451 m 594 35 l 754 35 l 683 -94 l 596 -89 q 677 -62 635 -72 q 765 -51 719 -51 q 928 -90 872 -51 q 983 -197 983 -128 q 910 -317 983 -269 q 690 -365 836 -365 q 482 -322 564 -365 q 378 -199 400 -278 l 596 -199 q 625 -221 603 -211 q 690 -231 647 -231 q 755 -219 733 -231 q 776 -189 776 -207 q 759 -160 776 -172 q 704 -149 742 -149 q 666 -151 686 -149 q 629 -160 646 -153 l 467 -160 l 594 35 m 665 1364 l 1060 1364 l 810 1114 l 460 1114 l 665 1364 z "},"Ĉ":{"ha":1318,"x_min":44,"x_max":1281,"o":"m 1281 451 q 1183 201 1264 308 q 968 35 1101 94 q 663 -25 835 -25 q 338 43 476 -25 q 122 234 199 111 q 44 521 44 357 q 122 808 44 685 q 338 999 199 931 q 663 1067 476 1067 q 968 1007 835 1067 q 1183 840 1101 947 q 1281 590 1264 733 l 921 590 q 875 683 908 644 q 788 741 842 721 q 663 761 735 761 q 524 733 582 761 q 436 650 467 704 q 406 521 406 596 q 436 392 406 446 q 524 310 467 339 q 663 281 582 281 q 788 299 735 281 q 875 356 842 318 q 921 451 908 394 l 1281 451 m 481 1364 l 844 1364 l 1060 1114 l 782 1114 l 579 1258 l 746 1258 l 543 1114 l 265 1114 l 481 1364 z "},"Ċ":{"ha":1318,"x_min":44,"x_max":1281,"o":"m 1281 451 q 1183 201 1264 308 q 968 35 1101 94 q 663 -25 835 -25 q 338 43 476 -25 q 122 234 199 111 q 44 521 44 357 q 122 808 44 685 q 338 999 199 931 q 663 1067 476 1067 q 968 1007 835 1067 q 1183 840 1101 947 q 1281 590 1264 733 l 921 590 q 875 683 908 644 q 788 741 842 721 q 663 761 735 761 q 524 733 582 761 q 436 650 467 704 q 406 521 406 596 q 436 392 406 446 q 524 310 467 339 q 663 281 582 281 q 788 299 735 281 q 875 356 842 318 q 921 451 908 394 l 1281 451 m 663 1100 q 519 1143 574 1100 q 465 1261 465 1186 q 519 1379 465 1336 q 663 1422 574 1422 q 806 1379 753 1422 q 860 1261 860 1336 q 806 1143 860 1186 q 663 1100 753 1100 z "},"Ꭓ":{"ha":1197,"x_min":-19,"x_max":1215,"o":"m 713 313 l 713 549 l 1215 -229 l 836 -229 l 519 292 l 674 292 l 354 -229 l -19 -229 l 488 549 l 488 314 l 7 1042 l 392 1042 l 679 572 l 526 572 l 808 1042 l 1189 1042 l 713 313 z "},"Ƈ":{"ha":1435,"x_min":46,"x_max":1442,"o":"m 653 1067 q 976 976 851 1067 q 1158 729 1100 886 l 1051 771 q 991 888 1021 824 q 961 1014 961 951 q 990 1135 961 1079 q 1083 1224 1019 1190 q 1247 1258 1146 1258 q 1347 1252 1297 1258 q 1442 1232 1397 1246 l 1442 972 q 1392 985 1418 979 q 1338 990 1367 990 q 1246 965 1275 990 q 1217 889 1217 939 q 1222 840 1217 865 q 1232 789 1226 815 q 1256 703 1240 754 q 1282 590 1272 651 l 922 590 q 876 683 910 644 q 790 741 843 721 q 664 761 736 761 q 526 733 583 761 q 438 650 468 704 q 407 521 407 596 q 438 392 407 446 q 526 310 468 339 q 664 281 583 281 q 790 299 736 281 q 876 356 843 318 q 922 451 910 394 l 1282 451 q 1184 201 1265 308 q 969 35 1103 94 q 664 -25 836 -25 q 339 43 478 -25 q 123 234 200 111 q 46 521 46 357 q 123 808 46 686 q 338 999 200 931 q 653 1067 475 1067 z "},"Ȼ":{"ha":1319,"x_min":46,"x_max":1282,"o":"m 775 1211 l 1056 1211 l 521 -169 l 240 -169 l 775 1211 m 1282 451 q 1184 201 1265 308 q 969 35 1103 94 q 664 -25 836 -25 q 339 43 478 -25 q 123 234 200 111 q 46 521 46 357 q 123 808 46 685 q 339 999 200 931 q 664 1067 478 1067 q 969 1007 836 1067 q 1184 840 1103 947 q 1282 590 1265 733 l 922 590 q 876 683 910 644 q 790 741 843 721 q 664 761 736 761 q 526 733 583 761 q 438 650 468 704 q 407 521 407 596 q 438 392 407 446 q 526 310 468 339 q 664 281 583 281 q 790 299 736 281 q 876 356 843 318 q 922 451 910 394 l 1282 451 z "},"D":{"ha":1314,"x_min":83,"x_max":1269,"o":"m 636 1042 q 969 977 826 1042 q 1190 796 1111 913 q 1269 521 1269 679 q 1190 247 1269 364 q 969 65 1111 129 q 636 0 826 0 l 83 0 l 83 1042 l 636 1042 m 439 160 l 278 319 l 664 319 q 795 344 740 319 q 879 413 850 368 q 908 521 908 458 q 879 629 908 585 q 795 698 850 674 q 664 722 740 722 l 278 722 l 439 882 l 439 160 z "},"Ǳ":{"ha":2436,"x_min":83,"x_max":2376,"o":"m 636 1042 q 969 977 826 1042 q 1190 796 1111 913 q 1269 521 1269 679 q 1190 247 1269 364 q 969 65 1111 129 q 636 0 826 0 l 83 0 l 83 1042 l 636 1042 m 439 160 l 278 319 l 664 319 q 795 344 740 319 q 879 413 850 368 q 908 521 908 458 q 879 629 908 585 q 795 698 850 674 q 664 722 740 722 l 278 722 l 439 882 l 439 160 m 1343 0 l 1343 254 l 1967 831 l 2236 768 l 1347 768 l 1347 1043 l 2372 1043 l 2372 789 l 1750 213 l 1519 275 l 2376 275 l 2376 0 l 1343 0 z "},"Ǆ":{"ha":2436,"x_min":83,"x_max":2376,"o":"m 636 1042 q 969 977 826 1042 q 1190 796 1111 913 q 1269 521 1269 679 q 1190 247 1269 364 q 969 65 1111 129 q 636 0 826 0 l 83 0 l 83 1042 l 636 1042 m 439 160 l 278 319 l 664 319 q 795 344 740 319 q 879 413 850 368 q 908 521 908 458 q 879 629 908 585 q 795 698 850 674 q 664 722 740 722 l 278 722 l 439 882 l 439 160 m 1343 0 l 1343 254 l 1967 831 l 2236 768 l 1347 768 l 1347 1043 l 2372 1043 l 2372 789 l 1750 213 l 1519 275 l 2376 275 l 2376 0 l 1343 0 m 2042 1113 l 1678 1113 l 1463 1363 l 1740 1363 l 1943 1218 l 1776 1218 l 1979 1363 l 2257 1363 l 2042 1113 z "},"Ɖ":{"ha":1342,"x_min":39,"x_max":1297,"o":"m 39 635 l 668 635 l 668 410 l 39 410 l 39 635 m 664 1042 q 997 977 854 1042 q 1218 796 1139 913 q 1297 521 1297 679 q 1218 247 1297 364 q 997 65 1139 129 q 664 0 854 0 l 111 0 l 111 1042 l 664 1042 m 467 160 l 306 319 l 692 319 q 823 344 768 319 q 907 413 878 368 q 936 521 936 458 q 907 629 936 585 q 823 698 878 674 q 692 722 768 722 l 306 722 l 467 882 l 467 160 z "},"Ð":{"ha":1342,"x_min":39,"x_max":1297,"o":"m 39 635 l 668 635 l 668 410 l 39 410 l 39 635 m 664 1042 q 997 977 854 1042 q 1218 796 1139 913 q 1297 521 1297 679 q 1218 247 1297 364 q 997 65 1139 129 q 664 0 854 0 l 111 0 l 111 1042 l 664 1042 m 467 160 l 306 319 l 692 319 q 823 344 768 319 q 907 413 878 368 q 936 521 936 458 q 907 629 936 585 q 823 698 878 674 q 692 722 768 722 l 306 722 l 467 882 l 467 160 z "},"Ď":{"ha":1314,"x_min":83,"x_max":1269,"o":"m 636 1042 q 969 977 826 1042 q 1190 796 1111 913 q 1269 521 1269 679 q 1190 247 1269 364 q 969 65 1111 129 q 636 0 826 0 l 83 0 l 83 1042 l 636 1042 m 439 160 l 278 319 l 664 319 q 795 344 740 319 q 879 413 850 368 q 908 521 908 458 q 879 629 908 585 q 795 698 850 674 q 664 722 740 722 l 278 722 l 439 882 l 439 160 m 804 1113 l 440 1113 l 225 1363 l 503 1363 l 706 1218 l 539 1218 l 742 1363 l 1019 1363 l 804 1113 z "},"Ḑ":{"ha":1314,"x_min":83,"x_max":1269,"o":"m 636 1042 q 969 977 826 1042 q 1190 796 1111 913 q 1269 521 1269 679 q 1190 247 1269 364 q 969 65 1111 129 q 636 0 826 0 l 83 0 l 83 1042 l 636 1042 m 439 160 l 278 319 l 664 319 q 795 344 740 319 q 879 413 850 368 q 908 521 908 458 q 879 629 908 585 q 795 698 850 674 q 664 722 740 722 l 278 722 l 439 882 l 439 160 m 460 -471 l 615 -233 l 629 -329 q 498 -293 547 -329 q 449 -193 449 -257 q 498 -94 449 -129 q 629 -58 547 -58 q 760 -94 711 -58 q 808 -194 808 -129 q 784 -275 808 -237 q 710 -369 760 -312 l 621 -471 l 460 -471 z "},"Ḓ":{"ha":1314,"x_min":83,"x_max":1269,"o":"m 636 1042 q 969 977 826 1042 q 1190 796 1111 913 q 1269 521 1269 679 q 1190 247 1269 364 q 969 65 1111 129 q 636 0 826 0 l 83 0 l 83 1042 l 636 1042 m 439 160 l 278 319 l 664 319 q 795 344 740 319 q 879 413 850 368 q 908 521 908 458 q 879 629 908 585 q 795 698 850 674 q 664 722 740 722 l 278 722 l 439 882 l 439 160 m 451 -58 l 807 -58 l 1006 -336 l 735 -336 l 546 -136 l 713 -136 l 524 -336 l 253 -336 l 451 -58 z "},"Đ":{"ha":1342,"x_min":39,"x_max":1297,"o":"m 39 635 l 668 635 l 668 410 l 39 410 l 39 635 m 664 1042 q 997 977 854 1042 q 1218 796 1139 913 q 1297 521 1297 679 q 1218 247 1297 364 q 997 65 1139 129 q 664 0 854 0 l 111 0 l 111 1042 l 664 1042 m 467 160 l 306 319 l 692 319 q 823 344 768 319 q 907 413 878 368 q 936 521 936 458 q 907 629 936 585 q 823 698 878 674 q 692 722 768 722 l 306 722 l 467 882 l 467 160 z "},"Ḋ":{"ha":1314,"x_min":83,"x_max":1269,"o":"m 636 1042 q 969 977 826 1042 q 1190 796 1111 913 q 1269 521 1269 679 q 1190 247 1269 364 q 969 65 1111 129 q 636 0 826 0 l 83 0 l 83 1042 l 636 1042 m 439 160 l 278 319 l 664 319 q 795 344 740 319 q 879 413 850 368 q 908 521 908 458 q 879 629 908 585 q 795 698 850 674 q 664 722 740 722 l 278 722 l 439 882 l 439 160 m 622 1100 q 479 1143 533 1100 q 425 1261 425 1186 q 479 1379 425 1336 q 622 1422 533 1422 q 766 1379 713 1422 q 819 1261 819 1336 q 766 1143 819 1186 q 622 1100 713 1100 z "},"Ḍ":{"ha":1314,"x_min":83,"x_max":1269,"o":"m 636 1042 q 969 977 826 1042 q 1190 796 1111 913 q 1269 521 1269 679 q 1190 247 1269 364 q 969 65 1111 129 q 636 0 826 0 l 83 0 l 83 1042 l 636 1042 m 439 160 l 278 319 l 664 319 q 795 344 740 319 q 879 413 850 368 q 908 521 908 458 q 879 629 908 585 q 795 698 850 674 q 664 722 740 722 l 278 722 l 439 882 l 439 160 m 629 -381 q 486 -337 540 -381 q 432 -219 432 -294 q 486 -101 432 -144 q 629 -58 540 -58 q 773 -101 719 -58 q 826 -219 826 -144 q 773 -337 826 -294 q 629 -381 719 -381 z "},"Ɗ":{"ha":1675,"x_min":21,"x_max":1631,"o":"m 344 1042 l 997 1042 q 1330 977 1188 1042 q 1551 796 1472 913 q 1631 521 1631 679 q 1551 247 1631 364 q 1330 65 1472 129 q 997 0 1188 0 l 444 0 l 444 883 l 543 743 l 410 743 q 343 724 365 743 q 321 656 321 704 q 326 594 321 625 q 338 547 332 564 l 81 547 q 40 646 58 592 q 21 771 21 700 q 97 968 21 894 q 344 1042 172 1042 m 800 160 l 639 319 l 1025 319 q 1156 344 1101 319 q 1240 413 1211 368 q 1269 521 1269 458 q 1240 629 1269 585 q 1156 698 1211 674 q 1025 722 1101 722 l 639 722 l 800 882 l 800 160 z "},"Ḏ":{"ha":1314,"x_min":83,"x_max":1269,"o":"m 636 1042 q 969 977 826 1042 q 1190 796 1111 913 q 1269 521 1269 679 q 1190 247 1269 364 q 969 65 1111 129 q 636 0 826 0 l 83 0 l 83 1042 l 636 1042 m 439 160 l 278 319 l 664 319 q 795 344 740 319 q 879 413 850 368 q 908 521 908 458 q 879 629 908 585 q 795 698 850 674 q 664 722 740 722 l 278 722 l 439 882 l 439 160 m 292 -292 l 292 -87 l 1019 -87 l 1019 -292 l 292 -292 z "},"ǲ":{"ha":2308,"x_min":85,"x_max":2254,"o":"m 638 1042 q 970 977 828 1042 q 1192 796 1113 913 q 1271 521 1271 679 q 1192 247 1271 364 q 970 65 1113 129 q 638 0 828 0 l 85 0 l 85 1042 l 638 1042 m 440 160 l 279 319 l 665 319 q 797 344 742 319 q 881 413 851 368 q 910 521 910 458 q 881 629 910 585 q 797 698 851 674 q 665 722 742 722 l 279 722 l 440 882 l 440 160 m 1358 0 l 1358 242 l 1861 585 l 2118 551 l 1361 551 l 1361 799 l 2251 799 l 2251 557 l 1749 214 l 1532 247 l 2254 247 l 2254 0 l 1358 0 z "},"ǅ":{"ha":2308,"x_min":85,"x_max":2254,"o":"m 638 1042 q 970 977 828 1042 q 1192 796 1113 913 q 1271 521 1271 679 q 1192 247 1271 364 q 970 65 1113 129 q 638 0 828 0 l 85 0 l 85 1042 l 638 1042 m 440 160 l 279 319 l 665 319 q 797 344 742 319 q 881 413 851 368 q 910 521 910 458 q 881 629 910 585 q 797 698 851 674 q 665 722 742 722 l 279 722 l 440 882 l 440 160 m 1358 0 l 1358 242 l 1861 585 l 2118 551 l 1361 551 l 1361 799 l 2251 799 l 2251 557 l 1749 214 l 1532 247 l 2254 247 l 2254 0 l 1358 0 m 1985 871 l 1629 871 l 1431 1149 l 1701 1149 l 1890 949 l 1724 949 l 1913 1149 l 2183 1149 l 1985 871 z "},"E":{"ha":1128,"x_min":56,"x_max":1064,"o":"m 1013 644 l 1013 397 l 228 397 l 228 644 l 1013 644 m 474 521 l 410 133 l 274 283 l 1064 283 l 1064 0 l 56 0 l 132 521 l 56 1042 l 1057 1042 l 1057 758 l 274 758 l 410 908 l 474 521 z "},"É":{"ha":1128,"x_min":56,"x_max":1064,"o":"m 1013 644 l 1013 397 l 228 397 l 228 644 l 1013 644 m 474 521 l 410 133 l 274 283 l 1064 283 l 1064 0 l 56 0 l 132 521 l 56 1042 l 1057 1042 l 1057 758 l 274 758 l 410 908 l 474 521 m 571 1364 l 965 1364 l 715 1114 l 365 1114 l 571 1364 z "},"Ĕ":{"ha":1128,"x_min":56,"x_max":1064,"o":"m 1013 644 l 1013 397 l 228 397 l 228 644 l 1013 644 m 474 521 l 410 133 l 274 283 l 1064 283 l 1064 0 l 56 0 l 132 521 l 56 1042 l 1057 1042 l 1057 758 l 274 758 l 410 908 l 474 521 m 179 1371 l 443 1371 q 496 1325 465 1340 q 568 1310 526 1310 q 640 1325 610 1310 q 693 1371 671 1340 l 957 1371 q 815 1166 918 1232 q 568 1100 713 1100 q 322 1166 425 1100 q 179 1371 219 1232 z "},"Ě":{"ha":1128,"x_min":56,"x_max":1064,"o":"m 1013 644 l 1013 397 l 228 397 l 228 644 l 1013 644 m 474 521 l 410 133 l 274 283 l 1064 283 l 1064 0 l 56 0 l 132 521 l 56 1042 l 1057 1042 l 1057 758 l 274 758 l 410 908 l 474 521 m 750 1113 l 386 1113 l 171 1363 l 449 1363 l 651 1218 l 485 1218 l 688 1363 l 965 1363 l 750 1113 z "},"Ȩ":{"ha":1128,"x_min":56,"x_max":1064,"o":"m 1013 644 l 1013 397 l 228 397 l 228 644 l 1013 644 m 474 521 l 410 133 l 274 283 l 1064 283 l 1064 0 l 56 0 l 132 521 l 56 1042 l 1057 1042 l 1057 758 l 274 758 l 410 908 l 474 521 m 517 35 l 676 35 l 606 -94 l 518 -89 q 599 -62 557 -72 q 688 -51 642 -51 q 850 -90 794 -51 q 906 -197 906 -128 q 832 -317 906 -269 q 613 -365 758 -365 q 404 -322 486 -365 q 300 -199 322 -278 l 518 -199 q 547 -221 525 -211 q 613 -231 569 -231 q 677 -219 656 -231 q 699 -189 699 -207 q 681 -160 699 -172 q 626 -149 664 -149 q 588 -151 608 -149 q 551 -160 568 -153 l 389 -160 l 517 35 z "},"Ḝ":{"ha":1128,"x_min":56,"x_max":1064,"o":"m 1013 644 l 1013 397 l 228 397 l 228 644 l 1013 644 m 474 521 l 410 133 l 274 283 l 1064 283 l 1064 0 l 56 0 l 132 521 l 56 1042 l 1057 1042 l 1057 758 l 274 758 l 410 908 l 474 521 m 517 35 l 676 35 l 606 -94 l 518 -89 q 599 -62 557 -72 q 688 -51 642 -51 q 850 -90 794 -51 q 906 -197 906 -128 q 832 -317 906 -269 q 613 -365 758 -365 q 404 -322 486 -365 q 300 -199 322 -278 l 518 -199 q 547 -221 525 -211 q 613 -231 569 -231 q 677 -219 656 -231 q 699 -189 699 -207 q 681 -160 699 -172 q 626 -149 664 -149 q 588 -151 608 -149 q 551 -160 568 -153 l 389 -160 l 517 35 m 179 1371 l 443 1371 q 496 1325 465 1340 q 568 1310 526 1310 q 640 1325 610 1310 q 693 1371 671 1340 l 957 1371 q 815 1166 918 1232 q 568 1100 713 1100 q 322 1166 425 1100 q 179 1371 219 1232 z "},"Ê":{"ha":1128,"x_min":56,"x_max":1064,"o":"m 1013 644 l 1013 397 l 228 397 l 228 644 l 1013 644 m 474 521 l 410 133 l 274 283 l 1064 283 l 1064 0 l 56 0 l 132 521 l 56 1042 l 1057 1042 l 1057 758 l 274 758 l 410 908 l 474 521 m 386 1364 l 750 1364 l 965 1114 l 688 1114 l 485 1258 l 651 1258 l 449 1114 l 171 1114 l 386 1364 z "},"Ế":{"ha":1128,"x_min":56,"x_max":1282,"o":"m 1013 644 l 1013 397 l 228 397 l 228 644 l 1013 644 m 474 521 l 410 133 l 274 283 l 1064 283 l 1064 0 l 56 0 l 132 521 l 56 1042 l 1057 1042 l 1057 758 l 274 758 l 410 908 l 474 521 m 971 1547 l 1282 1547 l 1099 1307 l 832 1307 l 971 1547 m 386 1364 l 750 1364 l 965 1114 l 688 1114 l 485 1258 l 651 1258 l 449 1114 l 171 1114 l 386 1364 z "},"Ḙ":{"ha":1128,"x_min":56,"x_max":1064,"o":"m 1013 644 l 1013 397 l 228 397 l 228 644 l 1013 644 m 474 521 l 410 133 l 274 283 l 1064 283 l 1064 0 l 56 0 l 132 521 l 56 1042 l 1057 1042 l 1057 758 l 274 758 l 410 908 l 474 521 m 406 -58 l 761 -58 l 960 -336 l 689 -336 l 500 -136 l 667 -136 l 478 -336 l 207 -336 l 406 -58 z "},"Ệ":{"ha":1128,"x_min":56,"x_max":1064,"o":"m 1013 644 l 1013 397 l 228 397 l 228 644 l 1013 644 m 474 521 l 410 133 l 274 283 l 1064 283 l 1064 0 l 56 0 l 132 521 l 56 1042 l 1057 1042 l 1057 758 l 274 758 l 410 908 l 474 521 m 583 -381 q 440 -337 494 -381 q 386 -219 386 -294 q 440 -101 386 -144 q 583 -58 494 -58 q 727 -101 674 -58 q 781 -219 781 -144 q 727 -337 781 -294 q 583 -381 674 -381 m 386 1364 l 750 1364 l 965 1114 l 688 1114 l 485 1258 l 651 1258 l 449 1114 l 171 1114 l 386 1364 z "},"Ề":{"ha":1128,"x_min":56,"x_max":1133,"o":"m 1013 644 l 1013 397 l 228 397 l 228 644 l 1013 644 m 474 521 l 410 133 l 274 283 l 1064 283 l 1064 0 l 56 0 l 132 521 l 56 1042 l 1057 1042 l 1057 758 l 274 758 l 410 908 l 474 521 m 994 1547 l 1133 1307 l 867 1307 l 683 1547 l 994 1547 m 386 1364 l 750 1364 l 965 1114 l 688 1114 l 485 1258 l 651 1258 l 449 1114 l 171 1114 l 386 1364 z "},"Ể":{"ha":1128,"x_min":56,"x_max":1189,"o":"m 1013 644 l 1013 397 l 228 397 l 228 644 l 1013 644 m 474 521 l 410 133 l 274 283 l 1064 283 l 1064 0 l 56 0 l 132 521 l 56 1042 l 1057 1042 l 1057 758 l 274 758 l 410 908 l 474 521 m 897 1276 l 839 1354 q 892 1383 875 1368 q 910 1413 910 1397 q 838 1449 910 1449 q 797 1447 819 1449 q 751 1439 775 1444 l 751 1611 q 829 1626 781 1619 q 933 1633 878 1633 q 1122 1594 1054 1633 q 1189 1486 1189 1556 q 1115 1360 1189 1414 q 897 1276 1042 1307 m 386 1364 l 750 1364 l 965 1114 l 688 1114 l 485 1258 l 651 1258 l 449 1114 l 171 1114 l 386 1364 z "},"Ễ":{"ha":1128,"x_min":56,"x_max":1064,"o":"m 1013 644 l 1013 397 l 228 397 l 228 644 l 1013 644 m 474 521 l 410 133 l 274 283 l 1064 283 l 1064 0 l 56 0 l 132 521 l 56 1042 l 1057 1042 l 1057 758 l 274 758 l 410 908 l 474 521 m 211 1419 q 272 1606 218 1535 q 426 1676 325 1676 q 505 1667 471 1676 q 565 1644 539 1657 q 612 1620 590 1631 q 653 1610 633 1610 q 695 1626 681 1610 q 715 1674 710 1643 l 924 1674 q 864 1485 918 1554 q 708 1417 810 1417 q 630 1427 664 1417 q 570 1451 596 1438 q 523 1474 544 1464 q 482 1483 501 1483 q 440 1467 454 1483 q 419 1419 425 1450 l 211 1419 m 386 1364 l 750 1364 l 965 1114 l 688 1114 l 485 1258 l 651 1258 l 449 1114 l 171 1114 l 386 1364 z "},"Ȅ":{"ha":1128,"x_min":10,"x_max":1064,"o":"m 1013 644 l 1013 397 l 228 397 l 228 644 l 1013 644 m 474 521 l 410 133 l 274 283 l 1064 283 l 1064 0 l 56 0 l 132 521 l 56 1042 l 1057 1042 l 1057 758 l 274 758 l 410 908 l 474 521 m 747 1364 l 921 1114 l 619 1114 l 415 1364 l 747 1364 m 342 1364 l 515 1114 l 214 1114 l 10 1364 l 342 1364 z "},"Ë":{"ha":1128,"x_min":56,"x_max":1064,"o":"m 1013 644 l 1013 397 l 228 397 l 228 644 l 1013 644 m 474 521 l 410 133 l 274 283 l 1064 283 l 1064 0 l 56 0 l 132 521 l 56 1042 l 1057 1042 l 1057 758 l 274 758 l 410 908 l 474 521 m 346 1100 q 213 1140 263 1100 q 164 1254 164 1181 q 213 1363 164 1324 q 346 1403 263 1403 q 478 1363 429 1403 q 528 1254 528 1324 q 478 1140 528 1181 q 346 1100 429 1100 m 790 1100 q 658 1140 707 1100 q 608 1254 608 1181 q 658 1363 608 1324 q 790 1403 707 1403 q 923 1363 874 1403 q 972 1254 972 1324 q 923 1140 972 1181 q 790 1100 874 1100 z "},"Ė":{"ha":1128,"x_min":56,"x_max":1064,"o":"m 1013 644 l 1013 397 l 228 397 l 228 644 l 1013 644 m 474 521 l 410 133 l 274 283 l 1064 283 l 1064 0 l 56 0 l 132 521 l 56 1042 l 1057 1042 l 1057 758 l 274 758 l 410 908 l 474 521 m 568 1100 q 425 1143 479 1100 q 371 1261 371 1186 q 425 1379 371 1336 q 568 1422 479 1422 q 712 1379 658 1422 q 765 1261 765 1336 q 712 1143 765 1186 q 568 1100 658 1100 z "},"Ẹ":{"ha":1128,"x_min":56,"x_max":1064,"o":"m 1013 644 l 1013 397 l 228 397 l 228 644 l 1013 644 m 474 521 l 410 133 l 274 283 l 1064 283 l 1064 0 l 56 0 l 132 521 l 56 1042 l 1057 1042 l 1057 758 l 274 758 l 410 908 l 474 521 m 583 -381 q 440 -337 494 -381 q 386 -219 386 -294 q 440 -101 386 -144 q 583 -58 494 -58 q 727 -101 674 -58 q 781 -219 781 -144 q 727 -337 781 -294 q 583 -381 674 -381 z "},"È":{"ha":1128,"x_min":56,"x_max":1064,"o":"m 1013 644 l 1013 397 l 228 397 l 228 644 l 1013 644 m 474 521 l 410 133 l 274 283 l 1064 283 l 1064 0 l 56 0 l 132 521 l 56 1042 l 1057 1042 l 1057 758 l 274 758 l 410 908 l 474 521 m 553 1364 l 758 1114 l 408 1114 l 158 1364 l 553 1364 z "},"Ẻ":{"ha":1128,"x_min":56,"x_max":1064,"o":"m 1013 644 l 1013 397 l 228 397 l 228 644 l 1013 644 m 474 521 l 410 133 l 274 283 l 1064 283 l 1064 0 l 56 0 l 132 521 l 56 1042 l 1057 1042 l 1057 758 l 274 758 l 410 908 l 474 521 m 496 1094 l 436 1193 q 527 1219 501 1204 q 553 1247 553 1233 q 534 1268 553 1261 q 476 1275 515 1275 q 419 1272 446 1275 q 363 1264 393 1269 l 363 1429 q 450 1448 393 1439 q 565 1457 507 1457 q 773 1420 701 1457 q 844 1300 844 1383 q 765 1174 844 1224 q 496 1094 686 1124 z "},"Ȇ":{"ha":1128,"x_min":56,"x_max":1064,"o":"m 1013 644 l 1013 397 l 228 397 l 228 644 l 1013 644 m 474 521 l 410 133 l 274 283 l 1064 283 l 1064 0 l 56 0 l 132 521 l 56 1042 l 1057 1042 l 1057 758 l 274 758 l 410 908 l 474 521 m 957 1106 l 693 1106 q 640 1151 671 1136 q 568 1167 610 1167 q 496 1151 526 1167 q 443 1106 465 1136 l 179 1106 q 322 1310 219 1244 q 568 1376 425 1376 q 815 1310 713 1376 q 957 1106 918 1244 z "},"Ē":{"ha":1128,"x_min":56,"x_max":1064,"o":"m 1013 644 l 1013 397 l 228 397 l 228 644 l 1013 644 m 474 521 l 410 133 l 274 283 l 1064 283 l 1064 0 l 56 0 l 132 521 l 56 1042 l 1057 1042 l 1057 758 l 274 758 l 410 908 l 474 521 m 204 1135 l 204 1339 l 932 1339 l 932 1135 l 204 1135 z "},"Ḗ":{"ha":1128,"x_min":56,"x_max":1064,"o":"m 1013 644 l 1013 397 l 228 397 l 228 644 l 1013 644 m 474 521 l 410 133 l 274 283 l 1064 283 l 1064 0 l 56 0 l 132 521 l 56 1042 l 1057 1042 l 1057 758 l 274 758 l 410 908 l 474 521 m 204 1135 l 204 1339 l 932 1339 l 932 1135 l 204 1135 m 571 1672 l 965 1672 l 715 1422 l 365 1422 l 571 1672 z "},"Ḕ":{"ha":1128,"x_min":56,"x_max":1064,"o":"m 1013 644 l 1013 397 l 228 397 l 228 644 l 1013 644 m 474 521 l 410 133 l 274 283 l 1064 283 l 1064 0 l 56 0 l 132 521 l 56 1042 l 1057 1042 l 1057 758 l 274 758 l 410 908 l 474 521 m 204 1135 l 204 1339 l 932 1339 l 932 1135 l 204 1135 m 553 1672 l 758 1422 l 408 1422 l 158 1672 l 553 1672 z "},"Ę":{"ha":1128,"x_min":56,"x_max":1064,"o":"m 1013 644 l 1013 397 l 228 397 l 228 644 l 1013 644 m 474 521 l 410 133 l 274 283 l 1064 283 l 1064 0 l 56 0 l 132 521 l 56 1042 l 1057 1042 l 1057 758 l 274 758 l 410 908 l 474 521 m 928 31 l 1032 17 l 1032 0 l 1064 0 q 974 -28 1011 -12 q 917 -58 936 -43 q 899 -87 899 -72 q 985 -124 899 -124 q 1027 -121 1008 -124 q 1064 -114 1046 -118 l 1064 -286 q 997 -301 1046 -293 q 896 -308 949 -308 q 723 -271 789 -308 q 657 -172 657 -233 q 726 -50 657 -100 q 928 31 794 0 z "},"Ɛ":{"ha":1183,"x_min":47,"x_max":1161,"o":"m 1135 694 l 779 694 q 726 770 771 743 q 590 797 681 797 q 470 777 513 797 q 428 717 428 757 q 462 660 428 681 q 593 639 496 639 l 765 639 l 765 407 l 593 407 q 480 399 519 407 q 426 375 440 392 q 411 333 411 358 q 460 267 411 290 q 594 244 508 244 q 748 272 699 244 q 806 351 797 300 l 1161 351 q 1088 151 1158 236 q 891 21 1017 67 q 594 -25 765 -25 q 298 18 421 -25 q 111 135 175 61 q 47 306 47 210 q 101 451 47 396 q 257 531 156 507 q 499 547 358 554 l 499 517 q 249 549 343 515 q 112 642 154 583 q 69 769 69 700 q 132 925 69 858 q 308 1029 194 992 q 571 1067 421 1067 q 876 1015 753 1067 q 1065 880 1000 964 q 1135 694 1131 796 z "},"Ǝ":{"ha":1128,"x_min":64,"x_max":1072,"o":"m 115 644 l 900 644 l 900 397 l 115 397 l 115 644 m 654 521 l 718 908 l 854 758 l 71 758 l 71 1042 l 1072 1042 l 996 521 l 1072 0 l 64 0 l 64 283 l 854 283 l 718 133 l 654 521 z "},"Ʃ":{"ha":1147,"x_min":61,"x_max":1099,"o":"m 61 0 l 61 254 l 529 578 l 529 465 l 75 788 l 75 1042 l 1076 1042 l 1076 767 l 211 767 l 332 943 l 768 632 l 768 413 l 400 160 l 238 275 l 1099 275 l 1099 0 l 61 0 z "},"Ɇ":{"ha":1128,"x_min":56,"x_max":1064,"o":"m 742 1211 l 1019 1211 l 654 -169 l 376 -169 l 742 1211 m 1013 644 l 1013 397 l 228 397 l 228 644 l 1013 644 m 474 521 l 410 133 l 274 283 l 1064 283 l 1064 0 l 56 0 l 132 521 l 56 1042 l 1057 1042 l 1057 758 l 274 758 l 410 908 l 474 521 z "},"Ẽ":{"ha":1128,"x_min":56,"x_max":1064,"o":"m 1013 644 l 1013 397 l 228 397 l 228 644 l 1013 644 m 474 521 l 410 133 l 274 283 l 1064 283 l 1064 0 l 56 0 l 132 521 l 56 1042 l 1057 1042 l 1057 758 l 274 758 l 410 908 l 474 521 m 157 1119 q 240 1313 175 1243 q 433 1383 304 1383 q 508 1374 472 1383 q 574 1353 543 1365 q 633 1333 606 1342 q 685 1324 661 1324 q 731 1336 713 1324 q 756 1374 750 1349 l 978 1374 q 895 1181 960 1251 q 701 1110 831 1110 q 627 1119 663 1110 q 560 1140 592 1128 q 501 1160 529 1151 q 450 1169 474 1169 q 403 1157 422 1169 q 379 1119 385 1144 l 157 1119 z "},"Ḛ":{"ha":1128,"x_min":56,"x_max":1064,"o":"m 1013 644 l 1013 397 l 228 397 l 228 644 l 1013 644 m 474 521 l 410 133 l 274 283 l 1064 283 l 1064 0 l 56 0 l 132 521 l 56 1042 l 1057 1042 l 1057 758 l 274 758 l 410 908 l 474 521 m 214 -336 q 274 -128 221 -204 q 435 -51 326 -51 q 510 -61 474 -51 q 577 -84 546 -71 q 636 -108 608 -97 q 686 -118 664 -118 q 733 -101 714 -118 q 757 -54 751 -85 l 951 -54 q 892 -262 946 -186 q 731 -339 839 -339 q 656 -328 692 -339 q 588 -305 619 -318 q 529 -282 557 -292 q 479 -272 501 -272 q 433 -289 451 -272 q 408 -336 414 -306 l 214 -336 z "},"Ə":{"ha":1318,"x_min":40,"x_max":1272,"o":"m 658 1068 q 906 1029 794 1068 q 1101 919 1018 990 q 1228 747 1183 847 q 1272 521 1272 646 q 1194 233 1272 356 q 977 44 1115 111 q 658 -24 839 -24 q 388 24 504 -24 q 195 155 272 71 q 79 351 118 239 q 40 593 40 463 l 939 593 l 939 374 l 279 374 l 418 447 q 457 336 425 381 q 540 269 489 292 q 656 247 592 247 q 790 276 732 247 q 879 365 847 306 q 911 515 911 424 q 879 665 911 606 q 790 756 847 725 q 656 786 732 786 q 541 768 589 786 q 462 722 493 750 q 414 663 431 694 l 54 663 q 162 878 82 788 q 367 1019 242 969 q 658 1068 493 1068 z "},"Ʒ":{"ha":1171,"x_min":14,"x_max":1128,"o":"m 89 1042 l 1067 1042 l 1067 788 l 599 514 l 567 606 l 672 606 q 942 570 842 606 q 1085 472 1042 535 q 1128 324 1128 408 q 1067 144 1128 224 q 885 20 1007 65 q 581 -25 764 -25 q 285 21 411 -25 q 88 151 158 67 q 14 351 18 236 l 369 351 q 427 272 378 300 q 581 244 476 244 q 720 272 676 244 q 764 343 764 299 q 749 393 764 372 q 697 425 733 414 q 597 436 661 436 l 410 436 l 410 656 l 904 939 l 931 775 l 89 775 l 89 1042 z "},"Ǯ":{"ha":1171,"x_min":14,"x_max":1128,"o":"m 89 1042 l 1067 1042 l 1067 788 l 599 514 l 567 606 l 672 606 q 942 570 842 606 q 1085 472 1042 535 q 1128 324 1128 408 q 1067 144 1128 224 q 885 20 1007 65 q 581 -25 764 -25 q 285 21 411 -25 q 88 151 158 67 q 14 351 18 236 l 369 351 q 427 272 378 300 q 581 244 476 244 q 720 272 676 244 q 764 343 764 299 q 749 393 764 372 q 697 425 733 414 q 597 436 661 436 l 410 436 l 410 656 l 904 939 l 931 775 l 89 775 l 89 1042 m 760 1113 l 396 1113 l 181 1363 l 458 1363 l 661 1218 l 494 1218 l 697 1363 l 975 1363 l 760 1113 z "},"Ƹ":{"ha":1171,"x_min":43,"x_max":1157,"o":"m 1082 1042 l 1082 775 l 240 775 l 267 939 l 761 656 l 761 436 l 574 436 q 474 425 511 436 q 422 393 438 414 q 407 343 407 372 q 451 272 407 299 q 590 244 494 244 q 744 272 694 244 q 801 351 793 300 l 1157 351 q 1083 151 1154 236 q 887 21 1013 67 q 590 -25 761 -25 q 285 20 407 -25 q 103 144 164 65 q 43 324 43 224 q 86 472 43 408 q 229 570 129 535 q 499 606 329 606 l 604 606 l 572 514 l 104 788 l 104 1042 l 1082 1042 z "},"F":{"ha":1099,"x_min":83,"x_max":1047,"o":"m 258 635 l 1019 635 l 1019 336 l 258 336 l 258 635 m 1047 1042 l 1047 743 l 278 743 l 442 903 l 442 0 l 83 0 l 83 1042 l 1047 1042 z "},"Ḟ":{"ha":1099,"x_min":83,"x_max":1047,"o":"m 258 635 l 1019 635 l 1019 336 l 258 336 l 258 635 m 1047 1042 l 1047 743 l 278 743 l 442 903 l 442 0 l 83 0 l 83 1042 l 1047 1042 m 547 1100 q 404 1143 458 1100 q 350 1261 350 1186 q 404 1379 350 1336 q 547 1422 458 1422 q 691 1379 638 1422 q 744 1261 744 1336 q 691 1143 744 1186 q 547 1100 638 1100 z "},"Ƒ":{"ha":1099,"x_min":-153,"x_max":1047,"o":"m 258 635 l 1019 635 l 1019 336 l 258 336 l 258 635 m 442 125 q 345 -158 442 -61 q 54 -254 249 -254 q -52 -248 4 -254 q -153 -228 -108 -242 l -153 32 q -99 19 -129 25 q -36 14 -69 14 q 56 49 29 14 q 83 146 83 83 l 83 1042 l 1047 1042 l 1047 743 l 278 743 l 442 903 l 442 125 z "},"G":{"ha":1356,"x_min":46,"x_max":1289,"o":"m 1167 450 q 1128 273 1161 358 q 1033 120 1096 188 q 872 14 969 53 q 642 -25 775 -25 q 413 10 521 -25 q 223 113 306 44 q 93 284 140 182 q 46 521 46 386 q 93 758 46 656 q 225 928 140 860 q 421 1032 310 997 q 661 1067 532 1067 q 970 1013 842 1067 q 1177 867 1099 960 q 1281 651 1256 774 l 921 651 q 872 717 908 690 q 782 759 835 744 q 664 774 729 774 q 525 747 583 774 q 435 664 467 719 q 404 521 404 608 q 440 374 404 432 q 541 288 475 315 q 697 260 607 260 q 853 280 785 260 q 963 342 921 300 q 1015 450 1006 385 l 1167 450 m 719 311 l 719 557 l 1289 557 l 1289 0 l 1040 0 l 988 399 l 1050 311 l 719 311 z "},"Ǵ":{"ha":1356,"x_min":46,"x_max":1289,"o":"m 1167 450 q 1128 273 1161 358 q 1033 120 1096 188 q 872 14 969 53 q 642 -25 775 -25 q 413 10 521 -25 q 223 113 306 44 q 93 284 140 182 q 46 521 46 386 q 93 758 46 656 q 225 928 140 860 q 421 1032 310 997 q 661 1067 532 1067 q 970 1013 842 1067 q 1177 867 1099 960 q 1281 651 1256 774 l 921 651 q 872 717 908 690 q 782 759 835 744 q 664 774 729 774 q 525 747 583 774 q 435 664 467 719 q 404 521 404 608 q 440 374 404 432 q 541 288 475 315 q 697 260 607 260 q 853 280 785 260 q 963 342 921 300 q 1015 450 1006 385 l 1167 450 m 719 311 l 719 557 l 1289 557 l 1289 0 l 1040 0 l 988 399 l 1050 311 l 719 311 m 665 1364 l 1060 1364 l 810 1114 l 460 1114 l 665 1364 z "},"Ğ":{"ha":1356,"x_min":46,"x_max":1289,"o":"m 1167 450 q 1128 273 1161 358 q 1033 120 1096 188 q 872 14 969 53 q 642 -25 775 -25 q 413 10 521 -25 q 223 113 306 44 q 93 284 140 182 q 46 521 46 386 q 93 758 46 656 q 225 928 140 860 q 421 1032 310 997 q 661 1067 532 1067 q 970 1013 842 1067 q 1177 867 1099 960 q 1281 651 1256 774 l 921 651 q 872 717 908 690 q 782 759 835 744 q 664 774 729 774 q 525 747 583 774 q 435 664 467 719 q 404 521 404 608 q 440 374 404 432 q 541 288 475 315 q 697 260 607 260 q 853 280 785 260 q 963 342 921 300 q 1015 450 1006 385 l 1167 450 m 719 311 l 719 557 l 1289 557 l 1289 0 l 1040 0 l 988 399 l 1050 311 l 719 311 m 274 1371 l 538 1371 q 590 1325 560 1340 q 663 1310 621 1310 q 735 1325 704 1310 q 788 1371 765 1340 l 1051 1371 q 910 1166 1013 1232 q 663 1100 807 1100 q 417 1166 519 1100 q 274 1371 314 1232 z "},"Ǧ":{"ha":1356,"x_min":46,"x_max":1289,"o":"m 1167 450 q 1128 273 1161 358 q 1033 120 1096 188 q 872 14 969 53 q 642 -25 775 -25 q 413 10 521 -25 q 223 113 306 44 q 93 284 140 182 q 46 521 46 386 q 93 758 46 656 q 225 928 140 860 q 421 1032 310 997 q 661 1067 532 1067 q 970 1013 842 1067 q 1177 867 1099 960 q 1281 651 1256 774 l 921 651 q 872 717 908 690 q 782 759 835 744 q 664 774 729 774 q 525 747 583 774 q 435 664 467 719 q 404 521 404 608 q 440 374 404 432 q 541 288 475 315 q 697 260 607 260 q 853 280 785 260 q 963 342 921 300 q 1015 450 1006 385 l 1167 450 m 719 311 l 719 557 l 1289 557 l 1289 0 l 1040 0 l 988 399 l 1050 311 l 719 311 m 844 1113 l 481 1113 l 265 1363 l 543 1363 l 746 1218 l 579 1218 l 782 1363 l 1060 1363 l 844 1113 z "},"Ĝ":{"ha":1356,"x_min":46,"x_max":1289,"o":"m 1167 450 q 1128 273 1161 358 q 1033 120 1096 188 q 872 14 969 53 q 642 -25 775 -25 q 413 10 521 -25 q 223 113 306 44 q 93 284 140 182 q 46 521 46 386 q 93 758 46 656 q 225 928 140 860 q 421 1032 310 997 q 661 1067 532 1067 q 970 1013 842 1067 q 1177 867 1099 960 q 1281 651 1256 774 l 921 651 q 872 717 908 690 q 782 759 835 744 q 664 774 729 774 q 525 747 583 774 q 435 664 467 719 q 404 521 404 608 q 440 374 404 432 q 541 288 475 315 q 697 260 607 260 q 853 280 785 260 q 963 342 921 300 q 1015 450 1006 385 l 1167 450 m 719 311 l 719 557 l 1289 557 l 1289 0 l 1040 0 l 988 399 l 1050 311 l 719 311 m 481 1364 l 844 1364 l 1060 1114 l 782 1114 l 579 1258 l 746 1258 l 543 1114 l 265 1114 l 481 1364 z "},"Ģ":{"ha":1356,"x_min":46,"x_max":1289,"o":"m 1167 450 q 1128 273 1161 358 q 1033 120 1096 188 q 872 14 969 53 q 642 -25 775 -25 q 413 10 521 -25 q 223 113 306 44 q 93 284 140 182 q 46 521 46 386 q 93 758 46 656 q 225 928 140 860 q 421 1032 310 997 q 661 1067 532 1067 q 970 1013 842 1067 q 1177 867 1099 960 q 1281 651 1256 774 l 921 651 q 872 717 908 690 q 782 759 835 744 q 664 774 729 774 q 525 747 583 774 q 435 664 467 719 q 404 521 404 608 q 440 374 404 432 q 541 288 475 315 q 697 260 607 260 q 853 280 785 260 q 963 342 921 300 q 1015 450 1006 385 l 1167 450 m 719 311 l 719 557 l 1289 557 l 1289 0 l 1040 0 l 988 399 l 1050 311 l 719 311 m 514 -471 l 669 -233 l 683 -329 q 552 -293 601 -329 q 503 -193 503 -257 q 552 -94 503 -129 q 683 -58 601 -58 q 814 -94 765 -58 q 863 -194 863 -129 q 838 -275 863 -237 q 764 -369 814 -312 l 675 -471 l 514 -471 z "},"Ġ":{"ha":1356,"x_min":46,"x_max":1289,"o":"m 1167 450 q 1128 273 1161 358 q 1033 120 1096 188 q 872 14 969 53 q 642 -25 775 -25 q 413 10 521 -25 q 223 113 306 44 q 93 284 140 182 q 46 521 46 386 q 93 758 46 656 q 225 928 140 860 q 421 1032 310 997 q 661 1067 532 1067 q 970 1013 842 1067 q 1177 867 1099 960 q 1281 651 1256 774 l 921 651 q 872 717 908 690 q 782 759 835 744 q 664 774 729 774 q 525 747 583 774 q 435 664 467 719 q 404 521 404 608 q 440 374 404 432 q 541 288 475 315 q 697 260 607 260 q 853 280 785 260 q 963 342 921 300 q 1015 450 1006 385 l 1167 450 m 719 311 l 719 557 l 1289 557 l 1289 0 l 1040 0 l 988 399 l 1050 311 l 719 311 m 663 1100 q 519 1143 574 1100 q 465 1261 465 1186 q 519 1379 465 1336 q 663 1422 574 1422 q 806 1379 753 1422 q 860 1261 860 1336 q 806 1143 860 1186 q 663 1100 753 1100 z "},"Ɠ":{"ha":1442,"x_min":49,"x_max":1449,"o":"m 644 -25 q 416 10 524 -25 q 226 113 308 44 q 96 284 143 182 q 49 521 49 386 q 99 764 49 661 q 233 933 149 867 q 421 1033 317 1000 q 635 1067 525 1067 q 942 992 815 1067 q 1143 742 1068 918 l 1058 771 q 998 888 1028 824 q 968 1014 968 951 q 997 1136 968 1081 q 1090 1225 1026 1192 q 1254 1258 1153 1258 q 1354 1252 1304 1258 q 1449 1232 1404 1246 l 1449 972 q 1399 985 1425 979 q 1344 990 1374 990 q 1253 965 1282 990 q 1224 889 1224 939 q 1228 840 1224 865 q 1239 789 1233 815 q 1258 719 1247 754 q 1279 651 1269 683 l 924 651 q 874 717 911 690 q 785 759 838 744 q 667 774 732 774 q 528 747 586 774 q 438 664 469 719 q 407 521 407 608 q 442 374 407 432 q 544 288 478 315 q 700 260 610 260 q 856 280 788 260 q 966 342 924 300 q 1018 450 1008 385 l 1169 450 q 1131 273 1164 358 q 1035 120 1099 188 q 875 14 972 53 q 644 -25 778 -25 m 722 354 l 722 557 l 1292 557 l 1292 0 l 1043 0 l 990 399 l 1053 354 l 722 354 z "},"Ɂ":{"ha":1097,"x_min":6,"x_max":1074,"o":"m 569 1067 q 839 1023 726 1067 q 1013 901 951 979 q 1074 717 1074 822 q 1057 604 1074 654 q 1006 514 1040 554 q 921 436 972 474 l 833 374 q 757 303 782 336 q 725 232 732 271 q 718 135 718 193 l 718 0 l 360 0 l 360 203 q 377 343 360 285 q 431 447 394 401 q 525 535 467 493 l 621 604 q 677 647 657 631 q 705 677 697 663 q 713 711 713 692 q 676 772 713 746 q 553 797 639 797 q 416 767 463 797 q 361 681 369 736 l 6 681 q 76 873 11 785 q 265 1014 140 961 q 569 1067 389 1067 z "},"Ḡ":{"ha":1356,"x_min":46,"x_max":1289,"o":"m 1167 450 q 1128 273 1161 358 q 1033 120 1096 188 q 872 14 969 53 q 642 -25 775 -25 q 413 10 521 -25 q 223 113 306 44 q 93 284 140 182 q 46 521 46 386 q 93 758 46 656 q 225 928 140 860 q 421 1032 310 997 q 661 1067 532 1067 q 970 1013 842 1067 q 1177 867 1099 960 q 1281 651 1256 774 l 921 651 q 872 717 908 690 q 782 759 835 744 q 664 774 729 774 q 525 747 583 774 q 435 664 467 719 q 404 521 404 608 q 440 374 404 432 q 541 288 475 315 q 697 260 607 260 q 853 280 785 260 q 963 342 921 300 q 1015 450 1006 385 l 1167 450 m 719 311 l 719 557 l 1289 557 l 1289 0 l 1040 0 l 988 399 l 1050 311 l 719 311 m 299 1135 l 299 1339 l 1026 1339 l 1026 1135 l 299 1135 z "},"Ɡ":{"ha":1301,"x_min":46,"x_max":1222,"o":"m 867 303 l 867 469 l 881 517 l 881 790 l 867 826 l 867 1042 l 1222 1042 l 1222 318 q 1178 71 1222 178 q 1053 -108 1135 -36 q 858 -217 972 -181 q 601 -254 743 -254 q 352 -219 467 -254 q 139 -125 238 -185 l 139 185 q 369 74 254 103 q 575 44 483 44 q 728 69 663 44 q 831 151 794 94 q 867 303 867 208 m 493 167 q 313 199 394 167 q 171 290 231 231 q 78 432 111 349 q 46 617 46 515 q 78 802 46 719 q 171 944 111 885 q 313 1035 231 1003 q 493 1067 394 1067 q 680 1034 597 1067 q 824 949 763 1001 q 925 835 885 896 q 985 715 965 774 q 1006 611 1006 656 q 985 502 1006 561 q 925 384 965 443 q 824 276 885 325 q 680 197 763 226 q 493 167 597 167 m 607 449 q 772 492 701 449 q 882 617 843 536 q 771 742 843 699 q 607 785 699 785 q 504 765 550 785 q 431 708 458 746 q 404 617 404 671 q 431 525 404 563 q 504 468 458 488 q 607 449 550 449 z "},"Ǥ":{"ha":1414,"x_min":46,"x_max":1400,"o":"m 679 392 l 1400 392 l 1400 240 l 679 240 l 679 392 m 733 601 l 1289 601 l 1289 551 l 1167 551 q 1136 324 1167 429 q 1042 141 1106 219 q 879 19 979 63 q 642 -25 779 -25 q 330 43 464 -25 q 121 234 196 111 q 46 521 46 357 q 93 758 46 656 q 225 928 140 860 q 421 1032 310 997 q 661 1067 532 1067 q 958 1019 838 1067 q 1155 888 1079 971 q 1271 694 1231 804 l 894 694 q 852 731 883 713 q 775 761 821 749 q 674 774 729 774 q 530 747 590 774 q 437 664 469 719 q 404 521 404 608 q 433 385 404 444 q 522 293 461 326 q 681 260 583 260 q 864 286 792 260 q 972 358 936 313 q 1007 460 1007 403 l 1007 494 l 1050 414 l 733 414 l 733 601 m 1024 575 l 1289 575 l 1289 1 l 1069 1 l 1024 575 z "},"Ȝ":{"ha":1171,"x_min":14,"x_max":1128,"o":"m 89 1042 l 1067 1042 l 1067 788 l 599 514 l 567 606 l 672 606 q 942 570 842 606 q 1085 472 1042 535 q 1128 324 1128 408 q 1067 144 1128 224 q 885 20 1007 65 q 581 -25 764 -25 q 285 21 411 -25 q 88 151 158 67 q 14 351 18 236 l 369 351 q 427 272 378 300 q 581 244 476 244 q 720 272 676 244 q 764 343 764 299 q 749 393 764 372 q 697 425 733 414 q 597 436 661 436 l 410 436 l 410 656 l 904 939 l 931 775 l 89 775 l 89 1042 z "},"H":{"ha":1328,"x_min":83,"x_max":1244,"o":"m 83 1042 l 442 1042 l 442 0 l 83 0 l 83 1042 m 886 1042 l 1244 1042 l 1244 0 l 886 0 l 886 1042 m 286 690 l 1026 690 l 1026 374 l 286 374 l 286 690 z "},"Ħ":{"ha":1386,"x_min":26,"x_max":1360,"o":"m 113 1042 l 471 1042 l 471 0 l 113 0 l 113 1042 m 915 1042 l 1274 1042 l 1274 0 l 915 0 l 915 1042 m 288 635 l 1028 635 l 1028 346 l 288 346 l 288 635 m 26 957 l 1360 957 l 1360 726 l 26 726 l 26 957 z "},"Ḫ":{"ha":1328,"x_min":83,"x_max":1244,"o":"m 83 1042 l 442 1042 l 442 0 l 83 0 l 83 1042 m 886 1042 l 1244 1042 l 1244 0 l 886 0 l 886 1042 m 286 690 l 1026 690 l 1026 374 l 286 374 l 286 690 m 319 -58 l 574 -58 q 613 -119 583 -97 q 688 -142 643 -142 q 762 -119 732 -142 q 801 -58 792 -97 l 1056 -58 q 939 -272 1033 -193 q 688 -350 844 -350 q 437 -272 531 -350 q 319 -58 343 -193 z "},"Ȟ":{"ha":1328,"x_min":83,"x_max":1244,"o":"m 83 1042 l 442 1042 l 442 0 l 83 0 l 83 1042 m 886 1042 l 1244 1042 l 1244 0 l 886 0 l 886 1042 m 286 690 l 1026 690 l 1026 374 l 286 374 l 286 690 m 846 1113 l 482 1113 l 267 1363 l 544 1363 l 747 1218 l 581 1218 l 783 1363 l 1061 1363 l 846 1113 z "},"Ḩ":{"ha":1328,"x_min":-24,"x_max":1244,"o":"m 83 1042 l 442 1042 l 442 0 l 83 0 l 83 1042 m 886 1042 l 1244 1042 l 1244 0 l 886 0 l 886 1042 m 286 690 l 1026 690 l 1026 374 l 286 374 l 286 690 m 193 35 l 353 35 l 282 -94 l 194 -89 q 276 -62 233 -72 q 364 -51 318 -51 q 526 -90 471 -51 q 582 -197 582 -128 q 508 -317 582 -269 q 289 -365 435 -365 q 81 -322 163 -365 q -24 -199 -1 -278 l 194 -199 q 224 -221 201 -211 q 289 -231 246 -231 q 353 -219 332 -231 q 375 -189 375 -207 q 358 -160 375 -172 q 303 -149 340 -149 q 265 -151 285 -149 q 228 -160 244 -153 l 65 -160 l 193 35 z "},"Ĥ":{"ha":1328,"x_min":83,"x_max":1244,"o":"m 83 1042 l 442 1042 l 442 0 l 83 0 l 83 1042 m 886 1042 l 1244 1042 l 1244 0 l 886 0 l 886 1042 m 286 690 l 1026 690 l 1026 374 l 286 374 l 286 690 m 482 1364 l 846 1364 l 1061 1114 l 783 1114 l 581 1258 l 747 1258 l 544 1114 l 267 1114 l 482 1364 z "},"Ḧ":{"ha":1328,"x_min":83,"x_max":1244,"o":"m 83 1042 l 442 1042 l 442 0 l 83 0 l 83 1042 m 886 1042 l 1244 1042 l 1244 0 l 886 0 l 886 1042 m 286 690 l 1026 690 l 1026 374 l 286 374 l 286 690 m 442 1100 q 309 1140 358 1100 q 260 1254 260 1181 q 309 1363 260 1324 q 442 1403 358 1403 q 574 1363 525 1403 q 624 1254 624 1324 q 574 1140 624 1181 q 442 1100 525 1100 m 886 1100 q 753 1140 803 1100 q 704 1254 704 1181 q 753 1363 704 1324 q 886 1403 803 1403 q 1019 1363 969 1403 q 1068 1254 1068 1324 q 1019 1140 1068 1181 q 886 1100 969 1100 z "},"Ḣ":{"ha":1328,"x_min":83,"x_max":1244,"o":"m 83 1042 l 442 1042 l 442 0 l 83 0 l 83 1042 m 886 1042 l 1244 1042 l 1244 0 l 886 0 l 886 1042 m 286 690 l 1026 690 l 1026 374 l 286 374 l 286 690 m 664 1100 q 521 1143 575 1100 q 467 1261 467 1186 q 521 1379 467 1336 q 664 1422 575 1422 q 808 1379 754 1422 q 861 1261 861 1336 q 808 1143 861 1186 q 664 1100 754 1100 z "},"Ḥ":{"ha":1328,"x_min":83,"x_max":1244,"o":"m 83 1042 l 442 1042 l 442 0 l 83 0 l 83 1042 m 886 1042 l 1244 1042 l 1244 0 l 886 0 l 886 1042 m 286 690 l 1026 690 l 1026 374 l 286 374 l 286 690 m 664 -381 q 521 -337 575 -381 q 467 -219 467 -294 q 521 -101 467 -144 q 664 -58 575 -58 q 808 -101 754 -58 q 861 -219 861 -144 q 808 -337 861 -294 q 664 -381 754 -381 z "},"Ꜧ":{"ha":1328,"x_min":83,"x_max":1244,"o":"m 83 1042 l 442 1042 l 442 0 l 83 0 l 83 1042 m 286 690 l 1026 690 l 1026 374 l 286 374 l 286 690 m 886 1042 l 1244 1042 l 1244 103 q 1199 -89 1244 -8 q 1060 -212 1153 -169 q 825 -254 968 -254 q 690 -244 754 -254 q 579 -219 625 -233 l 579 44 q 659 24 615 31 q 750 17 703 17 q 851 47 815 17 q 886 146 886 78 l 886 1042 z "},"Ɦ":{"ha":1689,"x_min":21,"x_max":1606,"o":"m 803 1042 l 803 0 l 444 0 l 444 913 l 600 743 l 410 743 q 343 724 365 743 q 321 656 321 704 q 326 594 321 625 q 338 547 332 564 l 81 547 q 38 646 54 592 q 21 771 21 700 q 97 968 21 894 q 344 1042 172 1042 l 803 1042 m 1247 1042 l 1606 1042 l 1606 0 l 1247 0 l 1247 1042 m 647 690 l 1388 690 l 1388 374 l 647 374 l 647 690 z "},"Ɥ":{"ha":1235,"x_min":76,"x_max":1151,"o":"m 76 1042 l 435 1042 l 435 374 l 76 374 l 76 1042 m 793 1042 l 1151 1042 l 1151 0 l 793 0 l 793 1042 m 279 690 l 933 690 l 933 374 l 279 374 l 279 690 z "},"I":{"ha":525,"x_min":83,"x_max":442,"o":"m 83 1042 l 442 1042 l 442 0 l 83 0 l 83 1042 z "},"Ĳ":{"ha":1197,"x_min":67,"x_max":1126,"o":"m 67 1042 l 425 1042 l 425 582 l 67 582 l 67 1042 m 69 494 l 422 494 l 422 467 q 461 327 422 374 q 593 281 500 281 q 726 322 685 281 q 768 436 768 364 l 768 1042 l 1126 1042 l 1126 417 q 1060 185 1126 285 q 874 30 993 85 q 593 -25 754 -25 q 320 33 435 -25 q 142 194 206 90 q 72 436 79 299 l 69 494 z "},"Í":{"ha":525,"x_min":60,"x_max":660,"o":"m 83 1042 l 442 1042 l 442 0 l 83 0 l 83 1042 m 265 1364 l 660 1364 l 410 1114 l 60 1114 l 265 1364 z "},"Ĭ":{"ha":525,"x_min":-51,"x_max":576,"o":"m -51 1364 l 190 1364 q 212 1309 194 1329 q 263 1289 229 1289 q 313 1309 296 1289 q 335 1364 331 1329 l 576 1364 q 482 1173 565 1246 q 263 1100 399 1100 q 44 1173 128 1100 q -51 1364 -40 1246 m 83 1042 l 442 1042 l 442 0 l 83 0 l 83 1042 z "},"Ǐ":{"ha":525,"x_min":-135,"x_max":660,"o":"m 83 1042 l 442 1042 l 442 0 l 83 0 l 83 1042 m 444 1113 l 81 1113 l -135 1363 l 143 1363 l 346 1218 l 179 1218 l 382 1363 l 660 1363 l 444 1113 z "},"Î":{"ha":525,"x_min":-65,"x_max":590,"o":"m 85 1364 l 440 1364 l 590 1114 l 353 1114 l 219 1257 l 306 1257 l 172 1114 l -65 1114 l 85 1364 m 83 1042 l 442 1042 l 442 0 l 83 0 l 83 1042 z "},"Ȉ":{"ha":525,"x_min":-137,"x_max":610,"o":"m 475 1364 l 610 1114 l 351 1114 l 200 1364 l 475 1364 m 138 1364 l 272 1114 l 14 1114 l -137 1364 l 138 1364 m 83 1042 l 442 1042 l 442 0 l 83 0 l 83 1042 z "},"Ï":{"ha":525,"x_min":-50,"x_max":575,"o":"m 96 1100 q -12 1140 26 1100 q -50 1251 -50 1179 q -12 1364 -50 1325 q 96 1403 26 1403 q 203 1364 165 1403 q 242 1251 242 1325 q 203 1140 242 1179 q 96 1100 165 1100 m 429 1100 q 322 1140 360 1100 q 283 1251 283 1179 q 322 1364 283 1325 q 429 1403 360 1403 q 537 1364 499 1403 q 575 1251 575 1325 q 537 1140 575 1179 q 429 1100 499 1100 m 83 1042 l 442 1042 l 442 0 l 83 0 l 83 1042 z "},"Ḯ":{"ha":525,"x_min":-50,"x_max":661,"o":"m 96 1100 q -12 1140 26 1100 q -50 1251 -50 1179 q -12 1364 -50 1325 q 96 1403 26 1403 q 203 1364 165 1403 q 242 1251 242 1325 q 203 1140 242 1179 q 96 1100 165 1100 m 429 1100 q 322 1140 360 1100 q 283 1251 283 1179 q 322 1364 283 1325 q 429 1403 360 1403 q 537 1364 499 1403 q 575 1251 575 1325 q 537 1140 575 1179 q 429 1100 499 1100 m 83 1042 l 442 1042 l 442 0 l 83 0 l 83 1042 m 267 1714 l 661 1714 l 411 1464 l 61 1464 l 267 1714 z "},"İ":{"ha":525,"x_min":65,"x_max":460,"o":"m 83 1042 l 442 1042 l 442 0 l 83 0 l 83 1042 m 263 1100 q 119 1143 174 1100 q 65 1261 65 1186 q 119 1379 65 1336 q 263 1422 174 1422 q 406 1379 353 1422 q 460 1261 460 1336 q 406 1143 460 1186 q 263 1100 353 1100 z "},"Ị":{"ha":525,"x_min":65,"x_max":460,"o":"m 83 1042 l 442 1042 l 442 0 l 83 0 l 83 1042 m 263 -381 q 119 -337 174 -381 q 65 -219 65 -294 q 119 -101 65 -144 q 263 -58 174 -58 q 406 -101 353 -58 q 460 -219 460 -144 q 406 -337 460 -294 q 263 -381 353 -381 z "},"Ì":{"ha":525,"x_min":-147,"x_max":453,"o":"m 83 1042 l 442 1042 l 442 0 l 83 0 l 83 1042 m 247 1364 l 453 1114 l 103 1114 l -147 1364 l 247 1364 z "},"Ỉ":{"ha":525,"x_min":57,"x_max":539,"o":"m 83 1042 l 442 1042 l 442 0 l 83 0 l 83 1042 m 190 1094 l 131 1193 q 222 1219 196 1204 q 247 1247 247 1233 q 228 1268 247 1261 q 171 1275 210 1275 q 114 1272 140 1275 q 57 1264 88 1269 l 57 1429 q 144 1448 88 1439 q 260 1457 201 1457 q 467 1420 396 1457 q 539 1300 539 1383 q 460 1174 539 1224 q 190 1094 381 1124 z "},"Ȋ":{"ha":525,"x_min":-126,"x_max":651,"o":"m 83 1042 l 442 1042 l 442 0 l 83 0 l 83 1042 m 651 1106 l 388 1106 q 335 1151 365 1136 q 263 1167 304 1167 q 190 1151 221 1167 q 138 1106 160 1136 l -126 1106 q 17 1310 -86 1244 q 263 1376 119 1376 q 510 1310 407 1376 q 651 1106 613 1244 z "},"Ī":{"ha":525,"x_min":-17,"x_max":542,"o":"m -17 1135 l -17 1339 l 542 1339 l 542 1135 l -17 1135 m 83 1042 l 442 1042 l 442 0 l 83 0 l 83 1042 z "},"Į":{"ha":525,"x_min":42,"x_max":449,"o":"m 289 17 l 410 17 l 410 0 l 442 0 q 340 -40 375 -19 q 306 -87 306 -61 q 372 -124 306 -124 q 411 -121 392 -124 q 449 -114 431 -118 l 449 -286 q 382 -301 431 -293 q 281 -308 333 -308 q 108 -269 174 -308 q 42 -165 42 -229 q 104 -56 42 -100 q 289 17 167 -11 m 83 1042 l 442 1042 l 442 0 l 83 0 l 83 1042 z "},"Ɩ":{"ha":664,"x_min":75,"x_max":638,"o":"m 75 1042 l 433 1042 l 433 375 q 456 275 433 307 q 538 243 478 243 q 586 248 561 243 q 638 261 611 253 l 638 1 q 548 -17 599 -10 q 438 -25 497 -25 q 163 72 251 -25 q 75 354 75 168 l 75 1042 z "},"Ɨ":{"ha":647,"x_min":33,"x_max":614,"o":"m 33 417 l 33 653 l 614 653 l 614 417 l 33 417 m 144 1042 l 503 1042 l 503 0 l 144 0 l 144 1042 z "},"Ĩ":{"ha":525,"x_min":-43,"x_max":567,"o":"m -43 1114 q 12 1300 -36 1232 q 154 1368 60 1368 q 216 1359 190 1368 q 262 1338 242 1350 q 301 1316 282 1325 q 340 1307 319 1307 q 380 1323 365 1307 q 400 1365 394 1339 l 567 1365 q 513 1179 561 1247 q 369 1111 464 1111 q 308 1120 335 1111 q 262 1142 282 1129 q 223 1163 242 1154 q 183 1172 204 1172 q 144 1157 158 1172 q 124 1114 129 1142 l -43 1114 m 83 1042 l 442 1042 l 442 0 l 83 0 l 83 1042 z "},"Ḭ":{"ha":525,"x_min":-43,"x_max":567,"o":"m -43 -312 q 12 -126 -36 -194 q 154 -58 60 -58 q 216 -67 190 -58 q 262 -89 242 -76 q 301 -110 282 -101 q 340 -119 319 -119 q 380 -103 365 -119 q 400 -61 394 -87 l 567 -61 q 513 -247 561 -179 q 369 -315 464 -315 q 308 -306 335 -315 q 262 -285 282 -297 q 223 -263 242 -272 q 183 -254 204 -254 q 144 -269 158 -254 q 124 -312 129 -285 l -43 -312 m 83 1042 l 442 1042 l 442 0 l 83 0 l 83 1042 z "},"J":{"ha":1144,"x_min":18,"x_max":1074,"o":"m 18 522 l 368 522 l 368 494 q 407 334 368 388 q 540 281 446 281 q 674 329 632 281 q 715 464 715 378 l 715 1042 l 1074 1042 l 1074 444 q 1007 198 1074 304 q 821 33 940 92 q 540 -25 701 -25 q 266 36 383 -25 q 85 208 149 97 q 21 464 21 318 l 18 522 z "},"Ĵ":{"ha":1144,"x_min":18,"x_max":1222,"o":"m 717 1364 l 1072 1364 l 1222 1114 l 985 1114 l 851 1257 l 938 1257 l 804 1114 l 567 1114 l 717 1364 m 18 522 l 368 522 l 368 494 q 407 334 368 388 q 540 281 446 281 q 674 329 632 281 q 715 464 715 378 l 715 1042 l 1074 1042 l 1074 444 q 1007 198 1074 304 q 821 33 940 92 q 540 -25 701 -25 q 266 36 383 -25 q 85 208 149 97 q 21 464 21 318 l 18 522 z "},"Ʝ":{"ha":1233,"x_min":14,"x_max":1181,"o":"m 1100 444 q 1039 207 1100 314 q 851 38 978 100 q 528 -25 725 -25 q 233 22 347 -25 q 67 145 119 69 q 14 307 14 221 q 42 426 14 368 q 129 531 69 485 q 288 605 189 578 q 528 632 386 632 q 772 601 656 632 q 990 519 888 569 q 1181 407 1093 468 l 1181 131 q 1041 232 1119 185 q 874 315 963 279 q 697 370 786 350 q 528 390 608 390 q 403 368 443 390 q 364 315 364 346 q 379 281 364 297 q 427 256 394 265 q 513 246 460 246 q 684 293 626 246 q 742 421 742 340 l 742 1042 l 1100 1042 l 1100 444 z "},"Ɉ":{"ha":1224,"x_min":18,"x_max":1185,"o":"m 546 735 l 1185 735 l 1185 499 l 546 499 l 546 735 m 18 522 l 368 522 l 368 494 q 407 334 368 388 q 540 281 446 281 q 674 329 632 281 q 715 464 715 378 l 715 1042 l 1074 1042 l 1074 444 q 1007 198 1074 304 q 821 33 940 92 q 540 -25 701 -25 q 266 36 383 -25 q 85 208 149 97 q 21 464 21 318 l 18 522 z "},"K":{"ha":1243,"x_min":83,"x_max":1256,"o":"m 83 0 l 83 1042 l 439 1042 l 439 279 l 349 356 l 867 1042 l 1242 1042 l 408 0 l 83 0 m 583 479 l 847 686 l 1256 0 l 850 0 l 583 479 z "},"Ḱ":{"ha":1243,"x_min":83,"x_max":1256,"o":"m 83 0 l 83 1042 l 439 1042 l 439 279 l 349 356 l 867 1042 l 1242 1042 l 408 0 l 83 0 m 583 479 l 847 686 l 1256 0 l 850 0 l 583 479 m 660 1364 l 1054 1364 l 804 1114 l 454 1114 l 660 1364 z "},"Ǩ":{"ha":1243,"x_min":83,"x_max":1256,"o":"m 83 0 l 83 1042 l 439 1042 l 439 279 l 349 356 l 867 1042 l 1242 1042 l 408 0 l 83 0 m 583 479 l 847 686 l 1256 0 l 850 0 l 583 479 m 839 1113 l 475 1113 l 260 1363 l 538 1363 l 740 1218 l 574 1218 l 776 1363 l 1054 1363 l 839 1113 z "},"Ķ":{"ha":1243,"x_min":83,"x_max":1256,"o":"m 83 0 l 83 1042 l 439 1042 l 439 279 l 349 356 l 867 1042 l 1242 1042 l 408 0 l 83 0 m 583 479 l 847 686 l 1256 0 l 850 0 l 583 479 m 474 -471 l 629 -233 l 643 -329 q 512 -293 561 -329 q 463 -193 463 -257 q 512 -94 463 -129 q 643 -58 561 -58 q 774 -94 725 -58 q 822 -194 822 -129 q 798 -275 822 -237 q 724 -369 774 -312 l 635 -471 l 474 -471 z "},"Ḳ":{"ha":1243,"x_min":83,"x_max":1256,"o":"m 83 0 l 83 1042 l 439 1042 l 439 279 l 349 356 l 867 1042 l 1242 1042 l 408 0 l 83 0 m 583 479 l 847 686 l 1256 0 l 850 0 l 583 479 m 643 -381 q 500 -337 554 -381 q 446 -219 446 -294 q 500 -101 446 -144 q 643 -58 554 -58 q 787 -101 733 -58 q 840 -219 840 -144 q 787 -337 840 -294 q 643 -381 733 -381 z "},"Ƙ":{"ha":1271,"x_min":83,"x_max":1257,"o":"m 583 479 l 847 686 l 1257 0 l 850 0 l 583 479 m 83 0 l 83 1042 l 439 1042 l 439 279 l 349 356 l 743 904 q 819 990 779 953 q 913 1047 858 1026 q 1047 1067 968 1067 q 1146 1059 1101 1067 q 1233 1040 1190 1051 l 1233 781 q 1168 799 1197 793 q 1111 804 1139 804 q 1033 785 1063 804 q 975 732 1003 767 l 408 0 l 83 0 z "},"Ḵ":{"ha":1243,"x_min":83,"x_max":1256,"o":"m 83 0 l 83 1042 l 439 1042 l 439 279 l 349 356 l 867 1042 l 1242 1042 l 408 0 l 83 0 m 583 479 l 847 686 l 1256 0 l 850 0 l 583 479 m 306 -292 l 306 -87 l 1033 -87 l 1033 -292 l 306 -292 z "},"L":{"ha":1085,"x_min":83,"x_max":1056,"o":"m 442 1042 l 442 158 l 281 319 l 1056 319 l 1056 0 l 83 0 l 83 1042 l 442 1042 z "},"Ǉ":{"ha":2246,"x_min":83,"x_max":2175,"o":"m 442 1042 l 442 158 l 281 319 l 1056 319 l 1056 0 l 83 0 l 83 1042 l 442 1042 m 1119 522 l 1469 522 l 1469 494 q 1508 334 1469 388 q 1642 281 1547 281 q 1775 329 1733 281 q 1817 464 1817 378 l 1817 1042 l 2175 1042 l 2175 444 q 2108 198 2175 304 q 1922 33 2042 92 q 1642 -25 1803 -25 q 1367 36 1485 -25 q 1186 208 1250 97 q 1122 464 1122 318 l 1119 522 z "},"Ĺ":{"ha":1085,"x_min":60,"x_max":1056,"o":"m 442 1042 l 442 158 l 281 319 l 1056 319 l 1056 0 l 83 0 l 83 1042 l 442 1042 m 265 1364 l 660 1364 l 410 1114 l 60 1114 l 265 1364 z "},"Ƚ":{"ha":1146,"x_min":33,"x_max":1117,"o":"m 33 715 l 800 715 l 800 479 l 33 479 l 33 715 m 503 1042 l 503 158 l 342 319 l 1117 319 l 1117 0 l 144 0 l 144 1042 l 503 1042 z "},"Ɬ":{"ha":1358,"x_min":4,"x_max":1329,"o":"m 244 825 q 402 784 340 825 q 494 678 464 743 q 525 542 525 614 l 525 364 l 396 364 l 396 553 q 365 640 396 610 q 288 669 333 669 q 237 656 254 669 q 219 618 219 642 q 242 574 219 590 q 314 557 264 557 q 396 565 351 557 q 488 582 440 572 l 619 621 q 776 678 693 643 q 951 764 858 713 l 951 558 q 788 488 868 519 q 629 433 707 457 l 506 403 q 409 388 458 394 q 310 382 360 382 q 83 442 163 382 q 4 608 4 503 q 67 764 4 703 q 244 825 129 825 m 715 1042 l 715 158 l 554 319 l 1329 319 l 1329 0 l 357 0 l 357 1042 l 715 1042 z "},"Ľ":{"ha":1085,"x_min":83,"x_max":1056,"o":"m 442 1042 l 442 158 l 281 319 l 1056 319 l 1056 0 l 83 0 l 83 1042 l 442 1042 m 567 1042 l 869 1042 l 761 692 l 525 692 l 567 1042 z "},"Ḽ":{"ha":1085,"x_min":83,"x_max":1056,"o":"m 442 1042 l 442 158 l 281 319 l 1056 319 l 1056 0 l 83 0 l 83 1042 l 442 1042 m 406 -58 l 761 -58 l 960 -336 l 689 -336 l 500 -136 l 667 -136 l 478 -336 l 207 -336 l 406 -58 z "},"Ļ":{"ha":1085,"x_min":83,"x_max":1056,"o":"m 442 1042 l 442 158 l 281 319 l 1056 319 l 1056 0 l 83 0 l 83 1042 l 442 1042 m 414 -471 l 569 -233 l 583 -329 q 452 -293 501 -329 q 403 -193 403 -257 q 452 -94 403 -129 q 583 -58 501 -58 q 714 -94 665 -58 q 763 -194 763 -129 q 738 -275 763 -237 q 664 -369 714 -312 l 575 -471 l 414 -471 z "},"Ŀ":{"ha":1093,"x_min":83,"x_max":1056,"o":"m 442 1042 l 442 158 l 281 319 l 1056 319 l 1056 0 l 83 0 l 83 1042 l 442 1042 m 815 478 q 719 503 763 478 q 650 572 675 528 q 625 669 625 615 q 650 765 625 722 q 719 833 675 808 q 817 858 763 858 q 913 833 869 858 q 981 765 956 808 q 1006 668 1006 722 q 981 572 1006 615 q 913 503 956 528 q 815 478 869 478 z "},"Ḷ":{"ha":1085,"x_min":83,"x_max":1056,"o":"m 442 1042 l 442 158 l 281 319 l 1056 319 l 1056 0 l 83 0 l 83 1042 l 442 1042 m 583 -381 q 440 -337 494 -381 q 386 -219 386 -294 q 440 -101 386 -144 q 583 -58 494 -58 q 727 -101 674 -58 q 781 -219 781 -144 q 727 -337 781 -294 q 583 -381 674 -381 z "},"Ḹ":{"ha":1085,"x_min":-101,"x_max":1056,"o":"m 442 1042 l 442 158 l 281 319 l 1056 319 l 1056 0 l 83 0 l 83 1042 l 442 1042 m 583 -381 q 440 -337 494 -381 q 386 -219 386 -294 q 440 -101 386 -144 q 583 -58 494 -58 q 727 -101 674 -58 q 781 -219 781 -144 q 727 -337 781 -294 q 583 -381 674 -381 m -101 1135 l -101 1339 l 626 1339 l 626 1135 l -101 1135 z "},"ǈ":{"ha":1560,"x_min":85,"x_max":1514,"o":"m 443 1042 l 443 158 l 282 319 l 1057 319 l 1057 0 l 85 0 l 85 1042 l 443 1042 m 1140 815 l 1317 779 l 1493 815 l 1493 -229 l 1140 -229 l 1140 815 m 1317 857 q 1174 900 1228 857 q 1119 1018 1119 943 q 1174 1136 1119 1093 q 1317 1179 1228 1179 q 1460 1136 1407 1179 q 1514 1018 1514 1093 q 1460 900 1514 943 q 1317 857 1407 857 z "},"Ḻ":{"ha":1085,"x_min":83,"x_max":1056,"o":"m 442 1042 l 442 158 l 281 319 l 1056 319 l 1056 0 l 83 0 l 83 1042 l 442 1042 m 246 -292 l 246 -87 l 974 -87 l 974 -292 l 246 -292 z "},"Ł":{"ha":1124,"x_min":50,"x_max":1094,"o":"m 50 640 l 769 828 l 769 592 l 50 404 l 50 640 m 481 1042 l 481 158 l 319 319 l 1094 319 l 1094 0 l 122 0 l 122 1042 l 481 1042 z "},"M":{"ha":1771,"x_min":83,"x_max":1688,"o":"m 1688 1042 l 1688 0 l 1347 0 l 1347 907 l 1413 899 l 1063 0 l 708 0 l 358 894 l 424 904 l 424 0 l 83 0 l 83 1042 l 638 1042 l 949 193 l 825 193 l 1133 1042 l 1688 1042 z "},"Ḿ":{"ha":1771,"x_min":83,"x_max":1688,"o":"m 1688 1042 l 1688 0 l 1347 0 l 1347 907 l 1413 899 l 1063 0 l 708 0 l 358 894 l 424 904 l 424 0 l 83 0 l 83 1042 l 638 1042 l 949 193 l 825 193 l 1133 1042 l 1688 1042 m 889 1364 l 1283 1364 l 1033 1114 l 683 1114 l 889 1364 z "},"Ṁ":{"ha":1771,"x_min":83,"x_max":1688,"o":"m 1688 1042 l 1688 0 l 1347 0 l 1347 907 l 1413 899 l 1063 0 l 708 0 l 358 894 l 424 904 l 424 0 l 83 0 l 83 1042 l 638 1042 l 949 193 l 825 193 l 1133 1042 l 1688 1042 m 886 1100 q 743 1143 797 1100 q 689 1261 689 1186 q 743 1379 689 1336 q 886 1422 797 1422 q 1030 1379 976 1422 q 1083 1261 1083 1336 q 1030 1143 1083 1186 q 886 1100 976 1100 z "},"Ṃ":{"ha":1771,"x_min":83,"x_max":1688,"o":"m 1688 1042 l 1688 0 l 1347 0 l 1347 907 l 1413 899 l 1063 0 l 708 0 l 358 894 l 424 904 l 424 0 l 83 0 l 83 1042 l 638 1042 l 949 193 l 825 193 l 1133 1042 l 1688 1042 m 886 -381 q 743 -337 797 -381 q 689 -219 689 -294 q 743 -101 689 -144 q 886 -58 797 -58 q 1030 -101 976 -58 q 1083 -219 1083 -144 q 1030 -337 1083 -294 q 886 -381 976 -381 z "},"Ɱ":{"ha":1771,"x_min":83,"x_max":1688,"o":"m 1347 146 l 1347 907 l 1413 899 l 1063 0 l 708 0 l 358 894 l 424 904 l 424 0 l 83 0 l 83 1042 l 638 1042 l 949 193 l 825 193 l 1133 1042 l 1688 1042 l 1688 125 q 1600 -158 1688 -61 q 1318 -254 1513 -254 q 1212 -248 1268 -254 q 1111 -228 1156 -242 l 1111 32 q 1165 19 1135 25 q 1228 14 1194 14 q 1320 49 1293 14 q 1347 146 1347 83 z "},"Ɯ":{"ha":1765,"x_min":75,"x_max":1722,"o":"m 1722 0 l 1364 0 l 1308 354 l 1308 1042 l 1667 1042 l 1667 286 l 1722 0 m 1046 -25 q 854 24 933 -25 q 733 159 775 72 q 692 363 692 246 l 692 1042 l 1050 1042 l 1050 413 q 1082 310 1050 346 q 1174 274 1114 274 q 1247 292 1217 274 q 1292 347 1276 311 q 1308 432 1308 382 l 1413 379 q 1340 154 1393 244 q 1210 19 1286 64 q 1046 -25 1135 -25 m 431 -25 q 239 22 318 -25 q 117 152 160 68 q 75 349 75 236 l 75 1042 l 433 1042 l 433 413 q 465 310 433 346 q 557 274 497 274 q 630 292 600 274 q 676 347 660 311 q 692 432 692 382 l 796 379 q 724 154 776 244 q 595 19 671 64 q 431 -25 519 -25 z "},"N":{"ha":1382,"x_min":83,"x_max":1299,"o":"m 1049 261 l 951 238 l 951 1042 l 1299 1042 l 1299 0 l 850 0 l 333 803 l 431 826 l 431 0 l 83 0 l 83 1042 l 546 1042 l 1049 261 z "},"Ǌ":{"ha":2533,"x_min":83,"x_max":2463,"o":"m 1049 261 l 951 238 l 951 1042 l 1299 1042 l 1299 0 l 850 0 l 333 803 l 431 826 l 431 0 l 83 0 l 83 1042 l 546 1042 l 1049 261 m 1407 522 l 1757 522 l 1757 494 q 1796 334 1757 388 q 1929 281 1835 281 q 2063 329 2021 281 q 2104 464 2104 378 l 2104 1042 l 2463 1042 l 2463 444 q 2396 198 2463 304 q 2210 33 2329 92 q 1929 -25 2090 -25 q 1655 36 1772 -25 q 1474 208 1538 97 q 1410 464 1410 318 l 1407 522 z "},"Ń":{"ha":1382,"x_min":83,"x_max":1299,"o":"m 1049 261 l 951 238 l 951 1042 l 1299 1042 l 1299 0 l 850 0 l 333 803 l 431 826 l 431 0 l 83 0 l 83 1042 l 546 1042 l 1049 261 m 714 1364 l 1108 1364 l 858 1114 l 508 1114 l 714 1364 z "},"Ň":{"ha":1382,"x_min":83,"x_max":1299,"o":"m 1049 261 l 951 238 l 951 1042 l 1299 1042 l 1299 0 l 850 0 l 333 803 l 431 826 l 431 0 l 83 0 l 83 1042 l 546 1042 l 1049 261 m 893 1113 l 529 1113 l 314 1363 l 592 1363 l 794 1218 l 628 1218 l 831 1363 l 1108 1363 l 893 1113 z "},"Ṋ":{"ha":1382,"x_min":83,"x_max":1299,"o":"m 1049 261 l 951 238 l 951 1042 l 1299 1042 l 1299 0 l 850 0 l 333 803 l 431 826 l 431 0 l 83 0 l 83 1042 l 546 1042 l 1049 261 m 514 -58 l 869 -58 l 1068 -336 l 797 -336 l 608 -136 l 775 -136 l 586 -336 l 315 -336 l 514 -58 z "},"Ņ":{"ha":1382,"x_min":83,"x_max":1299,"o":"m 1049 261 l 951 238 l 951 1042 l 1299 1042 l 1299 0 l 850 0 l 333 803 l 431 826 l 431 0 l 83 0 l 83 1042 l 546 1042 l 1049 261 m 522 -471 l 678 -233 l 692 -329 q 560 -293 610 -329 q 511 -193 511 -257 q 560 -94 511 -129 q 692 -58 610 -58 q 822 -94 774 -58 q 871 -194 871 -129 q 847 -275 871 -237 q 772 -369 822 -312 l 683 -471 l 522 -471 z "},"Ṅ":{"ha":1382,"x_min":83,"x_max":1299,"o":"m 1049 261 l 951 238 l 951 1042 l 1299 1042 l 1299 0 l 850 0 l 333 803 l 431 826 l 431 0 l 83 0 l 83 1042 l 546 1042 l 1049 261 m 711 1100 q 568 1143 622 1100 q 514 1261 514 1186 q 568 1379 514 1336 q 711 1422 622 1422 q 855 1379 801 1422 q 908 1261 908 1336 q 855 1143 908 1186 q 711 1100 801 1100 z "},"Ṇ":{"ha":1382,"x_min":83,"x_max":1299,"o":"m 1049 261 l 951 238 l 951 1042 l 1299 1042 l 1299 0 l 850 0 l 333 803 l 431 826 l 431 0 l 83 0 l 83 1042 l 546 1042 l 1049 261 m 692 -381 q 549 -337 603 -381 q 494 -219 494 -294 q 549 -101 494 -144 q 692 -58 603 -58 q 835 -101 782 -58 q 889 -219 889 -144 q 835 -337 889 -294 q 692 -381 782 -381 z "},"Ǹ":{"ha":1382,"x_min":83,"x_max":1299,"o":"m 1049 261 l 951 238 l 951 1042 l 1299 1042 l 1299 0 l 850 0 l 333 803 l 431 826 l 431 0 l 83 0 l 83 1042 l 546 1042 l 1049 261 m 696 1364 l 901 1114 l 551 1114 l 301 1364 l 696 1364 z "},"Ɲ":{"ha":1382,"x_min":-153,"x_max":1299,"o":"m 83 1042 l 546 1042 l 1049 261 l 951 238 l 951 1042 l 1299 1042 l 1299 0 l 850 0 l 333 803 l 431 826 l 431 125 q 340 -158 431 -61 q 54 -254 249 -254 q -52 -248 4 -254 q -153 -228 -108 -242 l -153 32 q -99 19 -129 25 q -36 14 -69 14 q 56 49 29 14 q 83 146 83 83 l 83 1042 z "},"ǋ":{"ha":1868,"x_min":85,"x_max":1822,"o":"m 1050 261 l 953 238 l 953 1042 l 1300 1042 l 1300 0 l 851 0 l 335 803 l 432 826 l 432 0 l 85 0 l 85 1042 l 547 1042 l 1050 261 m 1449 815 l 1625 779 l 1801 815 l 1801 -229 l 1449 -229 l 1449 815 m 1625 857 q 1482 900 1536 857 q 1428 1018 1428 943 q 1482 1136 1428 1093 q 1625 1179 1536 1179 q 1769 1136 1715 1179 q 1822 1018 1822 1093 q 1769 900 1822 943 q 1625 857 1715 857 z "},"Ṉ":{"ha":1382,"x_min":83,"x_max":1299,"o":"m 1049 261 l 951 238 l 951 1042 l 1299 1042 l 1299 0 l 850 0 l 333 803 l 431 826 l 431 0 l 83 0 l 83 1042 l 546 1042 l 1049 261 m 354 -292 l 354 -87 l 1082 -87 l 1082 -292 l 354 -292 z "},"Ƞ":{"ha":1271,"x_min":83,"x_max":1197,"o":"m 83 1042 l 442 1042 l 442 0 l 83 0 l 83 1042 m 781 1067 q 1003 1015 910 1067 q 1147 870 1097 964 q 1197 651 1197 776 l 1197 -229 l 839 -229 l 839 567 q 789 700 839 653 q 646 747 739 747 q 535 724 581 747 q 465 656 489 700 q 442 547 442 611 l 335 600 q 431 878 368 776 q 582 1024 493 981 q 781 1067 671 1067 z "},"Ñ":{"ha":1382,"x_min":83,"x_max":1299,"o":"m 1049 261 l 951 238 l 951 1042 l 1299 1042 l 1299 0 l 850 0 l 333 803 l 431 826 l 431 0 l 83 0 l 83 1042 l 546 1042 l 1049 261 m 300 1119 q 383 1313 318 1243 q 576 1383 447 1383 q 651 1374 615 1383 q 717 1353 686 1365 q 776 1333 749 1342 q 828 1324 804 1324 q 874 1336 856 1324 q 899 1374 893 1349 l 1121 1374 q 1038 1181 1103 1251 q 844 1110 974 1110 q 770 1119 806 1110 q 703 1140 735 1128 q 644 1160 672 1151 q 593 1169 617 1169 q 547 1157 565 1169 q 522 1119 528 1144 l 300 1119 z "},"Ŋ":{"ha":1297,"x_min":83,"x_max":1225,"o":"m 83 1042 l 442 1042 l 442 0 l 83 0 l 83 1042 m 1225 651 l 1225 103 q 1179 -89 1225 -8 q 1041 -212 1133 -169 q 806 -254 949 -254 q 670 -244 735 -254 q 560 -219 606 -233 l 560 44 q 639 25 592 33 q 738 17 686 17 q 837 51 807 17 q 867 149 867 86 l 867 567 q 813 700 867 653 q 660 747 760 747 q 541 724 590 747 q 467 656 492 700 q 442 547 442 611 l 335 600 q 440 878 369 776 q 602 1024 510 981 q 794 1067 694 1067 q 1024 1015 928 1067 q 1173 870 1121 964 q 1225 651 1225 776 z "},"O":{"ha":1356,"x_min":44,"x_max":1311,"o":"m 678 -25 q 345 43 488 -25 q 124 234 203 111 q 44 521 44 357 q 124 808 44 685 q 345 999 203 931 q 678 1067 488 1067 q 1010 999 868 1067 q 1232 808 1153 931 q 1311 521 1311 685 q 1232 234 1311 357 q 1010 43 1153 111 q 678 -25 868 -25 m 678 294 q 824 322 763 294 q 917 399 885 349 q 950 521 950 450 q 917 642 950 592 q 824 720 885 693 q 678 747 763 747 q 532 720 593 747 q 438 642 471 693 q 406 521 406 592 q 438 399 406 450 q 532 322 471 349 q 678 294 593 294 z "},"Ó":{"ha":1356,"x_min":44,"x_max":1311,"o":"m 678 -25 q 345 43 488 -25 q 124 234 203 111 q 44 521 44 357 q 124 808 44 685 q 345 999 203 931 q 678 1067 488 1067 q 1010 999 868 1067 q 1232 808 1153 931 q 1311 521 1311 685 q 1232 234 1311 357 q 1010 43 1153 111 q 678 -25 868 -25 m 678 294 q 824 322 763 294 q 917 399 885 349 q 950 521 950 450 q 917 642 950 592 q 824 720 885 693 q 678 747 763 747 q 532 720 593 747 q 438 642 471 693 q 406 521 406 592 q 438 399 406 450 q 532 322 471 349 q 678 294 593 294 m 681 1364 l 1075 1364 l 825 1114 l 475 1114 l 681 1364 z "},"Ŏ":{"ha":1356,"x_min":44,"x_max":1311,"o":"m 678 -25 q 345 43 488 -25 q 124 234 203 111 q 44 521 44 357 q 124 808 44 685 q 345 999 203 931 q 678 1067 488 1067 q 1010 999 868 1067 q 1232 808 1153 931 q 1311 521 1311 685 q 1232 234 1311 357 q 1010 43 1153 111 q 678 -25 868 -25 m 678 294 q 824 322 763 294 q 917 399 885 349 q 950 521 950 450 q 917 642 950 592 q 824 720 885 693 q 678 747 763 747 q 532 720 593 747 q 438 642 471 693 q 406 521 406 592 q 438 399 406 450 q 532 322 471 349 q 678 294 593 294 m 289 1371 l 553 1371 q 606 1325 575 1340 q 678 1310 636 1310 q 750 1325 719 1310 q 803 1371 781 1340 l 1067 1371 q 925 1166 1028 1232 q 678 1100 822 1100 q 432 1166 535 1100 q 289 1371 329 1232 z "},"Ǒ":{"ha":1356,"x_min":44,"x_max":1311,"o":"m 678 -25 q 345 43 488 -25 q 124 234 203 111 q 44 521 44 357 q 124 808 44 685 q 345 999 203 931 q 678 1067 488 1067 q 1010 999 868 1067 q 1232 808 1153 931 q 1311 521 1311 685 q 1232 234 1311 357 q 1010 43 1153 111 q 678 -25 868 -25 m 678 294 q 824 322 763 294 q 917 399 885 349 q 950 521 950 450 q 917 642 950 592 q 824 720 885 693 q 678 747 763 747 q 532 720 593 747 q 438 642 471 693 q 406 521 406 592 q 438 399 406 450 q 532 322 471 349 q 678 294 593 294 m 860 1113 l 496 1113 l 281 1363 l 558 1363 l 761 1218 l 594 1218 l 797 1363 l 1075 1363 l 860 1113 z "},"Ɵ":{"ha":1356,"x_min":44,"x_max":1311,"o":"m 128 642 l 1175 642 l 1175 400 l 128 400 l 128 642 m 678 -25 q 345 43 488 -25 q 124 234 203 111 q 44 521 44 357 q 124 808 44 685 q 345 999 203 931 q 678 1067 488 1067 q 1010 999 868 1067 q 1232 808 1153 931 q 1311 521 1311 685 q 1232 234 1311 357 q 1010 43 1153 111 q 678 -25 868 -25 m 678 269 q 831 299 767 269 q 929 386 894 329 q 964 521 964 443 q 929 656 964 600 q 831 742 894 713 q 678 772 767 772 q 525 742 589 772 q 426 656 461 713 q 392 521 392 600 q 426 386 392 443 q 525 299 461 329 q 678 269 589 269 z "},"Ô":{"ha":1356,"x_min":44,"x_max":1311,"o":"m 678 -25 q 345 43 488 -25 q 124 234 203 111 q 44 521 44 357 q 124 808 44 685 q 345 999 203 931 q 678 1067 488 1067 q 1010 999 868 1067 q 1232 808 1153 931 q 1311 521 1311 685 q 1232 234 1311 357 q 1010 43 1153 111 q 678 -25 868 -25 m 678 294 q 824 322 763 294 q 917 399 885 349 q 950 521 950 450 q 917 642 950 592 q 824 720 885 693 q 678 747 763 747 q 532 720 593 747 q 438 642 471 693 q 406 521 406 592 q 438 399 406 450 q 532 322 471 349 q 678 294 593 294 m 496 1364 l 860 1364 l 1075 1114 l 797 1114 l 594 1258 l 761 1258 l 558 1114 l 281 1114 l 496 1364 z "},"Ố":{"ha":1356,"x_min":44,"x_max":1392,"o":"m 678 -25 q 345 43 488 -25 q 124 234 203 111 q 44 521 44 357 q 124 808 44 685 q 345 999 203 931 q 678 1067 488 1067 q 1010 999 868 1067 q 1232 808 1153 931 q 1311 521 1311 685 q 1232 234 1311 357 q 1010 43 1153 111 q 678 -25 868 -25 m 678 294 q 824 322 763 294 q 917 399 885 349 q 950 521 950 450 q 917 642 950 592 q 824 720 885 693 q 678 747 763 747 q 532 720 593 747 q 438 642 471 693 q 406 521 406 592 q 438 399 406 450 q 532 322 471 349 q 678 294 593 294 m 1081 1547 l 1392 1547 l 1208 1307 l 942 1307 l 1081 1547 m 496 1364 l 860 1364 l 1075 1114 l 797 1114 l 594 1258 l 761 1258 l 558 1114 l 281 1114 l 496 1364 z "},"Ộ":{"ha":1356,"x_min":44,"x_max":1311,"o":"m 678 -25 q 345 43 488 -25 q 124 234 203 111 q 44 521 44 357 q 124 808 44 685 q 345 999 203 931 q 678 1067 488 1067 q 1010 999 868 1067 q 1232 808 1153 931 q 1311 521 1311 685 q 1232 234 1311 357 q 1010 43 1153 111 q 678 -25 868 -25 m 678 294 q 824 322 763 294 q 917 399 885 349 q 950 521 950 450 q 917 642 950 592 q 824 720 885 693 q 678 747 763 747 q 532 720 593 747 q 438 642 471 693 q 406 521 406 592 q 438 399 406 450 q 532 322 471 349 q 678 294 593 294 m 678 -381 q 535 -337 589 -381 q 481 -219 481 -294 q 535 -101 481 -144 q 678 -58 589 -58 q 822 -101 768 -58 q 875 -219 875 -144 q 822 -337 875 -294 q 678 -381 768 -381 m 496 1364 l 860 1364 l 1075 1114 l 797 1114 l 594 1258 l 761 1258 l 558 1114 l 281 1114 l 496 1364 z "},"Ồ":{"ha":1356,"x_min":44,"x_max":1311,"o":"m 678 -25 q 345 43 488 -25 q 124 234 203 111 q 44 521 44 357 q 124 808 44 685 q 345 999 203 931 q 678 1067 488 1067 q 1010 999 868 1067 q 1232 808 1153 931 q 1311 521 1311 685 q 1232 234 1311 357 q 1010 43 1153 111 q 678 -25 868 -25 m 678 294 q 824 322 763 294 q 917 399 885 349 q 950 521 950 450 q 917 642 950 592 q 824 720 885 693 q 678 747 763 747 q 532 720 593 747 q 438 642 471 693 q 406 521 406 592 q 438 399 406 450 q 532 322 471 349 q 678 294 593 294 m 1104 1547 l 1243 1307 l 976 1307 l 793 1547 l 1104 1547 m 496 1364 l 860 1364 l 1075 1114 l 797 1114 l 594 1258 l 761 1258 l 558 1114 l 281 1114 l 496 1364 z "},"Ổ":{"ha":1356,"x_min":44,"x_max":1311,"o":"m 678 -25 q 345 43 488 -25 q 124 234 203 111 q 44 521 44 357 q 124 808 44 685 q 345 999 203 931 q 678 1067 488 1067 q 1010 999 868 1067 q 1232 808 1153 931 q 1311 521 1311 685 q 1232 234 1311 357 q 1010 43 1153 111 q 678 -25 868 -25 m 678 294 q 824 322 763 294 q 917 399 885 349 q 950 521 950 450 q 917 642 950 592 q 824 720 885 693 q 678 747 763 747 q 532 720 593 747 q 438 642 471 693 q 406 521 406 592 q 438 399 406 450 q 532 322 471 349 q 678 294 593 294 m 1007 1276 l 949 1354 q 1002 1383 985 1368 q 1019 1413 1019 1397 q 947 1449 1019 1449 q 907 1447 929 1449 q 861 1439 885 1444 l 861 1611 q 939 1626 890 1619 q 1043 1633 988 1633 q 1231 1594 1164 1633 q 1299 1486 1299 1556 q 1225 1360 1299 1414 q 1007 1276 1151 1307 m 496 1364 l 860 1364 l 1075 1114 l 797 1114 l 594 1258 l 761 1258 l 558 1114 l 281 1114 l 496 1364 z "},"Ỗ":{"ha":1356,"x_min":44,"x_max":1311,"o":"m 678 -25 q 345 43 488 -25 q 124 234 203 111 q 44 521 44 357 q 124 808 44 685 q 345 999 203 931 q 678 1067 488 1067 q 1010 999 868 1067 q 1232 808 1153 931 q 1311 521 1311 685 q 1232 234 1311 357 q 1010 43 1153 111 q 678 -25 868 -25 m 678 294 q 824 322 763 294 q 917 399 885 349 q 950 521 950 450 q 917 642 950 592 q 824 720 885 693 q 678 747 763 747 q 532 720 593 747 q 438 642 471 693 q 406 521 406 592 q 438 399 406 450 q 532 322 471 349 q 678 294 593 294 m 321 1419 q 381 1606 328 1535 q 536 1676 435 1676 q 615 1667 581 1676 q 674 1644 649 1657 q 722 1620 700 1631 q 763 1610 743 1610 q 805 1626 790 1610 q 825 1674 819 1643 l 1033 1674 q 974 1485 1028 1554 q 818 1417 919 1417 q 740 1427 774 1417 q 680 1451 706 1438 q 633 1474 654 1464 q 592 1483 611 1483 q 549 1467 564 1483 q 529 1419 535 1450 l 321 1419 m 496 1364 l 860 1364 l 1075 1114 l 797 1114 l 594 1258 l 761 1258 l 558 1114 l 281 1114 l 496 1364 z "},"Ȍ":{"ha":1356,"x_min":44,"x_max":1311,"o":"m 678 -25 q 345 43 488 -25 q 124 234 203 111 q 44 521 44 357 q 124 808 44 685 q 345 999 203 931 q 678 1067 488 1067 q 1010 999 868 1067 q 1232 808 1153 931 q 1311 521 1311 685 q 1232 234 1311 357 q 1010 43 1153 111 q 678 -25 868 -25 m 678 294 q 824 322 763 294 q 917 399 885 349 q 950 521 950 450 q 917 642 950 592 q 824 720 885 693 q 678 747 763 747 q 532 720 593 747 q 438 642 471 693 q 406 521 406 592 q 438 399 406 450 q 532 322 471 349 q 678 294 593 294 m 857 1364 l 1031 1114 l 729 1114 l 525 1364 l 857 1364 m 451 1364 l 625 1114 l 324 1114 l 119 1364 l 451 1364 z "},"Ö":{"ha":1356,"x_min":44,"x_max":1311,"o":"m 678 -25 q 345 43 488 -25 q 124 234 203 111 q 44 521 44 357 q 124 808 44 685 q 345 999 203 931 q 678 1067 488 1067 q 1010 999 868 1067 q 1232 808 1153 931 q 1311 521 1311 685 q 1232 234 1311 357 q 1010 43 1153 111 q 678 -25 868 -25 m 678 294 q 824 322 763 294 q 917 399 885 349 q 950 521 950 450 q 917 642 950 592 q 824 720 885 693 q 678 747 763 747 q 532 720 593 747 q 438 642 471 693 q 406 521 406 592 q 438 399 406 450 q 532 322 471 349 q 678 294 593 294 m 456 1100 q 323 1140 372 1100 q 274 1254 274 1181 q 323 1363 274 1324 q 456 1403 372 1403 q 588 1363 539 1403 q 638 1254 638 1324 q 588 1140 638 1181 q 456 1100 539 1100 m 900 1100 q 767 1140 817 1100 q 718 1254 718 1181 q 767 1363 718 1324 q 900 1403 817 1403 q 1033 1363 983 1403 q 1082 1254 1082 1324 q 1033 1140 1082 1181 q 900 1100 983 1100 z "},"Ȫ":{"ha":1356,"x_min":44,"x_max":1311,"o":"m 678 -25 q 345 43 488 -25 q 124 234 203 111 q 44 521 44 357 q 124 808 44 685 q 345 999 203 931 q 678 1067 488 1067 q 1010 999 868 1067 q 1232 808 1153 931 q 1311 521 1311 685 q 1232 234 1311 357 q 1010 43 1153 111 q 678 -25 868 -25 m 678 294 q 824 322 763 294 q 917 399 885 349 q 950 521 950 450 q 917 642 950 592 q 824 720 885 693 q 678 747 763 747 q 532 720 593 747 q 438 642 471 693 q 406 521 406 592 q 438 399 406 450 q 532 322 471 349 q 678 294 593 294 m 456 1100 q 323 1140 372 1100 q 274 1254 274 1181 q 323 1363 274 1324 q 456 1403 372 1403 q 588 1363 539 1403 q 638 1254 638 1324 q 588 1140 638 1181 q 456 1100 539 1100 m 900 1100 q 767 1140 817 1100 q 718 1254 718 1181 q 767 1363 718 1324 q 900 1403 817 1403 q 1033 1363 983 1403 q 1082 1254 1082 1324 q 1033 1140 1082 1181 q 900 1100 983 1100 m 315 1457 l 315 1661 l 1043 1661 l 1043 1457 l 315 1457 z "},"Ȯ":{"ha":1356,"x_min":44,"x_max":1311,"o":"m 678 -25 q 345 43 488 -25 q 124 234 203 111 q 44 521 44 357 q 124 808 44 685 q 345 999 203 931 q 678 1067 488 1067 q 1010 999 868 1067 q 1232 808 1153 931 q 1311 521 1311 685 q 1232 234 1311 357 q 1010 43 1153 111 q 678 -25 868 -25 m 678 294 q 824 322 763 294 q 917 399 885 349 q 950 521 950 450 q 917 642 950 592 q 824 720 885 693 q 678 747 763 747 q 532 720 593 747 q 438 642 471 693 q 406 521 406 592 q 438 399 406 450 q 532 322 471 349 q 678 294 593 294 m 678 1100 q 535 1143 589 1100 q 481 1261 481 1186 q 535 1379 481 1336 q 678 1422 589 1422 q 822 1379 768 1422 q 875 1261 875 1336 q 822 1143 875 1186 q 678 1100 768 1100 z "},"Ȱ":{"ha":1356,"x_min":44,"x_max":1311,"o":"m 678 -25 q 345 43 488 -25 q 124 234 203 111 q 44 521 44 357 q 124 808 44 685 q 345 999 203 931 q 678 1067 488 1067 q 1010 999 868 1067 q 1232 808 1153 931 q 1311 521 1311 685 q 1232 234 1311 357 q 1010 43 1153 111 q 678 -25 868 -25 m 678 294 q 824 322 763 294 q 917 399 885 349 q 950 521 950 450 q 917 642 950 592 q 824 720 885 693 q 678 747 763 747 q 532 720 593 747 q 438 642 471 693 q 406 521 406 592 q 438 399 406 450 q 532 322 471 349 q 678 294 593 294 m 678 1100 q 535 1143 589 1100 q 481 1261 481 1186 q 535 1379 481 1336 q 678 1422 589 1422 q 822 1379 768 1422 q 875 1261 875 1336 q 822 1143 875 1186 q 678 1100 768 1100 m 314 1457 l 314 1661 l 1042 1661 l 1042 1457 l 314 1457 z "},"Ọ":{"ha":1356,"x_min":44,"x_max":1311,"o":"m 678 -25 q 345 43 488 -25 q 124 234 203 111 q 44 521 44 357 q 124 808 44 685 q 345 999 203 931 q 678 1067 488 1067 q 1010 999 868 1067 q 1232 808 1153 931 q 1311 521 1311 685 q 1232 234 1311 357 q 1010 43 1153 111 q 678 -25 868 -25 m 678 294 q 824 322 763 294 q 917 399 885 349 q 950 521 950 450 q 917 642 950 592 q 824 720 885 693 q 678 747 763 747 q 532 720 593 747 q 438 642 471 693 q 406 521 406 592 q 438 399 406 450 q 532 322 471 349 q 678 294 593 294 m 678 -381 q 535 -337 589 -381 q 481 -219 481 -294 q 535 -101 481 -144 q 678 -58 589 -58 q 822 -101 768 -58 q 875 -219 875 -144 q 822 -337 875 -294 q 678 -381 768 -381 z "},"Ò":{"ha":1356,"x_min":44,"x_max":1311,"o":"m 678 -25 q 345 43 488 -25 q 124 234 203 111 q 44 521 44 357 q 124 808 44 685 q 345 999 203 931 q 678 1067 488 1067 q 1010 999 868 1067 q 1232 808 1153 931 q 1311 521 1311 685 q 1232 234 1311 357 q 1010 43 1153 111 q 678 -25 868 -25 m 678 294 q 824 322 763 294 q 917 399 885 349 q 950 521 950 450 q 917 642 950 592 q 824 720 885 693 q 678 747 763 747 q 532 720 593 747 q 438 642 471 693 q 406 521 406 592 q 438 399 406 450 q 532 322 471 349 q 678 294 593 294 m 663 1364 l 868 1114 l 518 1114 l 268 1364 l 663 1364 z "},"Ỏ":{"ha":1356,"x_min":44,"x_max":1311,"o":"m 678 -25 q 345 43 488 -25 q 124 234 203 111 q 44 521 44 357 q 124 808 44 685 q 345 999 203 931 q 678 1067 488 1067 q 1010 999 868 1067 q 1232 808 1153 931 q 1311 521 1311 685 q 1232 234 1311 357 q 1010 43 1153 111 q 678 -25 868 -25 m 678 294 q 824 322 763 294 q 917 399 885 349 q 950 521 950 450 q 917 642 950 592 q 824 720 885 693 q 678 747 763 747 q 532 720 593 747 q 438 642 471 693 q 406 521 406 592 q 438 399 406 450 q 532 322 471 349 q 678 294 593 294 m 606 1094 l 546 1193 q 637 1219 611 1204 q 663 1247 663 1233 q 644 1268 663 1261 q 586 1275 625 1275 q 529 1272 556 1275 q 472 1264 503 1269 l 472 1429 q 560 1448 503 1439 q 675 1457 617 1457 q 883 1420 811 1457 q 954 1300 954 1383 q 875 1174 954 1224 q 606 1094 796 1124 z "},"Ơ":{"ha":1374,"x_min":44,"x_max":1369,"o":"m 678 -25 q 345 43 488 -25 q 124 234 203 111 q 44 521 44 357 q 124 808 44 685 q 345 999 203 931 q 678 1067 488 1067 q 788 1060 743 1067 q 868 1047 832 1054 q 926 1037 899 1042 q 982 1032 954 1032 q 1076 1058 1049 1032 q 1103 1114 1103 1083 q 1092 1164 1103 1138 q 1060 1222 1082 1190 l 1318 1222 q 1356 1144 1343 1183 q 1369 1065 1369 1104 q 1323 940 1369 993 q 1190 863 1276 886 q 1280 708 1249 794 q 1311 521 1311 622 q 1232 234 1311 357 q 1010 43 1153 111 q 678 -25 868 -25 m 678 294 q 824 322 763 294 q 917 399 885 349 q 950 521 950 450 q 917 642 950 592 q 824 720 885 693 q 678 747 763 747 q 532 720 593 747 q 438 642 471 693 q 406 521 406 592 q 438 399 406 450 q 532 322 471 349 q 678 294 593 294 z "},"Ớ":{"ha":1374,"x_min":44,"x_max":1369,"o":"m 678 -25 q 345 43 488 -25 q 124 234 203 111 q 44 521 44 357 q 124 808 44 685 q 345 999 203 931 q 678 1067 488 1067 q 788 1060 743 1067 q 868 1047 832 1054 q 926 1037 899 1042 q 982 1032 954 1032 q 1076 1058 1049 1032 q 1103 1114 1103 1083 q 1092 1164 1103 1138 q 1060 1222 1082 1190 l 1318 1222 q 1356 1144 1343 1183 q 1369 1065 1369 1104 q 1323 940 1369 993 q 1190 863 1276 886 q 1280 708 1249 794 q 1311 521 1311 622 q 1232 234 1311 357 q 1010 43 1153 111 q 678 -25 868 -25 m 678 294 q 824 322 763 294 q 917 399 885 349 q 950 521 950 450 q 917 642 950 592 q 824 720 885 693 q 678 747 763 747 q 532 720 593 747 q 438 642 471 693 q 406 521 406 592 q 438 399 406 450 q 532 322 471 349 q 678 294 593 294 m 669 1364 l 1064 1364 l 814 1114 l 464 1114 l 669 1364 z "},"Ợ":{"ha":1374,"x_min":44,"x_max":1369,"o":"m 678 -25 q 345 43 488 -25 q 124 234 203 111 q 44 521 44 357 q 124 808 44 685 q 345 999 203 931 q 678 1067 488 1067 q 788 1060 743 1067 q 868 1047 832 1054 q 926 1037 899 1042 q 982 1032 954 1032 q 1076 1058 1049 1032 q 1103 1114 1103 1083 q 1092 1164 1103 1138 q 1060 1222 1082 1190 l 1318 1222 q 1356 1144 1343 1183 q 1369 1065 1369 1104 q 1323 940 1369 993 q 1190 863 1276 886 q 1280 708 1249 794 q 1311 521 1311 622 q 1232 234 1311 357 q 1010 43 1153 111 q 678 -25 868 -25 m 678 294 q 824 322 763 294 q 917 399 885 349 q 950 521 950 450 q 917 642 950 592 q 824 720 885 693 q 678 747 763 747 q 532 720 593 747 q 438 642 471 693 q 406 521 406 592 q 438 399 406 450 q 532 322 471 349 q 678 294 593 294 m 667 -381 q 524 -337 578 -381 q 469 -219 469 -294 q 524 -101 469 -144 q 667 -58 578 -58 q 810 -101 757 -58 q 864 -219 864 -144 q 810 -337 864 -294 q 667 -381 757 -381 z "},"Ờ":{"ha":1374,"x_min":44,"x_max":1369,"o":"m 678 -25 q 345 43 488 -25 q 124 234 203 111 q 44 521 44 357 q 124 808 44 685 q 345 999 203 931 q 678 1067 488 1067 q 788 1060 743 1067 q 868 1047 832 1054 q 926 1037 899 1042 q 982 1032 954 1032 q 1076 1058 1049 1032 q 1103 1114 1103 1083 q 1092 1164 1103 1138 q 1060 1222 1082 1190 l 1318 1222 q 1356 1144 1343 1183 q 1369 1065 1369 1104 q 1323 940 1369 993 q 1190 863 1276 886 q 1280 708 1249 794 q 1311 521 1311 622 q 1232 234 1311 357 q 1010 43 1153 111 q 678 -25 868 -25 m 678 294 q 824 322 763 294 q 917 399 885 349 q 950 521 950 450 q 917 642 950 592 q 824 720 885 693 q 678 747 763 747 q 532 720 593 747 q 438 642 471 693 q 406 521 406 592 q 438 399 406 450 q 532 322 471 349 q 678 294 593 294 m 651 1364 l 857 1114 l 507 1114 l 257 1364 l 651 1364 z "},"Ở":{"ha":1374,"x_min":44,"x_max":1369,"o":"m 678 -25 q 345 43 488 -25 q 124 234 203 111 q 44 521 44 357 q 124 808 44 685 q 345 999 203 931 q 678 1067 488 1067 q 788 1060 743 1067 q 868 1047 832 1054 q 926 1037 899 1042 q 982 1032 954 1032 q 1076 1058 1049 1032 q 1103 1114 1103 1083 q 1092 1164 1103 1138 q 1060 1222 1082 1190 l 1318 1222 q 1356 1144 1343 1183 q 1369 1065 1369 1104 q 1323 940 1369 993 q 1190 863 1276 886 q 1280 708 1249 794 q 1311 521 1311 622 q 1232 234 1311 357 q 1010 43 1153 111 q 678 -25 868 -25 m 678 294 q 824 322 763 294 q 917 399 885 349 q 950 521 950 450 q 917 642 950 592 q 824 720 885 693 q 678 747 763 747 q 532 720 593 747 q 438 642 471 693 q 406 521 406 592 q 438 399 406 450 q 532 322 471 349 q 678 294 593 294 m 594 1094 l 535 1193 q 626 1219 600 1204 q 651 1247 651 1233 q 633 1268 651 1261 q 575 1275 614 1275 q 518 1272 544 1275 q 461 1264 492 1269 l 461 1429 q 549 1448 492 1439 q 664 1457 606 1457 q 872 1420 800 1457 q 943 1300 943 1383 q 864 1174 943 1224 q 594 1094 785 1124 z "},"Ỡ":{"ha":1374,"x_min":44,"x_max":1369,"o":"m 678 -25 q 345 43 488 -25 q 124 234 203 111 q 44 521 44 357 q 124 808 44 685 q 345 999 203 931 q 678 1067 488 1067 q 788 1060 743 1067 q 868 1047 832 1054 q 926 1037 899 1042 q 982 1032 954 1032 q 1076 1058 1049 1032 q 1103 1114 1103 1083 q 1092 1164 1103 1138 q 1060 1222 1082 1190 l 1318 1222 q 1356 1144 1343 1183 q 1369 1065 1369 1104 q 1323 940 1369 993 q 1190 863 1276 886 q 1280 708 1249 794 q 1311 521 1311 622 q 1232 234 1311 357 q 1010 43 1153 111 q 678 -25 868 -25 m 678 294 q 824 322 763 294 q 917 399 885 349 q 950 521 950 450 q 917 642 950 592 q 824 720 885 693 q 678 747 763 747 q 532 720 593 747 q 438 642 471 693 q 406 521 406 592 q 438 399 406 450 q 532 322 471 349 q 678 294 593 294 m 256 1119 q 338 1313 274 1243 q 532 1383 403 1383 q 606 1374 571 1383 q 673 1353 642 1365 q 732 1333 704 1342 q 783 1324 760 1324 q 830 1336 811 1324 q 854 1374 849 1349 l 1076 1374 q 994 1181 1058 1251 q 800 1110 929 1110 q 726 1119 761 1110 q 659 1140 690 1128 q 600 1160 628 1151 q 549 1169 572 1169 q 502 1157 521 1169 q 478 1119 483 1144 l 256 1119 z "},"Ő":{"ha":1356,"x_min":44,"x_max":1311,"o":"m 678 -25 q 345 43 488 -25 q 124 234 203 111 q 44 521 44 357 q 124 808 44 685 q 345 999 203 931 q 678 1067 488 1067 q 1010 999 868 1067 q 1232 808 1153 931 q 1311 521 1311 685 q 1232 234 1311 357 q 1010 43 1153 111 q 678 -25 868 -25 m 678 294 q 824 322 763 294 q 917 399 885 349 q 950 521 950 450 q 917 642 950 592 q 824 720 885 693 q 678 747 763 747 q 532 720 593 747 q 438 642 471 693 q 406 521 406 592 q 438 399 406 450 q 532 322 471 349 q 678 294 593 294 m 511 1364 l 843 1364 l 639 1114 l 338 1114 l 511 1364 m 917 1364 l 1249 1364 l 1044 1114 l 743 1114 l 917 1364 z "},"Ȏ":{"ha":1356,"x_min":44,"x_max":1311,"o":"m 678 -25 q 345 43 488 -25 q 124 234 203 111 q 44 521 44 357 q 124 808 44 685 q 345 999 203 931 q 678 1067 488 1067 q 1010 999 868 1067 q 1232 808 1153 931 q 1311 521 1311 685 q 1232 234 1311 357 q 1010 43 1153 111 q 678 -25 868 -25 m 678 294 q 824 322 763 294 q 917 399 885 349 q 950 521 950 450 q 917 642 950 592 q 824 720 885 693 q 678 747 763 747 q 532 720 593 747 q 438 642 471 693 q 406 521 406 592 q 438 399 406 450 q 532 322 471 349 q 678 294 593 294 m 1067 1106 l 803 1106 q 750 1151 781 1136 q 678 1167 719 1167 q 606 1151 636 1167 q 553 1106 575 1136 l 289 1106 q 432 1310 329 1244 q 678 1376 535 1376 q 925 1310 822 1376 q 1067 1106 1028 1244 z "},"Ō":{"ha":1356,"x_min":44,"x_max":1311,"o":"m 678 -25 q 345 43 488 -25 q 124 234 203 111 q 44 521 44 357 q 124 808 44 685 q 345 999 203 931 q 678 1067 488 1067 q 1010 999 868 1067 q 1232 808 1153 931 q 1311 521 1311 685 q 1232 234 1311 357 q 1010 43 1153 111 q 678 -25 868 -25 m 678 294 q 824 322 763 294 q 917 399 885 349 q 950 521 950 450 q 917 642 950 592 q 824 720 885 693 q 678 747 763 747 q 532 720 593 747 q 438 642 471 693 q 406 521 406 592 q 438 399 406 450 q 532 322 471 349 q 678 294 593 294 m 314 1135 l 314 1339 l 1042 1339 l 1042 1135 l 314 1135 z "},"Ṓ":{"ha":1356,"x_min":44,"x_max":1311,"o":"m 678 -25 q 345 43 488 -25 q 124 234 203 111 q 44 521 44 357 q 124 808 44 685 q 345 999 203 931 q 678 1067 488 1067 q 1010 999 868 1067 q 1232 808 1153 931 q 1311 521 1311 685 q 1232 234 1311 357 q 1010 43 1153 111 q 678 -25 868 -25 m 678 294 q 824 322 763 294 q 917 399 885 349 q 950 521 950 450 q 917 642 950 592 q 824 720 885 693 q 678 747 763 747 q 532 720 593 747 q 438 642 471 693 q 406 521 406 592 q 438 399 406 450 q 532 322 471 349 q 678 294 593 294 m 314 1135 l 314 1339 l 1042 1339 l 1042 1135 l 314 1135 m 681 1672 l 1075 1672 l 825 1422 l 475 1422 l 681 1672 z "},"Ṑ":{"ha":1356,"x_min":44,"x_max":1311,"o":"m 678 -25 q 345 43 488 -25 q 124 234 203 111 q 44 521 44 357 q 124 808 44 685 q 345 999 203 931 q 678 1067 488 1067 q 1010 999 868 1067 q 1232 808 1153 931 q 1311 521 1311 685 q 1232 234 1311 357 q 1010 43 1153 111 q 678 -25 868 -25 m 678 294 q 824 322 763 294 q 917 399 885 349 q 950 521 950 450 q 917 642 950 592 q 824 720 885 693 q 678 747 763 747 q 532 720 593 747 q 438 642 471 693 q 406 521 406 592 q 438 399 406 450 q 532 322 471 349 q 678 294 593 294 m 314 1135 l 314 1339 l 1042 1339 l 1042 1135 l 314 1135 m 663 1672 l 868 1422 l 518 1422 l 268 1672 l 663 1672 z "},"Ꞷ":{"ha":1643,"x_min":49,"x_max":1594,"o":"m 49 511 q 115 790 49 669 q 308 981 182 911 q 613 1054 435 1051 l 613 747 q 507 719 553 742 q 435 647 461 696 q 410 511 410 597 q 448 344 410 401 q 550 286 486 286 q 624 310 597 286 q 663 385 651 333 q 674 518 674 436 l 674 672 l 969 672 l 969 518 q 981 385 969 436 q 1019 310 992 333 q 1093 286 1046 286 q 1195 344 1157 286 q 1233 511 1233 401 q 1208 647 1233 597 q 1137 719 1182 696 q 1031 747 1092 742 l 1031 1054 q 1335 981 1210 1051 q 1528 790 1461 911 q 1594 511 1594 669 q 1540 232 1594 353 q 1387 43 1485 111 q 1161 -25 1289 -25 q 878 96 969 -25 q 797 426 786 217 l 846 426 q 765 96 857 217 q 482 -25 674 -25 q 256 43 354 -25 q 103 232 158 111 q 49 511 49 353 z "},"Ǫ":{"ha":1356,"x_min":44,"x_max":1311,"o":"m 889 -286 q 822 -301 871 -293 q 721 -308 774 -308 q 548 -271 614 -308 q 482 -172 482 -233 q 551 -59 482 -106 q 751 14 621 -12 l 731 -25 q 451 4 576 -32 q 234 113 325 40 q 94 289 143 185 q 44 521 44 393 q 124 808 44 685 q 345 999 203 931 q 678 1067 488 1067 q 1010 999 868 1067 q 1232 808 1153 931 q 1311 521 1311 685 q 1260 285 1311 390 q 1114 106 1208 179 q 889 0 1019 33 q 766 -43 808 -21 q 724 -87 724 -65 q 810 -124 724 -124 q 852 -121 833 -124 q 889 -114 871 -118 l 889 -286 m 406 521 q 438 399 406 450 q 532 322 471 349 q 678 294 593 294 q 824 322 763 294 q 917 399 885 349 q 950 521 950 450 q 917 642 950 592 q 824 720 885 693 q 678 747 763 747 q 532 720 593 747 q 438 642 471 693 q 406 521 406 592 z "},"Ǭ":{"ha":1356,"x_min":44,"x_max":1311,"o":"m 889 -286 q 822 -301 871 -293 q 721 -308 774 -308 q 548 -271 614 -308 q 482 -172 482 -233 q 551 -59 482 -106 q 751 14 621 -12 l 731 -25 q 451 4 576 -32 q 234 113 325 40 q 94 289 143 185 q 44 521 44 393 q 124 808 44 685 q 345 999 203 931 q 678 1067 488 1067 q 1010 999 868 1067 q 1232 808 1153 931 q 1311 521 1311 685 q 1260 285 1311 390 q 1114 106 1208 179 q 889 0 1019 33 q 766 -43 808 -21 q 724 -87 724 -65 q 810 -124 724 -124 q 852 -121 833 -124 q 889 -114 871 -118 l 889 -286 m 406 521 q 438 399 406 450 q 532 322 471 349 q 678 294 593 294 q 824 322 763 294 q 917 399 885 349 q 950 521 950 450 q 917 642 950 592 q 824 720 885 693 q 678 747 763 747 q 532 720 593 747 q 438 642 471 693 q 406 521 406 592 m 314 1135 l 314 1339 l 1042 1339 l 1042 1135 l 314 1135 z "},"Ɔ":{"ha":1318,"x_min":38,"x_max":1274,"o":"m 38 451 l 397 451 q 443 356 410 394 q 530 299 476 318 q 656 281 583 281 q 794 310 736 281 q 882 392 851 339 q 913 521 913 446 q 882 650 913 596 q 794 733 851 704 q 656 761 736 761 q 530 741 583 761 q 443 683 476 721 q 397 590 410 644 l 38 590 q 135 840 54 733 q 350 1007 217 947 q 656 1067 483 1067 q 981 999 842 1067 q 1197 808 1119 931 q 1274 521 1274 685 q 1197 234 1274 357 q 981 43 1119 111 q 656 -25 842 -25 q 350 35 483 -25 q 135 201 217 94 q 38 451 54 308 z "},"Ø":{"ha":1356,"x_min":44,"x_max":1311,"o":"m 976 1069 l 1283 1069 l 379 -28 l 72 -28 l 976 1069 m 678 -25 q 345 43 488 -25 q 124 234 203 111 q 44 521 44 357 q 124 808 44 685 q 345 999 203 931 q 678 1067 488 1067 q 937 1028 821 1067 q 1137 917 1053 989 q 1266 744 1221 844 q 1311 521 1311 644 q 1232 234 1311 357 q 1010 43 1153 111 q 678 -25 868 -25 m 678 269 q 831 299 767 269 q 929 386 894 329 q 964 521 964 443 q 929 656 964 600 q 831 742 894 713 q 678 772 767 772 q 525 742 589 772 q 426 656 461 713 q 392 521 392 600 q 426 386 392 443 q 525 299 461 329 q 678 269 589 269 z "},"Ǿ":{"ha":1356,"x_min":44,"x_max":1311,"o":"m 976 1069 l 1283 1069 l 379 -28 l 72 -28 l 976 1069 m 678 -25 q 345 43 488 -25 q 124 234 203 111 q 44 521 44 357 q 124 808 44 685 q 345 999 203 931 q 678 1067 488 1067 q 937 1028 821 1067 q 1137 917 1053 989 q 1266 744 1221 844 q 1311 521 1311 644 q 1232 234 1311 357 q 1010 43 1153 111 q 678 -25 868 -25 m 678 269 q 831 299 767 269 q 929 386 894 329 q 964 521 964 443 q 929 656 964 600 q 831 742 894 713 q 678 772 767 772 q 525 742 589 772 q 426 656 461 713 q 392 521 392 600 q 426 386 392 443 q 525 299 461 329 q 678 269 589 269 m 681 1364 l 1075 1364 l 825 1114 l 475 1114 l 681 1364 z "},"Õ":{"ha":1356,"x_min":44,"x_max":1311,"o":"m 678 -25 q 345 43 488 -25 q 124 234 203 111 q 44 521 44 357 q 124 808 44 685 q 345 999 203 931 q 678 1067 488 1067 q 1010 999 868 1067 q 1232 808 1153 931 q 1311 521 1311 685 q 1232 234 1311 357 q 1010 43 1153 111 q 678 -25 868 -25 m 678 294 q 824 322 763 294 q 917 399 885 349 q 950 521 950 450 q 917 642 950 592 q 824 720 885 693 q 678 747 763 747 q 532 720 593 747 q 438 642 471 693 q 406 521 406 592 q 438 399 406 450 q 532 322 471 349 q 678 294 593 294 m 267 1119 q 349 1313 285 1243 q 543 1383 414 1383 q 617 1374 582 1383 q 684 1353 653 1365 q 743 1333 715 1342 q 794 1324 771 1324 q 841 1336 822 1324 q 865 1374 860 1349 l 1088 1374 q 1005 1181 1069 1251 q 811 1110 940 1110 q 737 1119 772 1110 q 670 1140 701 1128 q 611 1160 639 1151 q 560 1169 583 1169 q 513 1157 532 1169 q 489 1119 494 1144 l 267 1119 z "},"Ṍ":{"ha":1356,"x_min":44,"x_max":1311,"o":"m 678 -25 q 345 43 488 -25 q 124 234 203 111 q 44 521 44 357 q 124 808 44 685 q 345 999 203 931 q 678 1067 488 1067 q 1010 999 868 1067 q 1232 808 1153 931 q 1311 521 1311 685 q 1232 234 1311 357 q 1010 43 1153 111 q 678 -25 868 -25 m 678 294 q 824 322 763 294 q 917 399 885 349 q 950 521 950 450 q 917 642 950 592 q 824 720 885 693 q 678 747 763 747 q 532 720 593 747 q 438 642 471 693 q 406 521 406 592 q 438 399 406 450 q 532 322 471 349 q 678 294 593 294 m 267 1119 q 349 1313 285 1243 q 543 1383 414 1383 q 617 1374 582 1383 q 684 1353 653 1365 q 743 1333 715 1342 q 794 1324 771 1324 q 841 1336 822 1324 q 865 1374 860 1349 l 1088 1374 q 1005 1181 1069 1251 q 811 1110 940 1110 q 737 1119 772 1110 q 670 1140 701 1128 q 611 1160 639 1151 q 560 1169 583 1169 q 513 1157 532 1169 q 489 1119 494 1144 l 267 1119 m 681 1676 l 1075 1676 l 825 1426 l 475 1426 l 681 1676 z "},"Ṏ":{"ha":1356,"x_min":44,"x_max":1311,"o":"m 678 -25 q 345 43 488 -25 q 124 234 203 111 q 44 521 44 357 q 124 808 44 685 q 345 999 203 931 q 678 1067 488 1067 q 1010 999 868 1067 q 1232 808 1153 931 q 1311 521 1311 685 q 1232 234 1311 357 q 1010 43 1153 111 q 678 -25 868 -25 m 678 294 q 824 322 763 294 q 917 399 885 349 q 950 521 950 450 q 917 642 950 592 q 824 720 885 693 q 678 747 763 747 q 532 720 593 747 q 438 642 471 693 q 406 521 406 592 q 438 399 406 450 q 532 322 471 349 q 678 294 593 294 m 267 1119 q 349 1313 285 1243 q 543 1383 414 1383 q 617 1374 582 1383 q 684 1353 653 1365 q 743 1333 715 1342 q 794 1324 771 1324 q 841 1336 822 1324 q 865 1374 860 1349 l 1088 1374 q 1005 1181 1069 1251 q 811 1110 940 1110 q 737 1119 772 1110 q 670 1140 701 1128 q 611 1160 639 1151 q 560 1169 583 1169 q 513 1157 532 1169 q 489 1119 494 1144 l 267 1119 m 456 1413 q 323 1453 372 1413 q 274 1567 274 1493 q 323 1676 274 1636 q 456 1715 372 1715 q 588 1676 539 1715 q 638 1567 638 1636 q 588 1453 638 1493 q 456 1413 539 1413 m 900 1413 q 767 1453 817 1413 q 718 1567 718 1493 q 767 1676 718 1636 q 900 1715 817 1715 q 1033 1676 983 1715 q 1082 1567 1082 1636 q 1033 1453 1082 1493 q 900 1413 983 1413 z "},"Ȭ":{"ha":1356,"x_min":44,"x_max":1311,"o":"m 678 -25 q 345 43 488 -25 q 124 234 203 111 q 44 521 44 357 q 124 808 44 685 q 345 999 203 931 q 678 1067 488 1067 q 1010 999 868 1067 q 1232 808 1153 931 q 1311 521 1311 685 q 1232 234 1311 357 q 1010 43 1153 111 q 678 -25 868 -25 m 678 294 q 824 322 763 294 q 917 399 885 349 q 950 521 950 450 q 917 642 950 592 q 824 720 885 693 q 678 747 763 747 q 532 720 593 747 q 438 642 471 693 q 406 521 406 592 q 438 399 406 450 q 532 322 471 349 q 678 294 593 294 m 267 1119 q 349 1313 285 1243 q 543 1383 414 1383 q 617 1374 582 1383 q 684 1353 653 1365 q 743 1333 715 1342 q 794 1324 771 1324 q 841 1336 822 1324 q 865 1374 860 1349 l 1088 1374 q 1005 1181 1069 1251 q 811 1110 940 1110 q 737 1119 772 1110 q 670 1140 701 1128 q 611 1160 639 1151 q 560 1169 583 1169 q 513 1157 532 1169 q 489 1119 494 1144 l 267 1119 m 314 1447 l 314 1651 l 1042 1651 l 1042 1447 l 314 1447 z "},"Œ":{"ha":1842,"x_min":44,"x_max":1778,"o":"m 678 0 q 345 65 488 0 q 124 247 203 129 q 44 521 44 364 q 124 796 44 679 q 345 977 203 913 q 678 1042 488 1042 l 1771 1042 l 1771 758 l 1193 758 l 1193 644 l 1726 644 l 1726 397 l 1193 397 l 1193 283 l 1778 283 l 1778 0 l 678 0 m 650 319 l 849 319 l 849 722 l 650 722 q 519 698 574 722 q 435 629 464 674 q 406 521 406 585 q 435 413 406 458 q 519 344 464 368 q 650 319 574 319 z "},"P":{"ha":1163,"x_min":83,"x_max":1139,"o":"m 690 1042 q 933 995 832 1042 q 1086 863 1033 949 q 1139 663 1139 778 q 1086 462 1139 547 q 933 330 1033 376 q 690 283 832 283 l 250 283 l 250 563 l 667 563 q 749 589 719 563 q 778 663 778 615 q 749 737 778 711 q 667 763 719 763 l 281 763 l 442 924 l 442 0 l 83 0 l 83 1042 l 690 1042 z "},"Ṕ":{"ha":1163,"x_min":83,"x_max":1139,"o":"m 690 1042 q 933 995 832 1042 q 1086 863 1033 949 q 1139 663 1139 778 q 1086 462 1139 547 q 933 330 1033 376 q 690 283 832 283 l 250 283 l 250 563 l 667 563 q 749 589 719 563 q 778 663 778 615 q 749 737 778 711 q 667 763 719 763 l 281 763 l 442 924 l 442 0 l 83 0 l 83 1042 l 690 1042 m 588 1364 l 982 1364 l 732 1114 l 382 1114 l 588 1364 z "},"Ṗ":{"ha":1163,"x_min":83,"x_max":1139,"o":"m 690 1042 q 933 995 832 1042 q 1086 863 1033 949 q 1139 663 1139 778 q 1086 462 1139 547 q 933 330 1033 376 q 690 283 832 283 l 250 283 l 250 563 l 667 563 q 749 589 719 563 q 778 663 778 615 q 749 737 778 711 q 667 763 719 763 l 281 763 l 442 924 l 442 0 l 83 0 l 83 1042 l 690 1042 m 585 1100 q 442 1143 496 1100 q 388 1261 388 1186 q 442 1379 388 1336 q 585 1422 496 1422 q 728 1379 675 1422 q 782 1261 782 1336 q 728 1143 782 1186 q 585 1100 675 1100 z "},"Ƥ":{"ha":1524,"x_min":21,"x_max":1500,"o":"m 344 1042 l 1051 1042 q 1294 995 1193 1042 q 1447 863 1394 949 q 1500 663 1500 778 q 1447 462 1500 547 q 1294 330 1394 376 q 1051 283 1193 283 l 611 283 l 611 563 l 1028 563 q 1110 589 1081 563 q 1139 663 1139 615 q 1110 737 1139 711 q 1028 763 1081 763 l 642 763 l 803 924 l 803 0 l 444 0 l 444 881 l 600 743 l 410 743 q 343 724 365 743 q 321 656 321 704 q 326 594 321 625 q 338 547 332 564 l 81 547 q 40 646 58 592 q 21 771 21 700 q 97 968 21 894 q 344 1042 172 1042 z "},"Þ":{"ha":1186,"x_min":83,"x_max":1139,"o":"m 83 1042 l 442 1042 l 442 0 l 83 0 l 83 1042 m 690 147 l 317 147 l 317 421 l 667 421 q 749 448 719 421 q 778 526 778 475 q 749 605 778 578 q 667 632 719 632 l 318 632 l 318 906 l 690 906 q 933 859 832 906 q 1086 727 1033 813 q 1139 526 1139 642 q 1086 326 1139 411 q 933 194 1033 240 q 690 147 832 147 z "},"Ᵽ":{"ha":1219,"x_min":28,"x_max":1194,"o":"m 28 743 l 688 743 l 688 554 l 28 554 l 28 743 m 746 1042 q 988 993 888 1042 q 1142 856 1089 944 q 1194 649 1194 768 q 1142 441 1194 529 q 988 304 1089 353 q 746 256 888 256 l 306 256 l 306 535 l 722 535 q 804 565 775 535 q 833 649 833 594 q 804 733 833 703 q 722 763 775 763 l 336 763 l 497 924 l 497 0 l 139 0 l 139 1042 l 746 1042 z "},"Q":{"ha":1357,"x_min":44,"x_max":1338,"o":"m 467 442 l 890 442 l 1338 -82 l 903 -82 l 467 442 m 678 -25 q 345 43 488 -25 q 124 234 203 111 q 44 521 44 357 q 124 808 44 685 q 345 999 203 931 q 678 1067 488 1067 q 1010 999 868 1067 q 1232 808 1153 931 q 1311 521 1311 685 q 1232 234 1311 357 q 1010 43 1153 111 q 678 -25 868 -25 m 678 294 q 824 322 763 294 q 917 399 885 349 q 950 521 950 450 q 917 642 950 592 q 824 720 885 693 q 678 747 763 747 q 532 720 593 747 q 438 642 471 693 q 406 521 406 592 q 438 399 406 450 q 532 322 471 349 q 678 294 593 294 z "},"Ɋ":{"ha":1371,"x_min":49,"x_max":1513,"o":"m 1396 14 q 1459 19 1429 14 q 1513 32 1489 25 l 1513 -214 q 1412 -244 1468 -235 q 1306 -254 1356 -254 q 1025 -158 1113 -254 q 938 125 938 -61 l 938 369 l 989 521 l 938 668 l 938 1042 l 1288 1042 l 1288 146 q 1310 49 1288 83 q 1396 14 1332 14 m 1058 521 q 974 234 1042 357 q 800 43 907 111 q 554 -25 693 -25 q 289 43 403 -25 q 112 234 175 111 q 49 521 49 357 q 112 808 49 685 q 289 999 175 931 q 554 1067 403 1067 q 801 1000 693 1067 q 976 811 908 933 q 1058 521 1043 689 m 410 521 q 440 403 410 456 q 526 322 471 351 q 651 292 581 292 q 775 322 715 292 q 880 403 835 351 q 943 521 925 456 q 880 639 925 588 q 775 720 835 690 q 651 750 715 750 q 526 720 581 750 q 440 639 471 690 q 410 521 410 588 z "},"R":{"ha":1217,"x_min":83,"x_max":1194,"o":"m 331 596 l 681 596 q 763 621 733 596 q 792 693 792 646 q 763 765 792 740 q 681 790 733 790 l 281 790 l 442 951 l 442 0 l 83 0 l 83 1042 l 736 1042 q 955 998 861 1042 q 1101 876 1049 954 q 1153 693 1153 799 q 1101 512 1153 590 q 955 390 1049 433 q 736 347 861 347 l 331 347 l 331 596 m 453 488 l 849 488 l 1194 0 l 785 0 l 453 488 z "},"Ŕ":{"ha":1217,"x_min":83,"x_max":1194,"o":"m 331 596 l 681 596 q 763 621 733 596 q 792 693 792 646 q 763 765 792 740 q 681 790 733 790 l 281 790 l 442 951 l 442 0 l 83 0 l 83 1042 l 736 1042 q 955 998 861 1042 q 1101 876 1049 954 q 1153 693 1153 799 q 1101 512 1153 590 q 955 390 1049 433 q 736 347 861 347 l 331 347 l 331 596 m 453 488 l 849 488 l 1194 0 l 785 0 l 453 488 m 586 1364 l 981 1364 l 731 1114 l 381 1114 l 586 1364 z "},"Ř":{"ha":1217,"x_min":83,"x_max":1194,"o":"m 331 596 l 681 596 q 763 621 733 596 q 792 693 792 646 q 763 765 792 740 q 681 790 733 790 l 281 790 l 442 951 l 442 0 l 83 0 l 83 1042 l 736 1042 q 955 998 861 1042 q 1101 876 1049 954 q 1153 693 1153 799 q 1101 512 1153 590 q 955 390 1049 433 q 736 347 861 347 l 331 347 l 331 596 m 453 488 l 849 488 l 1194 0 l 785 0 l 453 488 m 765 1113 l 401 1113 l 186 1363 l 464 1363 l 667 1218 l 500 1218 l 703 1363 l 981 1363 l 765 1113 z "},"Ŗ":{"ha":1217,"x_min":83,"x_max":1194,"o":"m 331 596 l 681 596 q 763 621 733 596 q 792 693 792 646 q 763 765 792 740 q 681 790 733 790 l 281 790 l 442 951 l 442 0 l 83 0 l 83 1042 l 736 1042 q 955 998 861 1042 q 1101 876 1049 954 q 1153 693 1153 799 q 1101 512 1153 590 q 955 390 1049 433 q 736 347 861 347 l 331 347 l 331 596 m 453 488 l 849 488 l 1194 0 l 785 0 l 453 488 m 436 -471 l 592 -233 l 606 -329 q 474 -293 524 -329 q 425 -193 425 -257 q 474 -94 425 -129 q 606 -58 524 -58 q 736 -94 688 -58 q 785 -194 785 -129 q 760 -275 785 -237 q 686 -369 736 -312 l 597 -471 l 436 -471 z "},"Ȑ":{"ha":1217,"x_min":25,"x_max":1194,"o":"m 331 596 l 681 596 q 763 621 733 596 q 792 693 792 646 q 763 765 792 740 q 681 790 733 790 l 281 790 l 442 951 l 442 0 l 83 0 l 83 1042 l 736 1042 q 955 998 861 1042 q 1101 876 1049 954 q 1153 693 1153 799 q 1101 512 1153 590 q 955 390 1049 433 q 736 347 861 347 l 331 347 l 331 596 m 453 488 l 849 488 l 1194 0 l 785 0 l 453 488 m 763 1364 l 936 1114 l 635 1114 l 431 1364 l 763 1364 m 357 1364 l 531 1114 l 229 1114 l 25 1364 l 357 1364 z "},"Ṙ":{"ha":1217,"x_min":83,"x_max":1194,"o":"m 331 596 l 681 596 q 763 621 733 596 q 792 693 792 646 q 763 765 792 740 q 681 790 733 790 l 281 790 l 442 951 l 442 0 l 83 0 l 83 1042 l 736 1042 q 955 998 861 1042 q 1101 876 1049 954 q 1153 693 1153 799 q 1101 512 1153 590 q 955 390 1049 433 q 736 347 861 347 l 331 347 l 331 596 m 453 488 l 849 488 l 1194 0 l 785 0 l 453 488 m 583 1100 q 440 1143 494 1100 q 386 1261 386 1186 q 440 1379 386 1336 q 583 1422 494 1422 q 727 1379 674 1422 q 781 1261 781 1336 q 727 1143 781 1186 q 583 1100 674 1100 z "},"Ṛ":{"ha":1217,"x_min":83,"x_max":1194,"o":"m 331 596 l 681 596 q 763 621 733 596 q 792 693 792 646 q 763 765 792 740 q 681 790 733 790 l 281 790 l 442 951 l 442 0 l 83 0 l 83 1042 l 736 1042 q 955 998 861 1042 q 1101 876 1049 954 q 1153 693 1153 799 q 1101 512 1153 590 q 955 390 1049 433 q 736 347 861 347 l 331 347 l 331 596 m 453 488 l 849 488 l 1194 0 l 785 0 l 453 488 m 606 -381 q 463 -337 517 -381 q 408 -219 408 -294 q 463 -101 408 -144 q 606 -58 517 -58 q 749 -101 696 -58 q 803 -219 803 -144 q 749 -337 803 -294 q 606 -381 696 -381 z "},"Ṝ":{"ha":1217,"x_min":83,"x_max":1194,"o":"m 331 596 l 681 596 q 763 621 733 596 q 792 693 792 646 q 763 765 792 740 q 681 790 733 790 l 281 790 l 442 951 l 442 0 l 83 0 l 83 1042 l 736 1042 q 955 998 861 1042 q 1101 876 1049 954 q 1153 693 1153 799 q 1101 512 1153 590 q 955 390 1049 433 q 736 347 861 347 l 331 347 l 331 596 m 453 488 l 849 488 l 1194 0 l 785 0 l 453 488 m 606 -381 q 463 -337 517 -381 q 408 -219 408 -294 q 463 -101 408 -144 q 606 -58 517 -58 q 749 -101 696 -58 q 803 -219 803 -144 q 749 -337 803 -294 q 606 -381 696 -381 m 219 1135 l 219 1339 l 947 1339 l 947 1135 l 219 1135 z "},"Ȓ":{"ha":1217,"x_min":83,"x_max":1194,"o":"m 331 596 l 681 596 q 763 621 733 596 q 792 693 792 646 q 763 765 792 740 q 681 790 733 790 l 281 790 l 442 951 l 442 0 l 83 0 l 83 1042 l 736 1042 q 955 998 861 1042 q 1101 876 1049 954 q 1153 693 1153 799 q 1101 512 1153 590 q 955 390 1049 433 q 736 347 861 347 l 331 347 l 331 596 m 453 488 l 849 488 l 1194 0 l 785 0 l 453 488 m 972 1106 l 708 1106 q 656 1151 686 1136 q 583 1167 625 1167 q 511 1151 542 1167 q 458 1106 481 1136 l 194 1106 q 338 1310 235 1244 q 583 1376 440 1376 q 831 1310 728 1376 q 972 1106 933 1244 z "},"Ṟ":{"ha":1217,"x_min":83,"x_max":1194,"o":"m 331 596 l 681 596 q 763 621 733 596 q 792 693 792 646 q 763 765 792 740 q 681 790 733 790 l 281 790 l 442 951 l 442 0 l 83 0 l 83 1042 l 736 1042 q 955 998 861 1042 q 1101 876 1049 954 q 1153 693 1153 799 q 1101 512 1153 590 q 955 390 1049 433 q 736 347 861 347 l 331 347 l 331 596 m 453 488 l 849 488 l 1194 0 l 785 0 l 453 488 m 268 -292 l 268 -87 l 996 -87 l 996 -292 l 268 -292 z "},"Ɍ":{"ha":1278,"x_min":33,"x_max":1256,"o":"m 33 594 l 471 594 l 471 358 l 33 358 l 33 594 m 392 596 l 742 596 q 824 621 794 596 q 853 693 853 646 q 824 765 853 740 q 742 790 794 790 l 342 790 l 503 951 l 503 0 l 144 0 l 144 1042 l 797 1042 q 1016 998 922 1042 q 1162 876 1110 954 q 1214 693 1214 799 q 1162 512 1214 590 q 1016 390 1110 433 q 797 347 922 347 l 392 347 l 392 596 m 514 488 l 910 488 l 1256 0 l 846 0 l 514 488 z "},"Ɽ":{"ha":1217,"x_min":83,"x_max":1194,"o":"m 453 488 l 849 488 l 1194 0 l 785 0 l 453 488 m 83 1042 l 736 1042 q 955 998 861 1042 q 1101 876 1049 954 q 1153 693 1153 799 q 1101 512 1153 590 q 955 390 1049 433 q 736 347 861 347 l 442 347 l 442 146 q 464 49 442 83 q 550 14 486 14 q 613 19 583 14 q 667 32 643 25 l 667 -228 q 566 -248 622 -242 q 460 -254 510 -254 q 175 -158 267 -254 q 83 125 83 -61 l 83 1042 m 442 596 l 681 596 q 763 621 733 596 q 792 693 792 646 q 763 765 792 740 q 681 790 733 790 l 442 790 l 442 596 z "},"S":{"ha":1208,"x_min":49,"x_max":1165,"o":"m 49 343 l 413 343 q 444 291 418 313 q 517 258 471 269 q 626 246 563 246 q 756 263 710 246 q 803 317 803 279 q 776 359 803 342 q 668 382 750 376 l 496 393 q 157 493 261 408 q 53 717 53 578 q 119 911 53 833 q 306 1028 186 989 q 588 1067 426 1067 q 866 1023 744 1067 q 1059 900 988 979 q 1138 715 1131 821 l 774 715 q 747 758 769 740 q 682 786 724 776 q 581 796 640 796 q 460 781 504 796 q 417 731 417 765 q 442 690 417 707 q 542 668 468 674 l 736 656 q 983 610 889 646 q 1122 513 1078 575 q 1165 358 1165 450 q 1097 157 1165 243 q 906 23 1029 71 q 619 -25 783 -25 q 322 21 450 -25 q 123 150 194 67 q 49 343 51 233 z "},"Ś":{"ha":1208,"x_min":49,"x_max":1165,"o":"m 49 343 l 413 343 q 444 291 418 313 q 517 258 471 269 q 626 246 563 246 q 756 263 710 246 q 803 317 803 279 q 776 359 803 342 q 668 382 750 376 l 496 393 q 157 493 261 408 q 53 717 53 578 q 119 911 53 833 q 306 1028 186 989 q 588 1067 426 1067 q 866 1023 744 1067 q 1059 900 988 979 q 1138 715 1131 821 l 774 715 q 747 758 769 740 q 682 786 724 776 q 581 796 640 796 q 460 781 504 796 q 417 731 417 765 q 442 690 417 707 q 542 668 468 674 l 736 656 q 983 610 889 646 q 1122 513 1078 575 q 1165 358 1165 450 q 1097 157 1165 243 q 906 23 1029 71 q 619 -25 783 -25 q 322 21 450 -25 q 123 150 194 67 q 49 343 51 233 m 607 1364 l 1001 1364 l 751 1114 l 401 1114 l 607 1364 z "},"Ṥ":{"ha":1208,"x_min":49,"x_max":1165,"o":"m 49 343 l 413 343 q 444 291 418 313 q 517 258 471 269 q 626 246 563 246 q 756 263 710 246 q 803 317 803 279 q 776 359 803 342 q 668 382 750 376 l 496 393 q 157 493 261 408 q 53 717 53 578 q 119 911 53 833 q 306 1028 186 989 q 588 1067 426 1067 q 866 1023 744 1067 q 1059 900 988 979 q 1138 715 1131 821 l 774 715 q 747 758 769 740 q 682 786 724 776 q 581 796 640 796 q 460 781 504 796 q 417 731 417 765 q 442 690 417 707 q 542 668 468 674 l 736 656 q 983 610 889 646 q 1122 513 1078 575 q 1165 358 1165 450 q 1097 157 1165 243 q 906 23 1029 71 q 619 -25 783 -25 q 322 21 450 -25 q 123 150 194 67 q 49 343 51 233 m 607 1364 l 1001 1364 l 751 1114 l 401 1114 l 607 1364 m 632 1408 q 489 1451 543 1408 q 435 1569 435 1494 q 489 1688 435 1644 q 632 1731 543 1731 q 776 1688 722 1731 q 829 1569 829 1644 q 776 1451 829 1494 q 632 1408 722 1408 z "},"Ꞌ":{"ha":469,"x_min":53,"x_max":417,"o":"m 53 1042 l 417 1042 l 360 361 l 110 361 l 53 1042 z "},"Š":{"ha":1208,"x_min":49,"x_max":1165,"o":"m 49 343 l 413 343 q 444 291 418 313 q 517 258 471 269 q 626 246 563 246 q 756 263 710 246 q 803 317 803 279 q 776 359 803 342 q 668 382 750 376 l 496 393 q 157 493 261 408 q 53 717 53 578 q 119 911 53 833 q 306 1028 186 989 q 588 1067 426 1067 q 866 1023 744 1067 q 1059 900 988 979 q 1138 715 1131 821 l 774 715 q 747 758 769 740 q 682 786 724 776 q 581 796 640 796 q 460 781 504 796 q 417 731 417 765 q 442 690 417 707 q 542 668 468 674 l 736 656 q 983 610 889 646 q 1122 513 1078 575 q 1165 358 1165 450 q 1097 157 1165 243 q 906 23 1029 71 q 619 -25 783 -25 q 322 21 450 -25 q 123 150 194 67 q 49 343 51 233 m 786 1113 l 422 1113 l 207 1363 l 485 1363 l 688 1218 l 521 1218 l 724 1363 l 1001 1363 l 786 1113 z "},"Ṧ":{"ha":1208,"x_min":49,"x_max":1165,"o":"m 49 343 l 413 343 q 444 291 418 313 q 517 258 471 269 q 626 246 563 246 q 756 263 710 246 q 803 317 803 279 q 776 359 803 342 q 668 382 750 376 l 496 393 q 157 493 261 408 q 53 717 53 578 q 119 911 53 833 q 306 1028 186 989 q 588 1067 426 1067 q 866 1023 744 1067 q 1059 900 988 979 q 1138 715 1131 821 l 774 715 q 747 758 769 740 q 682 786 724 776 q 581 796 640 796 q 460 781 504 796 q 417 731 417 765 q 442 690 417 707 q 542 668 468 674 l 736 656 q 983 610 889 646 q 1122 513 1078 575 q 1165 358 1165 450 q 1097 157 1165 243 q 906 23 1029 71 q 619 -25 783 -25 q 322 21 450 -25 q 123 150 194 67 q 49 343 51 233 m 786 1113 l 422 1113 l 207 1363 l 485 1363 l 688 1218 l 521 1218 l 724 1363 l 1001 1363 l 786 1113 m 604 1408 q 461 1451 515 1408 q 407 1569 407 1494 q 461 1688 407 1644 q 604 1731 515 1731 q 748 1688 694 1731 q 801 1569 801 1644 q 748 1451 801 1494 q 604 1408 694 1408 z "},"Ş":{"ha":1208,"x_min":49,"x_max":1165,"o":"m 49 343 l 413 343 q 444 291 418 313 q 517 258 471 269 q 626 246 563 246 q 756 263 710 246 q 803 317 803 279 q 776 359 803 342 q 668 382 750 376 l 496 393 q 157 493 261 408 q 53 717 53 578 q 119 911 53 833 q 306 1028 186 989 q 588 1067 426 1067 q 866 1023 744 1067 q 1059 900 988 979 q 1138 715 1131 821 l 774 715 q 747 758 769 740 q 682 786 724 776 q 581 796 640 796 q 460 781 504 796 q 417 731 417 765 q 442 690 417 707 q 542 668 468 674 l 736 656 q 983 610 889 646 q 1122 513 1078 575 q 1165 358 1165 450 q 1097 157 1165 243 q 906 23 1029 71 q 619 -25 783 -25 q 322 21 450 -25 q 123 150 194 67 q 49 343 51 233 m 538 35 l 697 35 l 626 -94 l 539 -89 q 620 -62 578 -72 q 708 -51 663 -51 q 871 -90 815 -51 q 926 -197 926 -128 q 853 -317 926 -269 q 633 -365 779 -365 q 425 -322 507 -365 q 321 -199 343 -278 l 539 -199 q 568 -221 546 -211 q 633 -231 590 -231 q 698 -219 676 -231 q 719 -189 719 -207 q 702 -160 719 -172 q 647 -149 685 -149 q 609 -151 629 -149 q 572 -160 589 -153 l 410 -160 l 538 35 z "},"Ŝ":{"ha":1208,"x_min":49,"x_max":1165,"o":"m 49 343 l 413 343 q 444 291 418 313 q 517 258 471 269 q 626 246 563 246 q 756 263 710 246 q 803 317 803 279 q 776 359 803 342 q 668 382 750 376 l 496 393 q 157 493 261 408 q 53 717 53 578 q 119 911 53 833 q 306 1028 186 989 q 588 1067 426 1067 q 866 1023 744 1067 q 1059 900 988 979 q 1138 715 1131 821 l 774 715 q 747 758 769 740 q 682 786 724 776 q 581 796 640 796 q 460 781 504 796 q 417 731 417 765 q 442 690 417 707 q 542 668 468 674 l 736 656 q 983 610 889 646 q 1122 513 1078 575 q 1165 358 1165 450 q 1097 157 1165 243 q 906 23 1029 71 q 619 -25 783 -25 q 322 21 450 -25 q 123 150 194 67 q 49 343 51 233 m 422 1364 l 786 1364 l 1001 1114 l 724 1114 l 521 1258 l 688 1258 l 485 1114 l 207 1114 l 422 1364 z "},"Ș":{"ha":1208,"x_min":49,"x_max":1165,"o":"m 49 343 l 413 343 q 444 291 418 313 q 517 258 471 269 q 626 246 563 246 q 756 263 710 246 q 803 317 803 279 q 776 359 803 342 q 668 382 750 376 l 496 393 q 157 493 261 408 q 53 717 53 578 q 119 911 53 833 q 306 1028 186 989 q 588 1067 426 1067 q 866 1023 744 1067 q 1059 900 988 979 q 1138 715 1131 821 l 774 715 q 747 758 769 740 q 682 786 724 776 q 581 796 640 796 q 460 781 504 796 q 417 731 417 765 q 442 690 417 707 q 542 668 468 674 l 736 656 q 983 610 889 646 q 1122 513 1078 575 q 1165 358 1165 450 q 1097 157 1165 243 q 906 23 1029 71 q 619 -25 783 -25 q 322 21 450 -25 q 123 150 194 67 q 49 343 51 233 m 435 -471 l 590 -233 l 604 -329 q 473 -293 522 -329 q 424 -193 424 -257 q 473 -94 424 -129 q 604 -58 522 -58 q 735 -94 686 -58 q 783 -194 783 -129 q 759 -275 783 -237 q 685 -369 735 -312 l 596 -471 l 435 -471 z "},"Ṡ":{"ha":1208,"x_min":49,"x_max":1165,"o":"m 49 343 l 413 343 q 444 291 418 313 q 517 258 471 269 q 626 246 563 246 q 756 263 710 246 q 803 317 803 279 q 776 359 803 342 q 668 382 750 376 l 496 393 q 157 493 261 408 q 53 717 53 578 q 119 911 53 833 q 306 1028 186 989 q 588 1067 426 1067 q 866 1023 744 1067 q 1059 900 988 979 q 1138 715 1131 821 l 774 715 q 747 758 769 740 q 682 786 724 776 q 581 796 640 796 q 460 781 504 796 q 417 731 417 765 q 442 690 417 707 q 542 668 468 674 l 736 656 q 983 610 889 646 q 1122 513 1078 575 q 1165 358 1165 450 q 1097 157 1165 243 q 906 23 1029 71 q 619 -25 783 -25 q 322 21 450 -25 q 123 150 194 67 q 49 343 51 233 m 604 1100 q 461 1143 515 1100 q 407 1261 407 1186 q 461 1379 407 1336 q 604 1422 515 1422 q 748 1379 694 1422 q 801 1261 801 1336 q 748 1143 801 1186 q 604 1100 694 1100 z "},"Ṣ":{"ha":1208,"x_min":49,"x_max":1165,"o":"m 49 343 l 413 343 q 444 291 418 313 q 517 258 471 269 q 626 246 563 246 q 756 263 710 246 q 803 317 803 279 q 776 359 803 342 q 668 382 750 376 l 496 393 q 157 493 261 408 q 53 717 53 578 q 119 911 53 833 q 306 1028 186 989 q 588 1067 426 1067 q 866 1023 744 1067 q 1059 900 988 979 q 1138 715 1131 821 l 774 715 q 747 758 769 740 q 682 786 724 776 q 581 796 640 796 q 460 781 504 796 q 417 731 417 765 q 442 690 417 707 q 542 668 468 674 l 736 656 q 983 610 889 646 q 1122 513 1078 575 q 1165 358 1165 450 q 1097 157 1165 243 q 906 23 1029 71 q 619 -25 783 -25 q 322 21 450 -25 q 123 150 194 67 q 49 343 51 233 m 604 -381 q 461 -337 515 -381 q 407 -219 407 -294 q 461 -101 407 -144 q 604 -58 515 -58 q 748 -101 694 -58 q 801 -219 801 -144 q 748 -337 801 -294 q 604 -381 694 -381 z "},"Ṩ":{"ha":1208,"x_min":49,"x_max":1165,"o":"m 49 343 l 413 343 q 444 291 418 313 q 517 258 471 269 q 626 246 563 246 q 756 263 710 246 q 803 317 803 279 q 776 359 803 342 q 668 382 750 376 l 496 393 q 157 493 261 408 q 53 717 53 578 q 119 911 53 833 q 306 1028 186 989 q 588 1067 426 1067 q 866 1023 744 1067 q 1059 900 988 979 q 1138 715 1131 821 l 774 715 q 747 758 769 740 q 682 786 724 776 q 581 796 640 796 q 460 781 504 796 q 417 731 417 765 q 442 690 417 707 q 542 668 468 674 l 736 656 q 983 610 889 646 q 1122 513 1078 575 q 1165 358 1165 450 q 1097 157 1165 243 q 906 23 1029 71 q 619 -25 783 -25 q 322 21 450 -25 q 123 150 194 67 q 49 343 51 233 m 604 -381 q 461 -337 515 -381 q 407 -219 407 -294 q 461 -101 407 -144 q 604 -58 515 -58 q 748 -101 694 -58 q 801 -219 801 -144 q 748 -337 801 -294 q 604 -381 694 -381 m 604 1100 q 461 1143 515 1100 q 407 1261 407 1186 q 461 1379 407 1336 q 604 1422 515 1422 q 748 1379 694 1422 q 801 1261 801 1336 q 748 1143 801 1186 q 604 1100 694 1100 z "},"ẞ":{"ha":1319,"x_min":69,"x_max":1278,"o":"m 818 -25 q 703 -19 754 -25 q 603 -2 651 -14 q 499 26 556 10 l 499 281 q 653 237 593 250 q 774 224 713 224 q 856 232 822 224 q 906 259 889 240 q 922 307 922 278 q 905 349 922 333 q 841 376 888 365 q 704 396 794 386 l 631 404 l 631 625 l 997 907 l 997 746 q 822 783 903 774 q 678 792 740 792 q 484 738 543 792 q 425 571 425 685 l 425 0 l 69 0 l 69 557 q 137 840 69 726 q 340 1010 204 953 q 678 1067 475 1067 q 959 1042 824 1067 q 1189 979 1094 1017 l 1189 754 l 871 522 l 739 625 l 826 617 q 1051 578 963 604 q 1188 515 1139 553 q 1258 426 1238 476 q 1278 315 1278 376 q 1220 126 1278 201 q 1059 13 1163 50 q 818 -25 956 -25 z "},"T":{"ha":1167,"x_min":29,"x_max":1138,"o":"m 404 888 l 763 888 l 763 0 l 404 0 l 404 888 m 29 1042 l 1138 1042 l 1138 722 l 29 722 l 29 1042 z "},"Ŧ":{"ha":1181,"x_min":36,"x_max":1144,"o":"m 164 551 l 1017 551 l 1017 315 l 164 315 l 164 551 m 411 888 l 769 888 l 769 0 l 411 0 l 411 888 m 36 1042 l 1144 1042 l 1144 722 l 36 722 l 36 1042 z "},"Ť":{"ha":1167,"x_min":29,"x_max":1138,"o":"m 404 888 l 763 888 l 763 0 l 404 0 l 404 888 m 29 1042 l 1138 1042 l 1138 722 l 29 722 l 29 1042 m 765 1113 l 401 1113 l 186 1363 l 464 1363 l 667 1218 l 500 1218 l 703 1363 l 981 1363 l 765 1113 z "},"Ţ":{"ha":1167,"x_min":29,"x_max":1138,"o":"m 404 888 l 763 888 l 763 0 l 404 0 l 404 888 m 29 1042 l 1138 1042 l 1138 722 l 29 722 l 29 1042 m 517 35 l 676 35 l 606 -94 l 518 -89 q 599 -62 557 -72 q 688 -51 642 -51 q 850 -90 794 -51 q 906 -197 906 -128 q 832 -317 906 -269 q 613 -365 758 -365 q 404 -322 486 -365 q 300 -199 322 -278 l 518 -199 q 547 -221 525 -211 q 613 -231 569 -231 q 677 -219 656 -231 q 699 -189 699 -207 q 681 -160 699 -172 q 626 -149 664 -149 q 588 -151 608 -149 q 551 -160 568 -153 l 389 -160 l 517 35 z "},"Ṱ":{"ha":1167,"x_min":29,"x_max":1138,"o":"m 404 888 l 763 888 l 763 0 l 404 0 l 404 888 m 29 1042 l 1138 1042 l 1138 722 l 29 722 l 29 1042 m 406 -58 l 761 -58 l 960 -336 l 689 -336 l 500 -136 l 667 -136 l 478 -336 l 207 -336 l 406 -58 z "},"Ț":{"ha":1167,"x_min":29,"x_max":1138,"o":"m 404 888 l 763 888 l 763 0 l 404 0 l 404 888 m 29 1042 l 1138 1042 l 1138 722 l 29 722 l 29 1042 m 414 -471 l 569 -233 l 583 -329 q 452 -293 501 -329 q 403 -193 403 -257 q 452 -94 403 -129 q 583 -58 501 -58 q 714 -94 665 -58 q 763 -194 763 -129 q 738 -275 763 -237 q 664 -369 714 -312 l 575 -471 l 414 -471 z "},"Ⱦ":{"ha":1197,"x_min":29,"x_max":1319,"o":"m 1033 1211 l 1319 1211 l 478 -169 l 192 -169 l 1033 1211 m 404 888 l 763 888 l 763 0 l 404 0 l 404 888 m 29 1042 l 1138 1042 l 1138 722 l 29 722 l 29 1042 z "},"Ṫ":{"ha":1167,"x_min":29,"x_max":1138,"o":"m 404 888 l 763 888 l 763 0 l 404 0 l 404 888 m 29 1042 l 1138 1042 l 1138 722 l 29 722 l 29 1042 m 583 1100 q 440 1143 494 1100 q 386 1261 386 1186 q 440 1379 386 1336 q 583 1422 494 1422 q 727 1379 674 1422 q 781 1261 781 1336 q 727 1143 781 1186 q 583 1100 674 1100 z "},"Ṭ":{"ha":1167,"x_min":29,"x_max":1138,"o":"m 404 888 l 763 888 l 763 0 l 404 0 l 404 888 m 29 1042 l 1138 1042 l 1138 722 l 29 722 l 29 1042 m 583 -381 q 440 -337 494 -381 q 386 -219 386 -294 q 440 -101 386 -144 q 583 -58 494 -58 q 727 -101 674 -58 q 781 -219 781 -144 q 727 -337 781 -294 q 583 -381 674 -381 z "},"Ƭ":{"ha":1308,"x_min":21,"x_max":1279,"o":"m 546 888 l 904 888 l 904 0 l 546 0 l 546 888 m 1279 1042 l 1279 722 l 419 722 q 344 701 368 722 q 321 639 321 681 q 326 588 321 613 q 338 547 332 563 l 81 547 q 40 646 58 592 q 21 771 21 700 q 97 968 21 894 q 344 1042 172 1042 l 1279 1042 z "},"Ṯ":{"ha":1167,"x_min":29,"x_max":1138,"o":"m 404 888 l 763 888 l 763 0 l 404 0 l 404 888 m 29 1042 l 1138 1042 l 1138 722 l 29 722 l 29 1042 m 246 -292 l 246 -87 l 974 -87 l 974 -292 l 246 -292 z "},"Ʈ":{"ha":1172,"x_min":29,"x_max":1138,"o":"m 29 1042 l 1138 1042 l 1138 722 l 29 722 l 29 1042 m 871 14 q 934 19 904 14 q 988 32 964 25 l 988 -228 q 887 -248 943 -242 q 781 -254 831 -254 q 496 -158 588 -254 q 404 125 404 -61 l 404 888 l 763 888 l 763 146 q 785 49 763 83 q 871 14 807 14 z "},"U":{"ha":1235,"x_min":69,"x_max":1164,"o":"m 428 478 q 448 380 428 421 q 510 317 468 339 q 617 294 551 294 q 725 316 683 294 q 786 379 767 338 q 806 478 806 421 l 806 1042 l 1164 1042 l 1164 458 q 1096 204 1164 313 q 905 35 1028 96 q 617 -25 782 -25 q 330 35 453 -25 q 138 204 207 96 q 69 458 69 313 l 69 1042 l 428 1042 l 428 478 z "},"Ú":{"ha":1235,"x_min":69,"x_max":1164,"o":"m 428 478 q 448 380 428 421 q 510 317 468 339 q 617 294 551 294 q 725 316 683 294 q 786 379 767 338 q 806 478 806 421 l 806 1042 l 1164 1042 l 1164 458 q 1096 204 1164 313 q 905 35 1028 96 q 617 -25 782 -25 q 330 35 453 -25 q 138 204 207 96 q 69 458 69 313 l 69 1042 l 428 1042 l 428 478 m 619 1364 l 1014 1364 l 764 1114 l 414 1114 l 619 1364 z "},"Ʉ":{"ha":1397,"x_min":40,"x_max":1357,"o":"m 40 729 l 1357 729 l 1357 493 l 40 493 l 40 729 m 510 478 q 530 380 510 421 q 592 317 550 339 q 699 294 633 294 q 807 316 765 294 q 868 379 849 338 q 888 478 888 421 l 888 1042 l 1246 1042 l 1246 458 q 1178 204 1246 313 q 987 35 1110 96 q 699 -25 864 -25 q 412 35 535 -25 q 220 204 289 96 q 151 458 151 313 l 151 1042 l 510 1042 l 510 478 z "},"Ŭ":{"ha":1235,"x_min":69,"x_max":1164,"o":"m 428 478 q 448 380 428 421 q 510 317 468 339 q 617 294 551 294 q 725 316 683 294 q 786 379 767 338 q 806 478 806 421 l 806 1042 l 1164 1042 l 1164 458 q 1096 204 1164 313 q 905 35 1028 96 q 617 -25 782 -25 q 330 35 453 -25 q 138 204 207 96 q 69 458 69 313 l 69 1042 l 428 1042 l 428 478 m 228 1371 l 492 1371 q 544 1325 514 1340 q 617 1310 575 1310 q 689 1325 658 1310 q 742 1371 719 1340 l 1006 1371 q 864 1166 967 1232 q 617 1100 761 1100 q 371 1166 474 1100 q 228 1371 268 1232 z "},"Ǔ":{"ha":1235,"x_min":69,"x_max":1164,"o":"m 428 478 q 448 380 428 421 q 510 317 468 339 q 617 294 551 294 q 725 316 683 294 q 786 379 767 338 q 806 478 806 421 l 806 1042 l 1164 1042 l 1164 458 q 1096 204 1164 313 q 905 35 1028 96 q 617 -25 782 -25 q 330 35 453 -25 q 138 204 207 96 q 69 458 69 313 l 69 1042 l 428 1042 l 428 478 m 799 1113 l 435 1113 l 219 1363 l 497 1363 l 700 1218 l 533 1218 l 736 1363 l 1014 1363 l 799 1113 z "},"Û":{"ha":1235,"x_min":69,"x_max":1164,"o":"m 428 478 q 448 380 428 421 q 510 317 468 339 q 617 294 551 294 q 725 316 683 294 q 786 379 767 338 q 806 478 806 421 l 806 1042 l 1164 1042 l 1164 458 q 1096 204 1164 313 q 905 35 1028 96 q 617 -25 782 -25 q 330 35 453 -25 q 138 204 207 96 q 69 458 69 313 l 69 1042 l 428 1042 l 428 478 m 435 1364 l 799 1364 l 1014 1114 l 736 1114 l 533 1258 l 700 1258 l 497 1114 l 219 1114 l 435 1364 z "},"Ṷ":{"ha":1235,"x_min":69,"x_max":1164,"o":"m 428 478 q 448 380 428 421 q 510 317 468 339 q 617 294 551 294 q 725 316 683 294 q 786 379 767 338 q 806 478 806 421 l 806 1042 l 1164 1042 l 1164 458 q 1096 204 1164 313 q 905 35 1028 96 q 617 -25 782 -25 q 330 35 453 -25 q 138 204 207 96 q 69 458 69 313 l 69 1042 l 428 1042 l 428 478 m 439 -58 l 794 -58 l 993 -336 l 722 -336 l 533 -136 l 700 -136 l 511 -336 l 240 -336 l 439 -58 z "},"Ȕ":{"ha":1235,"x_min":58,"x_max":1164,"o":"m 428 478 q 448 380 428 421 q 510 317 468 339 q 617 294 551 294 q 725 316 683 294 q 786 379 767 338 q 806 478 806 421 l 806 1042 l 1164 1042 l 1164 458 q 1096 204 1164 313 q 905 35 1028 96 q 617 -25 782 -25 q 330 35 453 -25 q 138 204 207 96 q 69 458 69 313 l 69 1042 l 428 1042 l 428 478 m 796 1364 l 969 1114 l 668 1114 l 464 1364 l 796 1364 m 390 1364 l 564 1114 l 263 1114 l 58 1364 l 390 1364 z "},"Ü":{"ha":1235,"x_min":69,"x_max":1164,"o":"m 428 478 q 448 380 428 421 q 510 317 468 339 q 617 294 551 294 q 725 316 683 294 q 786 379 767 338 q 806 478 806 421 l 806 1042 l 1164 1042 l 1164 458 q 1096 204 1164 313 q 905 35 1028 96 q 617 -25 782 -25 q 330 35 453 -25 q 138 204 207 96 q 69 458 69 313 l 69 1042 l 428 1042 l 428 478 m 394 1100 q 262 1140 311 1100 q 213 1254 213 1181 q 262 1363 213 1324 q 394 1403 311 1403 q 527 1363 478 1403 q 576 1254 576 1324 q 527 1140 576 1181 q 394 1100 478 1100 m 839 1100 q 706 1140 756 1100 q 657 1254 657 1181 q 706 1363 657 1324 q 839 1403 756 1403 q 972 1363 922 1403 q 1021 1254 1021 1324 q 972 1140 1021 1181 q 839 1100 922 1100 z "},"Ǘ":{"ha":1235,"x_min":69,"x_max":1164,"o":"m 428 478 q 448 380 428 421 q 510 317 468 339 q 617 294 551 294 q 725 316 683 294 q 786 379 767 338 q 806 478 806 421 l 806 1042 l 1164 1042 l 1164 458 q 1096 204 1164 313 q 905 35 1028 96 q 617 -25 782 -25 q 330 35 453 -25 q 138 204 207 96 q 69 458 69 313 l 69 1042 l 428 1042 l 428 478 m 394 1100 q 262 1140 311 1100 q 213 1254 213 1181 q 262 1363 213 1324 q 394 1403 311 1403 q 527 1363 478 1403 q 576 1254 576 1324 q 527 1140 576 1181 q 394 1100 478 1100 m 839 1100 q 706 1140 756 1100 q 657 1254 657 1181 q 706 1363 657 1324 q 839 1403 756 1403 q 972 1363 922 1403 q 1021 1254 1021 1324 q 972 1140 1021 1181 q 839 1100 922 1100 m 621 1700 l 1015 1700 l 765 1450 l 415 1450 l 621 1700 z "},"Ṳ":{"ha":1235,"x_min":69,"x_max":1164,"o":"m 428 478 q 448 380 428 421 q 510 317 468 339 q 617 294 551 294 q 725 316 683 294 q 786 379 767 338 q 806 478 806 421 l 806 1042 l 1164 1042 l 1164 458 q 1096 204 1164 313 q 905 35 1028 96 q 617 -25 782 -25 q 330 35 453 -25 q 138 204 207 96 q 69 458 69 313 l 69 1042 l 428 1042 l 428 478 m 399 -361 q 266 -321 315 -361 q 217 -207 217 -281 q 266 -98 217 -137 q 399 -58 315 -58 q 531 -98 482 -58 q 581 -207 581 -137 q 531 -321 581 -281 q 399 -361 482 -361 m 835 -361 q 702 -321 751 -361 q 653 -207 653 -281 q 702 -98 653 -137 q 835 -58 751 -58 q 967 -98 918 -58 q 1017 -207 1017 -137 q 967 -321 1017 -281 q 835 -361 918 -361 z "},"Ǚ":{"ha":1235,"x_min":69,"x_max":1164,"o":"m 428 478 q 448 380 428 421 q 510 317 468 339 q 617 294 551 294 q 725 316 683 294 q 786 379 767 338 q 806 478 806 421 l 806 1042 l 1164 1042 l 1164 458 q 1096 204 1164 313 q 905 35 1028 96 q 617 -25 782 -25 q 330 35 453 -25 q 138 204 207 96 q 69 458 69 313 l 69 1042 l 428 1042 l 428 478 m 394 1100 q 262 1140 311 1100 q 213 1254 213 1181 q 262 1363 213 1324 q 394 1403 311 1403 q 527 1363 478 1403 q 576 1254 576 1324 q 527 1140 576 1181 q 394 1100 478 1100 m 839 1100 q 706 1140 756 1100 q 657 1254 657 1181 q 706 1363 657 1324 q 839 1403 756 1403 q 972 1363 922 1403 q 1021 1254 1021 1324 q 972 1140 1021 1181 q 839 1100 922 1100 m 800 1449 l 436 1449 l 221 1699 l 499 1699 l 701 1554 l 535 1554 l 738 1699 l 1015 1699 l 800 1449 z "},"Ǜ":{"ha":1235,"x_min":69,"x_max":1164,"o":"m 428 478 q 448 380 428 421 q 510 317 468 339 q 617 294 551 294 q 725 316 683 294 q 786 379 767 338 q 806 478 806 421 l 806 1042 l 1164 1042 l 1164 458 q 1096 204 1164 313 q 905 35 1028 96 q 617 -25 782 -25 q 330 35 453 -25 q 138 204 207 96 q 69 458 69 313 l 69 1042 l 428 1042 l 428 478 m 394 1100 q 262 1140 311 1100 q 213 1254 213 1181 q 262 1363 213 1324 q 394 1403 311 1403 q 527 1363 478 1403 q 576 1254 576 1324 q 527 1140 576 1181 q 394 1100 478 1100 m 839 1100 q 706 1140 756 1100 q 657 1254 657 1181 q 706 1363 657 1324 q 839 1403 756 1403 q 972 1363 922 1403 q 1021 1254 1021 1324 q 972 1140 1021 1181 q 839 1100 922 1100 m 603 1700 l 808 1450 l 458 1450 l 208 1700 l 603 1700 z "},"Ǖ":{"ha":1235,"x_min":69,"x_max":1164,"o":"m 428 478 q 448 380 428 421 q 510 317 468 339 q 617 294 551 294 q 725 316 683 294 q 786 379 767 338 q 806 478 806 421 l 806 1042 l 1164 1042 l 1164 458 q 1096 204 1164 313 q 905 35 1028 96 q 617 -25 782 -25 q 330 35 453 -25 q 138 204 207 96 q 69 458 69 313 l 69 1042 l 428 1042 l 428 478 m 394 1100 q 262 1140 311 1100 q 213 1254 213 1181 q 262 1363 213 1324 q 394 1403 311 1403 q 527 1363 478 1403 q 576 1254 576 1324 q 527 1140 576 1181 q 394 1100 478 1100 m 839 1100 q 706 1140 756 1100 q 657 1254 657 1181 q 706 1363 657 1324 q 839 1403 756 1403 q 972 1363 922 1403 q 1021 1254 1021 1324 q 972 1140 1021 1181 q 839 1100 922 1100 m 254 1457 l 254 1661 l 982 1661 l 982 1457 l 254 1457 z "},"Ụ":{"ha":1235,"x_min":69,"x_max":1164,"o":"m 428 478 q 448 380 428 421 q 510 317 468 339 q 617 294 551 294 q 725 316 683 294 q 786 379 767 338 q 806 478 806 421 l 806 1042 l 1164 1042 l 1164 458 q 1096 204 1164 313 q 905 35 1028 96 q 617 -25 782 -25 q 330 35 453 -25 q 138 204 207 96 q 69 458 69 313 l 69 1042 l 428 1042 l 428 478 m 617 -381 q 474 -337 528 -381 q 419 -219 419 -294 q 474 -101 419 -144 q 617 -58 528 -58 q 760 -101 707 -58 q 814 -219 814 -144 q 760 -337 814 -294 q 617 -381 707 -381 z "},"Ù":{"ha":1235,"x_min":69,"x_max":1164,"o":"m 428 478 q 448 380 428 421 q 510 317 468 339 q 617 294 551 294 q 725 316 683 294 q 786 379 767 338 q 806 478 806 421 l 806 1042 l 1164 1042 l 1164 458 q 1096 204 1164 313 q 905 35 1028 96 q 617 -25 782 -25 q 330 35 453 -25 q 138 204 207 96 q 69 458 69 313 l 69 1042 l 428 1042 l 428 478 m 601 1364 l 807 1114 l 457 1114 l 207 1364 l 601 1364 z "},"Ủ":{"ha":1235,"x_min":69,"x_max":1164,"o":"m 428 478 q 448 380 428 421 q 510 317 468 339 q 617 294 551 294 q 725 316 683 294 q 786 379 767 338 q 806 478 806 421 l 806 1042 l 1164 1042 l 1164 458 q 1096 204 1164 313 q 905 35 1028 96 q 617 -25 782 -25 q 330 35 453 -25 q 138 204 207 96 q 69 458 69 313 l 69 1042 l 428 1042 l 428 478 m 544 1094 l 485 1193 q 576 1219 550 1204 q 601 1247 601 1233 q 583 1268 601 1261 q 525 1275 564 1275 q 468 1272 494 1275 q 411 1264 442 1269 l 411 1429 q 499 1448 442 1439 q 614 1457 556 1457 q 822 1420 750 1457 q 893 1300 893 1383 q 814 1174 893 1224 q 544 1094 735 1124 z "},"Ư":{"ha":1390,"x_min":69,"x_max":1450,"o":"m 428 478 q 448 380 428 421 q 510 317 468 339 q 617 294 551 294 q 725 316 683 294 q 786 379 767 338 q 806 478 806 421 l 806 1042 l 1164 1042 l 1164 458 q 1096 204 1164 313 q 905 35 1028 96 q 617 -25 782 -25 q 330 35 453 -25 q 138 204 207 96 q 69 458 69 313 l 69 1042 l 428 1042 l 428 478 m 1450 1065 q 1366 910 1450 967 q 1132 854 1282 854 q 1117 854 1126 854 q 1101 854 1107 854 l 1101 1042 q 1104 1042 1104 1042 q 1106 1042 1104 1042 q 1163 1062 1142 1042 q 1183 1114 1183 1082 q 1173 1164 1183 1138 q 1140 1222 1163 1190 l 1399 1222 q 1450 1065 1450 1143 z "},"Ứ":{"ha":1390,"x_min":69,"x_max":1450,"o":"m 428 478 q 448 380 428 421 q 510 317 468 339 q 617 294 551 294 q 725 316 683 294 q 786 379 767 338 q 806 478 806 421 l 806 1042 l 1164 1042 l 1164 458 q 1096 204 1164 313 q 905 35 1028 96 q 617 -25 782 -25 q 330 35 453 -25 q 138 204 207 96 q 69 458 69 313 l 69 1042 l 428 1042 l 428 478 m 1450 1065 q 1366 910 1450 967 q 1132 854 1282 854 q 1117 854 1126 854 q 1101 854 1107 854 l 1101 1042 q 1104 1042 1104 1042 q 1106 1042 1104 1042 q 1163 1062 1142 1042 q 1183 1114 1183 1082 q 1173 1164 1183 1138 q 1140 1222 1163 1190 l 1399 1222 q 1450 1065 1450 1143 m 625 1364 l 1019 1364 l 769 1114 l 419 1114 l 625 1364 z "},"Ự":{"ha":1390,"x_min":69,"x_max":1450,"o":"m 428 478 q 448 380 428 421 q 510 317 468 339 q 617 294 551 294 q 725 316 683 294 q 786 379 767 338 q 806 478 806 421 l 806 1042 l 1164 1042 l 1164 458 q 1096 204 1164 313 q 905 35 1028 96 q 617 -25 782 -25 q 330 35 453 -25 q 138 204 207 96 q 69 458 69 313 l 69 1042 l 428 1042 l 428 478 m 1450 1065 q 1366 910 1450 967 q 1132 854 1282 854 q 1117 854 1126 854 q 1101 854 1107 854 l 1101 1042 q 1104 1042 1104 1042 q 1106 1042 1104 1042 q 1163 1062 1142 1042 q 1183 1114 1183 1082 q 1173 1164 1183 1138 q 1140 1222 1163 1190 l 1399 1222 q 1450 1065 1450 1143 m 622 -381 q 479 -337 533 -381 q 425 -219 425 -294 q 479 -101 425 -144 q 622 -58 533 -58 q 766 -101 713 -58 q 819 -219 819 -144 q 766 -337 819 -294 q 622 -381 713 -381 z "},"Ừ":{"ha":1390,"x_min":69,"x_max":1450,"o":"m 428 478 q 448 380 428 421 q 510 317 468 339 q 617 294 551 294 q 725 316 683 294 q 786 379 767 338 q 806 478 806 421 l 806 1042 l 1164 1042 l 1164 458 q 1096 204 1164 313 q 905 35 1028 96 q 617 -25 782 -25 q 330 35 453 -25 q 138 204 207 96 q 69 458 69 313 l 69 1042 l 428 1042 l 428 478 m 1450 1065 q 1366 910 1450 967 q 1132 854 1282 854 q 1117 854 1126 854 q 1101 854 1107 854 l 1101 1042 q 1104 1042 1104 1042 q 1106 1042 1104 1042 q 1163 1062 1142 1042 q 1183 1114 1183 1082 q 1173 1164 1183 1138 q 1140 1222 1163 1190 l 1399 1222 q 1450 1065 1450 1143 m 607 1364 l 813 1114 l 463 1114 l 213 1364 l 607 1364 z "},"Ử":{"ha":1390,"x_min":69,"x_max":1450,"o":"m 428 478 q 448 380 428 421 q 510 317 468 339 q 617 294 551 294 q 725 316 683 294 q 786 379 767 338 q 806 478 806 421 l 806 1042 l 1164 1042 l 1164 458 q 1096 204 1164 313 q 905 35 1028 96 q 617 -25 782 -25 q 330 35 453 -25 q 138 204 207 96 q 69 458 69 313 l 69 1042 l 428 1042 l 428 478 m 1450 1065 q 1366 910 1450 967 q 1132 854 1282 854 q 1117 854 1126 854 q 1101 854 1107 854 l 1101 1042 q 1104 1042 1104 1042 q 1106 1042 1104 1042 q 1163 1062 1142 1042 q 1183 1114 1183 1082 q 1173 1164 1183 1138 q 1140 1222 1163 1190 l 1399 1222 q 1450 1065 1450 1143 m 550 1094 l 490 1193 q 581 1219 556 1204 q 607 1247 607 1233 q 588 1268 607 1261 q 531 1275 569 1275 q 474 1272 500 1275 q 417 1264 447 1269 l 417 1429 q 504 1448 447 1439 q 619 1457 561 1457 q 827 1420 756 1457 q 899 1300 899 1383 q 819 1174 899 1224 q 550 1094 740 1124 z "},"Ữ":{"ha":1390,"x_min":69,"x_max":1450,"o":"m 428 478 q 448 380 428 421 q 510 317 468 339 q 617 294 551 294 q 725 316 683 294 q 786 379 767 338 q 806 478 806 421 l 806 1042 l 1164 1042 l 1164 458 q 1096 204 1164 313 q 905 35 1028 96 q 617 -25 782 -25 q 330 35 453 -25 q 138 204 207 96 q 69 458 69 313 l 69 1042 l 428 1042 l 428 478 m 1450 1065 q 1366 910 1450 967 q 1132 854 1282 854 q 1117 854 1126 854 q 1101 854 1107 854 l 1101 1042 q 1104 1042 1104 1042 q 1106 1042 1104 1042 q 1163 1062 1142 1042 q 1183 1114 1183 1082 q 1173 1164 1183 1138 q 1140 1222 1163 1190 l 1399 1222 q 1450 1065 1450 1143 m 211 1119 q 294 1313 229 1243 q 488 1383 358 1383 q 562 1374 526 1383 q 628 1353 597 1365 q 688 1333 660 1342 q 739 1324 715 1324 q 785 1336 767 1324 q 810 1374 804 1349 l 1032 1374 q 949 1181 1014 1251 q 756 1110 885 1110 q 681 1119 717 1110 q 615 1140 646 1128 q 556 1160 583 1151 q 504 1169 528 1169 q 458 1157 476 1169 q 433 1119 439 1144 l 211 1119 z "},"Ű":{"ha":1235,"x_min":69,"x_max":1164,"o":"m 428 478 q 448 380 428 421 q 510 317 468 339 q 617 294 551 294 q 725 316 683 294 q 786 379 767 338 q 806 478 806 421 l 806 1042 l 1164 1042 l 1164 458 q 1096 204 1164 313 q 905 35 1028 96 q 617 -25 782 -25 q 330 35 453 -25 q 138 204 207 96 q 69 458 69 313 l 69 1042 l 428 1042 l 428 478 m 415 1364 l 747 1364 l 543 1114 l 242 1114 l 415 1364 m 821 1364 l 1153 1364 l 949 1114 l 647 1114 l 821 1364 z "},"Ȗ":{"ha":1235,"x_min":69,"x_max":1164,"o":"m 428 478 q 448 380 428 421 q 510 317 468 339 q 617 294 551 294 q 725 316 683 294 q 786 379 767 338 q 806 478 806 421 l 806 1042 l 1164 1042 l 1164 458 q 1096 204 1164 313 q 905 35 1028 96 q 617 -25 782 -25 q 330 35 453 -25 q 138 204 207 96 q 69 458 69 313 l 69 1042 l 428 1042 l 428 478 m 1006 1106 l 742 1106 q 689 1151 719 1136 q 617 1167 658 1167 q 544 1151 575 1167 q 492 1106 514 1136 l 228 1106 q 371 1310 268 1244 q 617 1376 474 1376 q 864 1310 761 1376 q 1006 1106 967 1244 z "},"Ū":{"ha":1235,"x_min":69,"x_max":1164,"o":"m 428 478 q 448 380 428 421 q 510 317 468 339 q 617 294 551 294 q 725 316 683 294 q 786 379 767 338 q 806 478 806 421 l 806 1042 l 1164 1042 l 1164 458 q 1096 204 1164 313 q 905 35 1028 96 q 617 -25 782 -25 q 330 35 453 -25 q 138 204 207 96 q 69 458 69 313 l 69 1042 l 428 1042 l 428 478 m 253 1135 l 253 1339 l 981 1339 l 981 1135 l 253 1135 z "},"Ṻ":{"ha":1235,"x_min":69,"x_max":1164,"o":"m 428 478 q 448 380 428 421 q 510 317 468 339 q 617 294 551 294 q 725 316 683 294 q 786 379 767 338 q 806 478 806 421 l 806 1042 l 1164 1042 l 1164 458 q 1096 204 1164 313 q 905 35 1028 96 q 617 -25 782 -25 q 330 35 453 -25 q 138 204 207 96 q 69 458 69 313 l 69 1042 l 428 1042 l 428 478 m 253 1135 l 253 1339 l 981 1339 l 981 1135 l 253 1135 m 394 1408 q 262 1449 311 1408 q 213 1563 213 1489 q 262 1672 213 1632 q 394 1711 311 1711 q 527 1672 478 1711 q 576 1563 576 1632 q 527 1449 576 1489 q 394 1408 478 1408 m 839 1408 q 706 1449 756 1408 q 657 1563 657 1489 q 706 1672 657 1632 q 839 1711 756 1711 q 972 1672 922 1711 q 1021 1563 1021 1632 q 972 1449 1021 1489 q 839 1408 922 1408 z "},"Ų":{"ha":1235,"x_min":69,"x_max":1164,"o":"m 806 478 l 806 1042 l 1164 1042 l 1164 458 q 1069 166 1164 286 q 811 0 975 46 q 709 -42 744 -19 q 674 -87 674 -65 q 760 -124 674 -124 q 802 -121 783 -124 q 839 -114 821 -118 l 839 -286 q 772 -301 821 -293 q 671 -308 724 -308 q 498 -268 564 -308 q 432 -162 432 -228 q 499 -53 432 -97 q 697 15 567 -10 l 672 -24 q 358 23 494 -35 q 146 192 222 81 q 69 458 69 304 l 69 1042 l 428 1042 l 428 478 q 448 380 428 421 q 510 317 468 339 q 617 294 551 294 q 725 316 683 294 q 786 379 767 338 q 806 478 806 421 z "},"Ʊ":{"ha":1392,"x_min":53,"x_max":1339,"o":"m 696 -25 q 352 40 489 -25 q 148 216 215 106 q 81 464 81 326 q 206 776 81 647 q 558 953 332 906 l 428 794 l 53 794 l 53 1042 l 594 1042 l 594 821 q 477 717 524 786 q 431 551 431 647 q 463 415 431 474 q 554 326 494 357 q 696 294 614 294 q 838 326 779 294 q 929 415 897 357 q 961 551 961 474 q 915 717 961 647 q 797 821 868 786 l 797 1042 l 1339 1042 l 1339 794 l 964 794 l 833 953 q 1186 776 1061 906 q 1311 464 1311 647 q 1244 216 1311 326 q 1040 40 1176 106 q 696 -25 903 -25 z "},"Ů":{"ha":1235,"x_min":69,"x_max":1164,"o":"m 428 478 q 448 380 428 421 q 510 317 468 339 q 617 294 551 294 q 725 316 683 294 q 786 379 767 338 q 806 478 806 421 l 806 1042 l 1164 1042 l 1164 458 q 1096 204 1164 313 q 905 35 1028 96 q 617 -25 782 -25 q 330 35 453 -25 q 138 204 207 96 q 69 458 69 313 l 69 1042 l 428 1042 l 428 478 m 617 1086 q 389 1140 469 1086 q 308 1294 308 1194 q 389 1449 308 1394 q 617 1503 469 1503 q 845 1449 765 1503 q 925 1294 925 1394 q 845 1140 925 1194 q 617 1086 765 1086 m 617 1231 q 708 1247 681 1231 q 736 1294 736 1264 q 708 1342 736 1325 q 617 1358 681 1358 q 525 1342 553 1358 q 497 1294 497 1325 q 525 1247 497 1264 q 617 1231 553 1231 z "},"Ũ":{"ha":1235,"x_min":69,"x_max":1164,"o":"m 428 478 q 448 380 428 421 q 510 317 468 339 q 617 294 551 294 q 725 316 683 294 q 786 379 767 338 q 806 478 806 421 l 806 1042 l 1164 1042 l 1164 458 q 1096 204 1164 313 q 905 35 1028 96 q 617 -25 782 -25 q 330 35 453 -25 q 138 204 207 96 q 69 458 69 313 l 69 1042 l 428 1042 l 428 478 m 206 1119 q 288 1313 224 1243 q 482 1383 353 1383 q 556 1374 521 1383 q 623 1353 592 1365 q 682 1333 654 1342 q 733 1324 710 1324 q 780 1336 761 1324 q 804 1374 799 1349 l 1026 1374 q 944 1181 1008 1251 q 750 1110 879 1110 q 676 1119 711 1110 q 609 1140 640 1128 q 550 1160 578 1151 q 499 1169 522 1169 q 452 1157 471 1169 q 428 1119 433 1144 l 206 1119 z "},"Ṹ":{"ha":1235,"x_min":69,"x_max":1164,"o":"m 428 478 q 448 380 428 421 q 510 317 468 339 q 617 294 551 294 q 725 316 683 294 q 786 379 767 338 q 806 478 806 421 l 806 1042 l 1164 1042 l 1164 458 q 1096 204 1164 313 q 905 35 1028 96 q 617 -25 782 -25 q 330 35 453 -25 q 138 204 207 96 q 69 458 69 313 l 69 1042 l 428 1042 l 428 478 m 206 1119 q 288 1313 224 1243 q 482 1383 353 1383 q 556 1374 521 1383 q 623 1353 592 1365 q 682 1333 654 1342 q 733 1324 710 1324 q 780 1336 761 1324 q 804 1374 799 1349 l 1026 1374 q 944 1181 1008 1251 q 750 1110 879 1110 q 676 1119 711 1110 q 609 1140 640 1128 q 550 1160 578 1151 q 499 1169 522 1169 q 452 1157 471 1169 q 428 1119 433 1144 l 206 1119 m 619 1676 l 1014 1676 l 764 1426 l 414 1426 l 619 1676 z "},"Ṵ":{"ha":1235,"x_min":69,"x_max":1164,"o":"m 428 478 q 448 380 428 421 q 510 317 468 339 q 617 294 551 294 q 725 316 683 294 q 786 379 767 338 q 806 478 806 421 l 806 1042 l 1164 1042 l 1164 458 q 1096 204 1164 313 q 905 35 1028 96 q 617 -25 782 -25 q 330 35 453 -25 q 138 204 207 96 q 69 458 69 313 l 69 1042 l 428 1042 l 428 478 m 247 -336 q 307 -128 254 -204 q 468 -51 360 -51 q 543 -61 507 -51 q 610 -84 579 -71 q 669 -108 642 -97 q 719 -118 697 -118 q 766 -101 747 -118 q 790 -54 785 -85 l 985 -54 q 926 -262 979 -186 q 764 -339 872 -339 q 689 -328 725 -339 q 622 -305 653 -318 q 563 -282 590 -292 q 513 -272 535 -272 q 466 -289 485 -272 q 442 -336 447 -306 l 247 -336 z "},"V":{"ha":1344,"x_min":-4,"x_max":1349,"o":"m 750 164 l 603 164 l 974 1042 l 1349 1042 l 876 0 l 468 0 l -4 1042 l 379 1042 l 750 164 z "},"Ɣ":{"ha":1328,"x_min":-12,"x_max":1340,"o":"m 482 160 l 825 160 l 800 78 l 597 335 l 732 335 l 518 64 l 482 160 m 121 0 l 554 547 l 525 336 l -12 1042 l 369 1042 l 754 544 l 601 576 l 963 1042 l 1340 1042 l 804 347 l 765 557 l 1207 0 l 121 0 z "},"Ṿ":{"ha":1344,"x_min":-4,"x_max":1349,"o":"m 750 164 l 603 164 l 974 1042 l 1349 1042 l 876 0 l 468 0 l -4 1042 l 379 1042 l 750 164 m 672 -381 q 529 -337 583 -381 q 475 -219 475 -294 q 529 -101 475 -144 q 672 -58 583 -58 q 816 -101 763 -58 q 869 -219 869 -144 q 816 -337 869 -294 q 672 -381 763 -381 z "},"Ʋ":{"ha":1244,"x_min":71,"x_max":1199,"o":"m 71 468 l 71 1042 l 426 1042 l 426 486 q 447 370 426 414 q 502 307 467 326 q 583 288 538 288 q 687 317 640 288 q 767 399 733 347 q 819 516 801 450 q 838 654 838 582 q 805 762 838 719 q 703 804 772 804 q 638 798 668 804 q 581 781 608 792 l 581 1036 q 674 1058 618 1049 q 803 1067 731 1067 q 1097 965 994 1067 q 1199 656 1199 863 q 1154 403 1199 525 q 1025 184 1110 281 q 820 31 940 88 q 550 -25 700 -25 q 297 34 406 -25 q 130 203 189 93 q 71 468 71 314 z "},"Ṽ":{"ha":1344,"x_min":-4,"x_max":1349,"o":"m 750 164 l 603 164 l 974 1042 l 1349 1042 l 876 0 l 468 0 l -4 1042 l 379 1042 l 750 164 m 261 1119 q 344 1313 279 1243 q 538 1383 408 1383 q 612 1374 576 1383 q 678 1353 647 1365 q 738 1333 710 1342 q 789 1324 765 1324 q 835 1336 817 1324 q 860 1374 854 1349 l 1082 1374 q 999 1181 1064 1251 q 806 1110 935 1110 q 731 1119 767 1110 q 665 1140 696 1128 q 606 1160 633 1151 q 554 1169 578 1169 q 508 1157 526 1169 q 483 1119 489 1144 l 261 1119 z "},"Ʌ":{"ha":1317,"x_min":-4,"x_max":1321,"o":"m -4 0 l 454 1042 l 863 1042 l 1321 0 l 960 0 l 589 878 l 736 878 l 365 0 l -4 0 z "},"W":{"ha":1931,"x_min":11,"x_max":1919,"o":"m 1425 158 l 1321 157 l 1540 1042 l 1919 1042 l 1626 0 l 1165 0 l 896 846 l 1035 846 l 765 0 l 304 0 l 11 1042 l 392 1042 l 611 158 l 507 160 l 778 1042 l 1153 1042 l 1425 158 z "},"Ẃ":{"ha":1931,"x_min":11,"x_max":1919,"o":"m 1425 158 l 1321 157 l 1540 1042 l 1919 1042 l 1626 0 l 1165 0 l 896 846 l 1035 846 l 765 0 l 304 0 l 11 1042 l 392 1042 l 611 158 l 507 160 l 778 1042 l 1153 1042 l 1425 158 m 968 1364 l 1363 1364 l 1113 1114 l 763 1114 l 968 1364 z "},"Ŵ":{"ha":1931,"x_min":11,"x_max":1919,"o":"m 1425 158 l 1321 157 l 1540 1042 l 1919 1042 l 1626 0 l 1165 0 l 896 846 l 1035 846 l 765 0 l 304 0 l 11 1042 l 392 1042 l 611 158 l 507 160 l 778 1042 l 1153 1042 l 1425 158 m 783 1364 l 1147 1364 l 1363 1114 l 1085 1114 l 882 1258 l 1049 1258 l 846 1114 l 568 1114 l 783 1364 z "},"Ẅ":{"ha":1931,"x_min":11,"x_max":1919,"o":"m 1425 158 l 1321 157 l 1540 1042 l 1919 1042 l 1626 0 l 1165 0 l 896 846 l 1035 846 l 765 0 l 304 0 l 11 1042 l 392 1042 l 611 158 l 507 160 l 778 1042 l 1153 1042 l 1425 158 m 743 1100 q 610 1140 660 1100 q 561 1254 561 1181 q 610 1363 561 1324 q 743 1403 660 1403 q 876 1363 826 1403 q 925 1254 925 1324 q 876 1140 925 1181 q 743 1100 826 1100 m 1188 1100 q 1055 1140 1104 1100 q 1006 1254 1006 1181 q 1055 1363 1006 1324 q 1188 1403 1104 1403 q 1320 1363 1271 1403 q 1369 1254 1369 1324 q 1320 1140 1369 1181 q 1188 1100 1271 1100 z "},"Ẇ":{"ha":1931,"x_min":11,"x_max":1919,"o":"m 1425 158 l 1321 157 l 1540 1042 l 1919 1042 l 1626 0 l 1165 0 l 896 846 l 1035 846 l 765 0 l 304 0 l 11 1042 l 392 1042 l 611 158 l 507 160 l 778 1042 l 1153 1042 l 1425 158 m 965 1100 q 822 1143 876 1100 q 768 1261 768 1186 q 822 1379 768 1336 q 965 1422 876 1422 q 1109 1379 1056 1422 q 1163 1261 1163 1336 q 1109 1143 1163 1186 q 965 1100 1056 1100 z "},"Ẉ":{"ha":1931,"x_min":11,"x_max":1919,"o":"m 1425 158 l 1321 157 l 1540 1042 l 1919 1042 l 1626 0 l 1165 0 l 896 846 l 1035 846 l 765 0 l 304 0 l 11 1042 l 392 1042 l 611 158 l 507 160 l 778 1042 l 1153 1042 l 1425 158 m 965 -381 q 822 -337 876 -381 q 768 -219 768 -294 q 822 -101 768 -144 q 965 -58 876 -58 q 1109 -101 1056 -58 q 1163 -219 1163 -144 q 1109 -337 1163 -294 q 965 -381 1056 -381 z "},"Ẁ":{"ha":1931,"x_min":11,"x_max":1919,"o":"m 1425 158 l 1321 157 l 1540 1042 l 1919 1042 l 1626 0 l 1165 0 l 896 846 l 1035 846 l 765 0 l 304 0 l 11 1042 l 392 1042 l 611 158 l 507 160 l 778 1042 l 1153 1042 l 1425 158 m 950 1364 l 1156 1114 l 806 1114 l 556 1364 l 950 1364 z "},"Ⱳ":{"ha":2018,"x_min":11,"x_max":1971,"o":"m 1410 158 l 1306 157 l 1468 785 q 1583 998 1506 929 q 1800 1067 1660 1067 q 1890 1060 1849 1067 q 1971 1040 1931 1053 l 1971 785 q 1941 797 1957 792 q 1903 801 1925 801 q 1853 785 1871 801 q 1826 740 1835 769 l 1611 0 l 1150 0 l 896 846 l 1035 846 l 765 0 l 304 0 l 11 1042 l 392 1042 l 611 158 l 507 160 l 778 1042 l 1153 1042 l 1410 158 z "},"X":{"ha":1281,"x_min":-19,"x_max":1300,"o":"m 772 431 l 772 651 l 1300 0 l 860 0 l 549 413 l 729 413 l 415 0 l -19 0 l 513 651 l 513 431 l 7 1042 l 456 1042 l 736 671 l 556 671 l 831 1042 l 1274 1042 l 772 431 z "},"Ẍ":{"ha":1281,"x_min":-19,"x_max":1300,"o":"m 772 431 l 772 651 l 1300 0 l 860 0 l 549 413 l 729 413 l 415 0 l -19 0 l 513 651 l 513 431 l 7 1042 l 456 1042 l 736 671 l 556 671 l 831 1042 l 1274 1042 l 772 431 m 418 1100 q 285 1140 335 1100 q 236 1254 236 1181 q 285 1363 236 1324 q 418 1403 335 1403 q 551 1363 501 1403 q 600 1254 600 1324 q 551 1140 600 1181 q 418 1100 501 1100 m 863 1100 q 730 1140 779 1100 q 681 1254 681 1181 q 730 1363 681 1324 q 863 1403 779 1403 q 995 1363 946 1403 q 1044 1254 1044 1324 q 995 1140 1044 1181 q 863 1100 946 1100 z "},"Ẋ":{"ha":1281,"x_min":-19,"x_max":1300,"o":"m 772 431 l 772 651 l 1300 0 l 860 0 l 549 413 l 729 413 l 415 0 l -19 0 l 513 651 l 513 431 l 7 1042 l 456 1042 l 736 671 l 556 671 l 831 1042 l 1274 1042 l 772 431 m 640 1100 q 497 1143 551 1100 q 443 1261 443 1186 q 497 1379 443 1336 q 640 1422 551 1422 q 784 1379 731 1422 q 838 1261 838 1336 q 784 1143 838 1186 q 640 1100 731 1100 z "},"Y":{"ha":1329,"x_min":0,"x_max":1328,"o":"m 486 0 l 486 514 l 844 514 l 844 0 l 486 0 m 0 1042 l 393 1042 l 739 596 l 590 596 l 935 1042 l 1328 1042 l 781 339 l 549 335 l 0 1042 z "},"Ý":{"ha":1329,"x_min":0,"x_max":1328,"o":"m 486 0 l 486 514 l 844 514 l 844 0 l 486 0 m 0 1042 l 393 1042 l 739 596 l 590 596 l 935 1042 l 1328 1042 l 781 339 l 549 335 l 0 1042 m 667 1364 l 1061 1364 l 811 1114 l 461 1114 l 667 1364 z "},"Ŷ":{"ha":1329,"x_min":0,"x_max":1328,"o":"m 486 0 l 486 514 l 844 514 l 844 0 l 486 0 m 0 1042 l 393 1042 l 739 596 l 590 596 l 935 1042 l 1328 1042 l 781 339 l 549 335 l 0 1042 m 482 1364 l 846 1364 l 1061 1114 l 783 1114 l 581 1258 l 747 1258 l 544 1114 l 267 1114 l 482 1364 z "},"Ÿ":{"ha":1329,"x_min":0,"x_max":1328,"o":"m 486 0 l 486 514 l 844 514 l 844 0 l 486 0 m 0 1042 l 393 1042 l 739 596 l 590 596 l 935 1042 l 1328 1042 l 781 339 l 549 335 l 0 1042 m 442 1100 q 309 1140 358 1100 q 260 1254 260 1181 q 309 1363 260 1324 q 442 1403 358 1403 q 574 1363 525 1403 q 624 1254 624 1324 q 574 1140 624 1181 q 442 1100 525 1100 m 886 1100 q 753 1140 803 1100 q 704 1254 704 1181 q 753 1363 704 1324 q 886 1403 803 1403 q 1019 1363 969 1403 q 1068 1254 1068 1324 q 1019 1140 1068 1181 q 886 1100 969 1100 z "},"Ẏ":{"ha":1329,"x_min":0,"x_max":1328,"o":"m 486 0 l 486 514 l 844 514 l 844 0 l 486 0 m 0 1042 l 393 1042 l 739 596 l 590 596 l 935 1042 l 1328 1042 l 781 339 l 549 335 l 0 1042 m 664 1100 q 521 1143 575 1100 q 467 1261 467 1186 q 521 1379 467 1336 q 664 1422 575 1422 q 808 1379 754 1422 q 861 1261 861 1336 q 808 1143 861 1186 q 664 1100 754 1100 z "},"Ỵ":{"ha":1329,"x_min":0,"x_max":1328,"o":"m 486 0 l 486 514 l 844 514 l 844 0 l 486 0 m 0 1042 l 393 1042 l 739 596 l 590 596 l 935 1042 l 1328 1042 l 781 339 l 549 335 l 0 1042 m 664 -381 q 521 -337 575 -381 q 467 -219 467 -294 q 521 -101 467 -144 q 664 -58 575 -58 q 808 -101 754 -58 q 861 -219 861 -144 q 808 -337 861 -294 q 664 -381 754 -381 z "},"Ỳ":{"ha":1329,"x_min":0,"x_max":1328,"o":"m 486 0 l 486 514 l 844 514 l 844 0 l 486 0 m 0 1042 l 393 1042 l 739 596 l 590 596 l 935 1042 l 1328 1042 l 781 339 l 549 335 l 0 1042 m 649 1364 l 854 1114 l 504 1114 l 254 1364 l 649 1364 z "},"Ƴ":{"ha":1332,"x_min":-3,"x_max":1300,"o":"m 483 0 l 483 514 l 842 514 l 842 0 l 483 0 m 775 335 l 546 335 l -3 1042 l 390 1042 l 736 596 l 597 596 l 833 907 q 917 999 876 964 q 1009 1050 958 1033 q 1129 1067 1060 1067 q 1219 1060 1178 1067 q 1300 1040 1260 1053 l 1300 785 q 1256 795 1278 792 q 1206 799 1233 799 q 1133 780 1161 799 q 1076 725 1104 761 l 775 335 z "},"Ỷ":{"ha":1329,"x_min":0,"x_max":1328,"o":"m 486 0 l 486 514 l 844 514 l 844 0 l 486 0 m 0 1042 l 393 1042 l 739 596 l 590 596 l 935 1042 l 1328 1042 l 781 339 l 549 335 l 0 1042 m 592 1094 l 532 1193 q 623 1219 597 1204 q 649 1247 649 1233 q 630 1268 649 1261 q 572 1275 611 1275 q 515 1272 542 1275 q 458 1264 489 1269 l 458 1429 q 546 1448 489 1439 q 661 1457 603 1457 q 869 1420 797 1457 q 940 1300 940 1383 q 861 1174 940 1224 q 592 1094 782 1124 z "},"Ȳ":{"ha":1329,"x_min":0,"x_max":1328,"o":"m 486 0 l 486 514 l 844 514 l 844 0 l 486 0 m 0 1042 l 393 1042 l 739 596 l 590 596 l 935 1042 l 1328 1042 l 781 339 l 549 335 l 0 1042 m 300 1135 l 300 1339 l 1028 1339 l 1028 1135 l 300 1135 z "},"Ɏ":{"ha":1385,"x_min":19,"x_max":1365,"o":"m 19 978 l 1365 978 l 1365 742 l 19 742 l 19 978 m 514 0 l 514 514 l 872 514 l 872 0 l 514 0 m 28 1042 l 421 1042 l 767 596 l 618 596 l 963 1042 l 1356 1042 l 808 339 l 576 335 l 28 1042 z "},"Ỹ":{"ha":1329,"x_min":0,"x_max":1328,"o":"m 486 0 l 486 514 l 844 514 l 844 0 l 486 0 m 0 1042 l 393 1042 l 739 596 l 590 596 l 935 1042 l 1328 1042 l 781 339 l 549 335 l 0 1042 m 253 1119 q 335 1313 271 1243 q 529 1383 400 1383 q 603 1374 568 1383 q 670 1353 639 1365 q 729 1333 701 1342 q 781 1324 757 1324 q 827 1336 808 1324 q 851 1374 846 1349 l 1074 1374 q 991 1181 1056 1251 q 797 1110 926 1110 q 723 1119 758 1110 q 656 1140 688 1128 q 597 1160 625 1151 q 546 1169 569 1169 q 499 1157 518 1169 q 475 1119 481 1144 l 253 1119 z "},"Z":{"ha":1153,"x_min":60,"x_max":1093,"o":"m 60 0 l 60 254 l 683 831 l 953 768 l 64 768 l 64 1043 l 1089 1043 l 1089 789 l 467 213 l 236 275 l 1093 275 l 1093 0 l 60 0 z "},"Ź":{"ha":1153,"x_min":60,"x_max":1093,"o":"m 60 0 l 60 254 l 683 831 l 953 768 l 64 768 l 64 1043 l 1089 1043 l 1089 789 l 467 213 l 236 275 l 1093 275 l 1093 0 l 60 0 m 579 1364 l 974 1364 l 724 1114 l 374 1114 l 579 1364 z "},"Ž":{"ha":1153,"x_min":60,"x_max":1093,"o":"m 60 0 l 60 254 l 683 831 l 953 768 l 64 768 l 64 1043 l 1089 1043 l 1089 789 l 467 213 l 236 275 l 1093 275 l 1093 0 l 60 0 m 758 1113 l 394 1113 l 179 1363 l 457 1363 l 660 1218 l 493 1218 l 696 1363 l 974 1363 l 758 1113 z "},"Ẑ":{"ha":1153,"x_min":60,"x_max":1093,"o":"m 60 0 l 60 254 l 683 831 l 953 768 l 64 768 l 64 1043 l 1089 1043 l 1089 789 l 467 213 l 236 275 l 1093 275 l 1093 0 l 60 0 m 394 1364 l 758 1364 l 974 1114 l 696 1114 l 493 1258 l 660 1258 l 457 1114 l 179 1114 l 394 1364 z "},"Ż":{"ha":1153,"x_min":60,"x_max":1093,"o":"m 60 0 l 60 254 l 683 831 l 953 768 l 64 768 l 64 1043 l 1089 1043 l 1089 789 l 467 213 l 236 275 l 1093 275 l 1093 0 l 60 0 m 576 1100 q 433 1143 488 1100 q 379 1261 379 1186 q 433 1379 379 1336 q 576 1422 488 1422 q 720 1379 667 1422 q 774 1261 774 1336 q 720 1143 774 1186 q 576 1100 667 1100 z "},"Ẓ":{"ha":1153,"x_min":60,"x_max":1093,"o":"m 60 0 l 60 254 l 683 831 l 953 768 l 64 768 l 64 1043 l 1089 1043 l 1089 789 l 467 213 l 236 275 l 1093 275 l 1093 0 l 60 0 m 576 -381 q 433 -337 488 -381 q 379 -219 379 -294 q 433 -101 379 -144 q 576 -58 488 -58 q 720 -101 667 -58 q 774 -219 774 -144 q 720 -337 774 -294 q 576 -381 667 -381 z "},"Ẕ":{"ha":1153,"x_min":60,"x_max":1093,"o":"m 60 0 l 60 254 l 683 831 l 953 768 l 64 768 l 64 1043 l 1089 1043 l 1089 789 l 467 213 l 236 275 l 1093 275 l 1093 0 l 60 0 m 239 -292 l 239 -87 l 967 -87 l 967 -292 l 239 -292 z "},"Ƶ":{"ha":1158,"x_min":63,"x_max":1096,"o":"m 126 646 l 1036 646 l 1036 410 l 126 410 l 126 646 m 63 0 l 63 254 l 686 831 l 956 768 l 67 768 l 67 1043 l 1092 1043 l 1092 789 l 469 213 l 239 275 l 1096 275 l 1096 0 l 63 0 z "},"ɪ":{"ha":903,"x_min":49,"x_max":854,"o":"m 275 0 l 275 774 l 628 774 l 628 0 l 275 0 m 49 0 l 49 203 l 854 203 l 854 0 l 49 0 m 49 596 l 49 799 l 854 799 l 854 596 l 49 596 z "},"a":{"ha":1183,"x_min":39,"x_max":1138,"o":"m 771 0 l 731 282 l 771 399 l 731 514 l 771 799 l 1138 799 l 1082 400 l 1138 0 l 771 0 m 844 399 q 776 176 831 271 q 633 28 721 81 q 431 -25 544 -25 q 226 28 314 -25 q 88 176 138 81 q 39 399 39 272 q 88 622 39 526 q 226 771 138 718 q 431 824 314 824 q 633 772 544 824 q 776 624 721 719 q 844 399 832 529 m 394 399 q 413 317 394 353 q 466 261 432 282 q 544 240 500 240 q 633 261 590 240 q 709 317 676 282 q 754 399 742 353 q 709 481 742 444 q 633 538 676 517 q 544 558 590 558 q 466 538 500 558 q 413 481 432 517 q 394 399 394 444 z "},"á":{"ha":1183,"x_min":39,"x_max":1138,"o":"m 771 0 l 731 282 l 771 399 l 731 514 l 771 799 l 1138 799 l 1082 400 l 1138 0 l 771 0 m 844 399 q 776 176 831 271 q 633 28 721 81 q 431 -25 544 -25 q 226 28 314 -25 q 88 176 138 81 q 39 399 39 272 q 88 622 39 526 q 226 771 138 718 q 431 824 314 824 q 633 772 544 824 q 776 624 721 719 q 844 399 832 529 m 394 399 q 413 317 394 353 q 466 261 432 282 q 544 240 500 240 q 633 261 590 240 q 709 317 676 282 q 754 399 742 353 q 709 481 742 444 q 633 538 676 517 q 544 558 590 558 q 466 538 500 558 q 413 481 432 517 q 394 399 394 444 m 583 1149 l 922 1149 l 728 871 l 406 871 l 583 1149 z "},"ă":{"ha":1183,"x_min":39,"x_max":1138,"o":"m 771 0 l 731 282 l 771 399 l 731 514 l 771 799 l 1138 799 l 1082 400 l 1138 0 l 771 0 m 844 399 q 776 176 831 271 q 633 28 721 81 q 431 -25 544 -25 q 226 28 314 -25 q 88 176 138 81 q 39 399 39 272 q 88 622 39 526 q 226 771 138 718 q 431 824 314 824 q 633 772 544 824 q 776 624 721 719 q 844 399 832 529 m 394 399 q 413 317 394 353 q 466 261 432 282 q 544 240 500 240 q 633 261 590 240 q 709 317 676 282 q 754 399 742 353 q 709 481 742 444 q 633 538 676 517 q 544 558 590 558 q 466 538 500 558 q 413 481 432 517 q 394 399 394 444 m 228 1149 l 482 1149 q 522 1088 492 1110 q 596 1065 551 1065 q 670 1088 640 1065 q 710 1149 700 1110 l 964 1149 q 847 935 942 1014 q 596 857 753 857 q 345 935 439 857 q 228 1149 251 1014 z "},"ắ":{"ha":1183,"x_min":39,"x_max":1138,"o":"m 771 0 l 731 282 l 771 399 l 731 514 l 771 799 l 1138 799 l 1082 400 l 1138 0 l 771 0 m 844 399 q 776 176 831 271 q 633 28 721 81 q 431 -25 544 -25 q 226 28 314 -25 q 88 176 138 81 q 39 399 39 272 q 88 622 39 526 q 226 771 138 718 q 431 824 314 824 q 633 772 544 824 q 776 624 721 719 q 844 399 832 529 m 394 399 q 413 317 394 353 q 466 261 432 282 q 544 240 500 240 q 633 261 590 240 q 709 317 676 282 q 754 399 742 353 q 709 481 742 444 q 633 538 676 517 q 544 558 590 558 q 466 538 500 558 q 413 481 432 517 q 394 399 394 444 m 560 1469 l 871 1469 l 715 1188 l 463 1188 l 560 1469 m 228 1149 l 482 1149 q 522 1088 492 1110 q 596 1065 551 1065 q 670 1088 640 1065 q 710 1149 700 1110 l 964 1149 q 847 935 942 1014 q 596 857 753 857 q 345 935 439 857 q 228 1149 251 1014 z "},"ặ":{"ha":1183,"x_min":39,"x_max":1138,"o":"m 771 0 l 731 282 l 771 399 l 731 514 l 771 799 l 1138 799 l 1082 400 l 1138 0 l 771 0 m 844 399 q 776 176 831 271 q 633 28 721 81 q 431 -25 544 -25 q 226 28 314 -25 q 88 176 138 81 q 39 399 39 272 q 88 622 39 526 q 226 771 138 718 q 431 824 314 824 q 633 772 544 824 q 776 624 721 719 q 844 399 832 529 m 394 399 q 413 317 394 353 q 466 261 432 282 q 544 240 500 240 q 633 261 590 240 q 709 317 676 282 q 754 399 742 353 q 709 481 742 444 q 633 538 676 517 q 544 558 590 558 q 466 538 500 558 q 413 481 432 517 q 394 399 394 444 m 596 -381 q 453 -337 507 -381 q 399 -219 399 -294 q 453 -101 399 -144 q 596 -58 507 -58 q 740 -101 686 -58 q 793 -219 793 -144 q 740 -337 793 -294 q 596 -381 686 -381 m 228 1149 l 482 1149 q 522 1088 492 1110 q 596 1065 551 1065 q 670 1088 640 1065 q 710 1149 700 1110 l 964 1149 q 847 935 942 1014 q 596 857 753 857 q 345 935 439 857 q 228 1149 251 1014 z "},"ằ":{"ha":1183,"x_min":39,"x_max":1138,"o":"m 771 0 l 731 282 l 771 399 l 731 514 l 771 799 l 1138 799 l 1082 400 l 1138 0 l 771 0 m 844 399 q 776 176 831 271 q 633 28 721 81 q 431 -25 544 -25 q 226 28 314 -25 q 88 176 138 81 q 39 399 39 272 q 88 622 39 526 q 226 771 138 718 q 431 824 314 824 q 633 772 544 824 q 776 624 721 719 q 844 399 832 529 m 394 399 q 413 317 394 353 q 466 261 432 282 q 544 240 500 240 q 633 261 590 240 q 709 317 676 282 q 754 399 742 353 q 709 481 742 444 q 633 538 676 517 q 544 558 590 558 q 466 538 500 558 q 413 481 432 517 q 394 399 394 444 m 629 1469 l 726 1188 l 474 1188 l 318 1469 l 629 1469 m 228 1149 l 482 1149 q 522 1088 492 1110 q 596 1065 551 1065 q 670 1088 640 1065 q 710 1149 700 1110 l 964 1149 q 847 935 942 1014 q 596 857 753 857 q 345 935 439 857 q 228 1149 251 1014 z "},"ẳ":{"ha":1183,"x_min":39,"x_max":1138,"o":"m 771 0 l 731 282 l 771 399 l 731 514 l 771 799 l 1138 799 l 1082 400 l 1138 0 l 771 0 m 844 399 q 776 176 831 271 q 633 28 721 81 q 431 -25 544 -25 q 226 28 314 -25 q 88 176 138 81 q 39 399 39 272 q 88 622 39 526 q 226 771 138 718 q 431 824 314 824 q 633 772 544 824 q 776 624 721 719 q 844 399 832 529 m 394 399 q 413 317 394 353 q 466 261 432 282 q 544 240 500 240 q 633 261 590 240 q 709 317 676 282 q 754 399 742 353 q 709 481 742 444 q 633 538 676 517 q 544 558 590 558 q 466 538 500 558 q 413 481 432 517 q 394 399 394 444 m 583 1168 l 525 1246 q 596 1304 596 1274 q 524 1340 596 1340 q 483 1338 506 1340 q 438 1331 461 1336 l 438 1503 q 515 1518 467 1511 q 619 1525 564 1525 q 808 1486 740 1525 q 875 1378 875 1447 q 801 1252 875 1306 q 583 1168 728 1199 m 228 1149 l 482 1149 q 522 1088 492 1110 q 596 1065 551 1065 q 670 1088 640 1065 q 710 1149 700 1110 l 964 1149 q 847 935 942 1014 q 596 857 753 857 q 345 935 439 857 q 228 1149 251 1014 z "},"ẵ":{"ha":1183,"x_min":39,"x_max":1138,"o":"m 771 0 l 731 282 l 771 399 l 731 514 l 771 799 l 1138 799 l 1082 400 l 1138 0 l 771 0 m 844 399 q 776 176 831 271 q 633 28 721 81 q 431 -25 544 -25 q 226 28 314 -25 q 88 176 138 81 q 39 399 39 272 q 88 622 39 526 q 226 771 138 718 q 431 824 314 824 q 633 772 544 824 q 776 624 721 719 q 844 399 832 529 m 394 399 q 413 317 394 353 q 466 261 432 282 q 544 240 500 240 q 633 261 590 240 q 709 317 676 282 q 754 399 742 353 q 709 481 742 444 q 633 538 676 517 q 544 558 590 558 q 466 538 500 558 q 413 481 432 517 q 394 399 394 444 m 253 1204 q 314 1413 260 1336 q 482 1489 368 1489 q 544 1479 517 1489 q 596 1456 572 1469 q 640 1433 619 1443 q 681 1422 661 1422 q 723 1439 708 1422 q 743 1486 738 1456 l 938 1486 q 878 1278 932 1354 q 708 1201 824 1201 q 646 1212 674 1201 q 594 1235 618 1222 q 550 1258 571 1249 q 510 1268 529 1268 q 467 1251 482 1268 q 447 1204 453 1235 l 253 1204 m 228 1149 l 482 1149 q 522 1088 492 1110 q 596 1065 551 1065 q 670 1088 640 1065 q 710 1149 700 1110 l 964 1149 q 847 935 942 1014 q 596 857 753 857 q 345 935 439 857 q 228 1149 251 1014 z "},"ǎ":{"ha":1183,"x_min":39,"x_max":1138,"o":"m 771 0 l 731 282 l 771 399 l 731 514 l 771 799 l 1138 799 l 1082 400 l 1138 0 l 771 0 m 844 399 q 776 176 831 271 q 633 28 721 81 q 431 -25 544 -25 q 226 28 314 -25 q 88 176 138 81 q 39 399 39 272 q 88 622 39 526 q 226 771 138 718 q 431 824 314 824 q 633 772 544 824 q 776 624 721 719 q 844 399 832 529 m 394 399 q 413 317 394 353 q 466 261 432 282 q 544 240 500 240 q 633 261 590 240 q 709 317 676 282 q 754 399 742 353 q 709 481 742 444 q 633 538 676 517 q 544 558 590 558 q 466 538 500 558 q 413 481 432 517 q 394 399 394 444 m 774 871 l 418 871 l 219 1149 l 490 1149 l 679 949 l 513 949 l 701 1149 l 972 1149 l 774 871 z "},"â":{"ha":1183,"x_min":39,"x_max":1138,"o":"m 771 0 l 731 282 l 771 399 l 731 514 l 771 799 l 1138 799 l 1082 400 l 1138 0 l 771 0 m 844 399 q 776 176 831 271 q 633 28 721 81 q 431 -25 544 -25 q 226 28 314 -25 q 88 176 138 81 q 39 399 39 272 q 88 622 39 526 q 226 771 138 718 q 431 824 314 824 q 633 772 544 824 q 776 624 721 719 q 844 399 832 529 m 394 399 q 413 317 394 353 q 466 261 432 282 q 544 240 500 240 q 633 261 590 240 q 709 317 676 282 q 754 399 742 353 q 709 481 742 444 q 633 538 676 517 q 544 558 590 558 q 466 538 500 558 q 413 481 432 517 q 394 399 394 444 m 418 1149 l 774 1149 l 972 871 l 701 871 l 513 1071 l 679 1071 l 490 871 l 219 871 l 418 1149 z "},"ấ":{"ha":1183,"x_min":39,"x_max":1289,"o":"m 771 0 l 731 282 l 771 399 l 731 514 l 771 799 l 1138 799 l 1082 400 l 1138 0 l 771 0 m 844 399 q 776 176 831 271 q 633 28 721 81 q 431 -25 544 -25 q 226 28 314 -25 q 88 176 138 81 q 39 399 39 272 q 88 622 39 526 q 226 771 138 718 q 431 824 314 824 q 633 772 544 824 q 776 624 721 719 q 844 399 832 529 m 394 399 q 413 317 394 353 q 466 261 432 282 q 544 240 500 240 q 633 261 590 240 q 709 317 676 282 q 754 399 742 353 q 709 481 742 444 q 633 538 676 517 q 544 558 590 558 q 466 538 500 558 q 413 481 432 517 q 394 399 394 444 m 978 1340 l 1289 1340 l 1133 1058 l 881 1058 l 978 1340 m 418 1149 l 774 1149 l 972 871 l 701 871 l 513 1071 l 679 1071 l 490 871 l 219 871 l 418 1149 z "},"ậ":{"ha":1183,"x_min":39,"x_max":1138,"o":"m 771 0 l 731 282 l 771 399 l 731 514 l 771 799 l 1138 799 l 1082 400 l 1138 0 l 771 0 m 844 399 q 776 176 831 271 q 633 28 721 81 q 431 -25 544 -25 q 226 28 314 -25 q 88 176 138 81 q 39 399 39 272 q 88 622 39 526 q 226 771 138 718 q 431 824 314 824 q 633 772 544 824 q 776 624 721 719 q 844 399 832 529 m 394 399 q 413 317 394 353 q 466 261 432 282 q 544 240 500 240 q 633 261 590 240 q 709 317 676 282 q 754 399 742 353 q 709 481 742 444 q 633 538 676 517 q 544 558 590 558 q 466 538 500 558 q 413 481 432 517 q 394 399 394 444 m 596 -381 q 453 -337 507 -381 q 399 -219 399 -294 q 453 -101 399 -144 q 596 -58 507 -58 q 740 -101 686 -58 q 793 -219 793 -144 q 740 -337 793 -294 q 596 -381 686 -381 m 418 1149 l 774 1149 l 972 871 l 701 871 l 513 1071 l 679 1071 l 490 871 l 219 871 l 418 1149 z "},"ầ":{"ha":1183,"x_min":39,"x_max":1160,"o":"m 771 0 l 731 282 l 771 399 l 731 514 l 771 799 l 1138 799 l 1082 400 l 1138 0 l 771 0 m 844 399 q 776 176 831 271 q 633 28 721 81 q 431 -25 544 -25 q 226 28 314 -25 q 88 176 138 81 q 39 399 39 272 q 88 622 39 526 q 226 771 138 718 q 431 824 314 824 q 633 772 544 824 q 776 624 721 719 q 844 399 832 529 m 394 399 q 413 317 394 353 q 466 261 432 282 q 544 240 500 240 q 633 261 590 240 q 709 317 676 282 q 754 399 742 353 q 709 481 742 444 q 633 538 676 517 q 544 558 590 558 q 466 538 500 558 q 413 481 432 517 q 394 399 394 444 m 1063 1340 l 1160 1058 l 907 1058 l 751 1340 l 1063 1340 m 418 1149 l 774 1149 l 972 871 l 701 871 l 513 1071 l 679 1071 l 490 871 l 219 871 l 418 1149 z "},"ẩ":{"ha":1183,"x_min":39,"x_max":1210,"o":"m 771 0 l 731 282 l 771 399 l 731 514 l 771 799 l 1138 799 l 1082 400 l 1138 0 l 771 0 m 844 399 q 776 176 831 271 q 633 28 721 81 q 431 -25 544 -25 q 226 28 314 -25 q 88 176 138 81 q 39 399 39 272 q 88 622 39 526 q 226 771 138 718 q 431 824 314 824 q 633 772 544 824 q 776 624 721 719 q 844 399 832 529 m 394 399 q 413 317 394 353 q 466 261 432 282 q 544 240 500 240 q 633 261 590 240 q 709 317 676 282 q 754 399 742 353 q 709 481 742 444 q 633 538 676 517 q 544 558 590 558 q 466 538 500 558 q 413 481 432 517 q 394 399 394 444 m 918 1051 l 860 1129 q 931 1188 931 1157 q 858 1224 931 1224 q 818 1222 840 1224 q 772 1214 796 1219 l 772 1386 q 850 1401 801 1394 q 954 1408 899 1408 q 1142 1369 1075 1408 q 1210 1261 1210 1331 q 1136 1135 1210 1189 q 918 1051 1063 1082 m 418 1149 l 774 1149 l 972 871 l 701 871 l 513 1071 l 679 1071 l 490 871 l 219 871 l 418 1149 z "},"ẫ":{"ha":1183,"x_min":39,"x_max":1138,"o":"m 771 0 l 731 282 l 771 399 l 731 514 l 771 799 l 1138 799 l 1082 400 l 1138 0 l 771 0 m 844 399 q 776 176 831 271 q 633 28 721 81 q 431 -25 544 -25 q 226 28 314 -25 q 88 176 138 81 q 39 399 39 272 q 88 622 39 526 q 226 771 138 718 q 431 824 314 824 q 633 772 544 824 q 776 624 721 719 q 844 399 832 529 m 394 399 q 413 317 394 353 q 466 261 432 282 q 544 240 500 240 q 633 261 590 240 q 709 317 676 282 q 754 399 742 353 q 709 481 742 444 q 633 538 676 517 q 544 558 590 558 q 466 538 500 558 q 413 481 432 517 q 394 399 394 444 m 253 1204 q 314 1413 260 1336 q 482 1489 368 1489 q 544 1479 517 1489 q 596 1456 572 1469 q 640 1433 619 1443 q 681 1422 661 1422 q 723 1439 708 1422 q 743 1486 738 1456 l 938 1486 q 878 1278 932 1354 q 708 1201 824 1201 q 646 1212 674 1201 q 594 1235 618 1222 q 550 1258 571 1249 q 510 1268 529 1268 q 467 1251 482 1268 q 447 1204 453 1235 l 253 1204 m 418 1149 l 774 1149 l 972 871 l 701 871 l 513 1071 l 679 1071 l 490 871 l 219 871 l 418 1149 z "},"ȁ":{"ha":1183,"x_min":39,"x_max":1138,"o":"m 771 0 l 731 282 l 771 399 l 731 514 l 771 799 l 1138 799 l 1082 400 l 1138 0 l 771 0 m 844 399 q 776 176 831 271 q 633 28 721 81 q 431 -25 544 -25 q 226 28 314 -25 q 88 176 138 81 q 39 399 39 272 q 88 622 39 526 q 226 771 138 718 q 431 824 314 824 q 633 772 544 824 q 776 624 721 719 q 844 399 832 529 m 394 399 q 413 317 394 353 q 466 261 432 282 q 544 240 500 240 q 633 261 590 240 q 709 317 676 282 q 754 399 742 353 q 709 481 742 444 q 633 538 676 517 q 544 558 590 558 q 466 538 500 558 q 413 481 432 517 q 394 399 394 444 m 775 1149 l 935 871 l 647 871 l 471 1149 l 775 1149 m 383 1149 l 543 871 l 256 871 l 79 1149 l 383 1149 z "},"ä":{"ha":1183,"x_min":39,"x_max":1138,"o":"m 771 0 l 731 282 l 771 399 l 731 514 l 771 799 l 1138 799 l 1082 400 l 1138 0 l 771 0 m 844 399 q 776 176 831 271 q 633 28 721 81 q 431 -25 544 -25 q 226 28 314 -25 q 88 176 138 81 q 39 399 39 272 q 88 622 39 526 q 226 771 138 718 q 431 824 314 824 q 633 772 544 824 q 776 624 721 719 q 844 399 832 529 m 394 399 q 413 317 394 353 q 466 261 432 282 q 544 240 500 240 q 633 261 590 240 q 709 317 676 282 q 754 399 742 353 q 709 481 742 444 q 633 538 676 517 q 544 558 590 558 q 466 538 500 558 q 413 481 432 517 q 394 399 394 444 m 378 857 q 245 897 294 857 q 196 1011 196 938 q 245 1120 196 1081 q 378 1160 294 1160 q 510 1120 461 1160 q 560 1011 560 1081 q 510 897 560 938 q 378 857 461 857 m 814 857 q 681 897 731 857 q 632 1011 632 938 q 681 1120 632 1081 q 814 1160 731 1160 q 947 1120 897 1160 q 996 1011 996 1081 q 947 897 996 938 q 814 857 897 857 z "},"ǟ":{"ha":1183,"x_min":39,"x_max":1138,"o":"m 771 0 l 731 282 l 771 399 l 731 514 l 771 799 l 1138 799 l 1082 400 l 1138 0 l 771 0 m 844 399 q 776 176 831 271 q 633 28 721 81 q 431 -25 544 -25 q 226 28 314 -25 q 88 176 138 81 q 39 399 39 272 q 88 622 39 526 q 226 771 138 718 q 431 824 314 824 q 633 772 544 824 q 776 624 721 719 q 844 399 832 529 m 394 399 q 413 317 394 353 q 466 261 432 282 q 544 240 500 240 q 633 261 590 240 q 709 317 676 282 q 754 399 742 353 q 709 481 742 444 q 633 538 676 517 q 544 558 590 558 q 466 538 500 558 q 413 481 432 517 q 394 399 394 444 m 378 857 q 245 897 294 857 q 196 1011 196 938 q 245 1120 196 1081 q 378 1160 294 1160 q 510 1120 461 1160 q 560 1011 560 1081 q 510 897 560 938 q 378 857 461 857 m 814 857 q 681 897 731 857 q 632 1011 632 938 q 681 1120 632 1081 q 814 1160 731 1160 q 947 1120 897 1160 q 996 1011 996 1081 q 947 897 996 938 q 814 857 897 857 m 231 1214 l 231 1418 l 958 1418 l 958 1214 l 231 1214 z "},"ȧ":{"ha":1183,"x_min":39,"x_max":1138,"o":"m 771 0 l 731 282 l 771 399 l 731 514 l 771 799 l 1138 799 l 1082 400 l 1138 0 l 771 0 m 844 399 q 776 176 831 271 q 633 28 721 81 q 431 -25 544 -25 q 226 28 314 -25 q 88 176 138 81 q 39 399 39 272 q 88 622 39 526 q 226 771 138 718 q 431 824 314 824 q 633 772 544 824 q 776 624 721 719 q 844 399 832 529 m 394 399 q 413 317 394 353 q 466 261 432 282 q 544 240 500 240 q 633 261 590 240 q 709 317 676 282 q 754 399 742 353 q 709 481 742 444 q 633 538 676 517 q 544 558 590 558 q 466 538 500 558 q 413 481 432 517 q 394 399 394 444 m 596 857 q 453 900 507 857 q 399 1018 399 943 q 453 1136 399 1093 q 596 1179 507 1179 q 740 1136 686 1179 q 793 1018 793 1093 q 740 900 793 943 q 596 857 686 857 z "},"ạ":{"ha":1183,"x_min":39,"x_max":1138,"o":"m 771 0 l 731 282 l 771 399 l 731 514 l 771 799 l 1138 799 l 1082 400 l 1138 0 l 771 0 m 844 399 q 776 176 831 271 q 633 28 721 81 q 431 -25 544 -25 q 226 28 314 -25 q 88 176 138 81 q 39 399 39 272 q 88 622 39 526 q 226 771 138 718 q 431 824 314 824 q 633 772 544 824 q 776 624 721 719 q 844 399 832 529 m 394 399 q 413 317 394 353 q 466 261 432 282 q 544 240 500 240 q 633 261 590 240 q 709 317 676 282 q 754 399 742 353 q 709 481 742 444 q 633 538 676 517 q 544 558 590 558 q 466 538 500 558 q 413 481 432 517 q 394 399 394 444 m 596 -381 q 453 -337 507 -381 q 399 -219 399 -294 q 453 -101 399 -144 q 596 -58 507 -58 q 740 -101 686 -58 q 793 -219 793 -144 q 740 -337 793 -294 q 596 -381 686 -381 z "},"ǡ":{"ha":1183,"x_min":39,"x_max":1138,"o":"m 771 0 l 731 282 l 771 399 l 731 514 l 771 799 l 1138 799 l 1082 400 l 1138 0 l 771 0 m 844 399 q 776 176 831 271 q 633 28 721 81 q 431 -25 544 -25 q 226 28 314 -25 q 88 176 138 81 q 39 399 39 272 q 88 622 39 526 q 226 771 138 718 q 431 824 314 824 q 633 772 544 824 q 776 624 721 719 q 844 399 832 529 m 394 399 q 413 317 394 353 q 466 261 432 282 q 544 240 500 240 q 633 261 590 240 q 709 317 676 282 q 754 399 742 353 q 709 481 742 444 q 633 538 676 517 q 544 558 590 558 q 466 538 500 558 q 413 481 432 517 q 394 399 394 444 m 596 857 q 453 900 507 857 q 399 1018 399 943 q 453 1136 399 1093 q 596 1179 507 1179 q 740 1136 686 1179 q 793 1018 793 1093 q 740 900 793 943 q 596 857 686 857 m 232 1214 l 232 1418 l 960 1418 l 960 1214 l 232 1214 z "},"à":{"ha":1183,"x_min":39,"x_max":1138,"o":"m 771 0 l 731 282 l 771 399 l 731 514 l 771 799 l 1138 799 l 1082 400 l 1138 0 l 771 0 m 844 399 q 776 176 831 271 q 633 28 721 81 q 431 -25 544 -25 q 226 28 314 -25 q 88 176 138 81 q 39 399 39 272 q 88 622 39 526 q 226 771 138 718 q 431 824 314 824 q 633 772 544 824 q 776 624 721 719 q 844 399 832 529 m 394 399 q 413 317 394 353 q 466 261 432 282 q 544 240 500 240 q 633 261 590 240 q 709 317 676 282 q 754 399 742 353 q 709 481 742 444 q 633 538 676 517 q 544 558 590 558 q 466 538 500 558 q 413 481 432 517 q 394 399 394 444 m 581 1149 l 758 871 l 436 871 l 242 1149 l 581 1149 z "},"ả":{"ha":1183,"x_min":39,"x_max":1138,"o":"m 771 0 l 731 282 l 771 399 l 731 514 l 771 799 l 1138 799 l 1082 400 l 1138 0 l 771 0 m 844 399 q 776 176 831 271 q 633 28 721 81 q 431 -25 544 -25 q 226 28 314 -25 q 88 176 138 81 q 39 399 39 272 q 88 622 39 526 q 226 771 138 718 q 431 824 314 824 q 633 772 544 824 q 776 624 721 719 q 844 399 832 529 m 394 399 q 413 317 394 353 q 466 261 432 282 q 544 240 500 240 q 633 261 590 240 q 709 317 676 282 q 754 399 742 353 q 709 481 742 444 q 633 538 676 517 q 544 558 590 558 q 466 538 500 558 q 413 481 432 517 q 394 399 394 444 m 538 851 l 478 936 q 533 966 514 951 q 553 997 553 981 q 533 1023 553 1014 q 478 1032 514 1032 q 432 1029 454 1032 q 390 1022 410 1026 l 390 1203 q 468 1219 419 1211 q 572 1226 517 1226 q 763 1185 694 1226 q 831 1071 831 1144 q 763 942 831 997 q 538 851 696 888 z "},"ȃ":{"ha":1183,"x_min":39,"x_max":1138,"o":"m 771 0 l 731 282 l 771 399 l 731 514 l 771 799 l 1138 799 l 1082 400 l 1138 0 l 771 0 m 844 399 q 776 176 831 271 q 633 28 721 81 q 431 -25 544 -25 q 226 28 314 -25 q 88 176 138 81 q 39 399 39 272 q 88 622 39 526 q 226 771 138 718 q 431 824 314 824 q 633 772 544 824 q 776 624 721 719 q 844 399 832 529 m 394 399 q 413 317 394 353 q 466 261 432 282 q 544 240 500 240 q 633 261 590 240 q 709 317 676 282 q 754 399 742 353 q 709 481 742 444 q 633 538 676 517 q 544 558 590 558 q 466 538 500 558 q 413 481 432 517 q 394 399 394 444 m 964 871 l 710 871 q 670 933 700 911 q 596 954 640 954 q 522 933 551 954 q 482 871 492 911 l 228 871 q 345 1085 251 1007 q 596 1163 439 1163 q 847 1085 753 1163 q 964 871 942 1007 z "},"ɑ":{"ha":1183,"x_min":39,"x_max":1138,"o":"m 771 0 l 731 282 l 771 399 l 731 514 l 771 799 l 1138 799 l 1082 400 l 1138 0 l 771 0 m 844 399 q 776 176 831 271 q 633 28 721 81 q 431 -25 544 -25 q 226 28 314 -25 q 88 176 138 81 q 39 399 39 272 q 88 622 39 526 q 226 771 138 718 q 431 824 314 824 q 633 772 544 824 q 776 624 721 719 q 844 399 832 529 m 394 399 q 413 317 394 353 q 466 261 432 282 q 544 240 500 240 q 633 261 590 240 q 709 317 676 282 q 754 399 742 353 q 709 481 742 444 q 633 538 676 517 q 544 558 590 558 q 466 538 500 558 q 413 481 432 517 q 394 399 394 444 z "},"ɒ":{"ha":1182,"x_min":46,"x_max":1144,"o":"m 413 0 l 46 0 l 101 400 l 46 799 l 413 799 l 453 514 l 413 399 l 453 282 l 413 0 m 339 399 q 408 624 353 529 q 551 772 463 719 q 753 824 640 824 q 958 771 871 824 q 1095 622 1046 718 q 1144 399 1144 526 q 1095 176 1144 272 q 958 28 1046 81 q 753 -25 871 -25 q 551 28 639 -25 q 408 176 463 81 q 339 399 354 271 m 789 399 q 770 481 789 444 q 717 538 751 517 q 639 558 683 558 q 550 538 593 558 q 475 481 507 517 q 429 399 443 444 q 475 317 443 353 q 550 261 507 282 q 639 240 593 240 q 717 261 683 240 q 770 317 751 282 q 789 399 789 353 z "},"ā":{"ha":1183,"x_min":39,"x_max":1138,"o":"m 771 0 l 731 282 l 771 399 l 731 514 l 771 799 l 1138 799 l 1082 400 l 1138 0 l 771 0 m 844 399 q 776 176 831 271 q 633 28 721 81 q 431 -25 544 -25 q 226 28 314 -25 q 88 176 138 81 q 39 399 39 272 q 88 622 39 526 q 226 771 138 718 q 431 824 314 824 q 633 772 544 824 q 776 624 721 719 q 844 399 832 529 m 394 399 q 413 317 394 353 q 466 261 432 282 q 544 240 500 240 q 633 261 590 240 q 709 317 676 282 q 754 399 742 353 q 709 481 742 444 q 633 538 676 517 q 544 558 590 558 q 466 538 500 558 q 413 481 432 517 q 394 399 394 444 m 232 892 l 232 1096 l 960 1096 l 960 892 l 232 892 z "},"ą":{"ha":1183,"x_min":39,"x_max":1138,"o":"m 771 0 l 731 282 l 771 399 l 731 514 l 771 799 l 1138 799 l 1082 400 l 1138 0 l 771 0 m 844 399 q 776 176 831 271 q 633 28 721 81 q 431 -25 544 -25 q 226 28 314 -25 q 88 176 138 81 q 39 399 39 272 q 88 622 39 526 q 226 771 138 718 q 431 824 314 824 q 633 772 544 824 q 776 624 721 719 q 844 399 832 529 m 394 399 q 413 317 394 353 q 466 261 432 282 q 544 240 500 240 q 633 261 590 240 q 709 317 676 282 q 754 399 742 353 q 709 481 742 444 q 633 538 676 517 q 544 558 590 558 q 466 538 500 558 q 413 481 432 517 q 394 399 394 444 m 1001 31 l 1106 17 l 1106 0 l 1138 0 q 1047 -28 1085 -12 q 991 -58 1010 -43 q 972 -87 972 -72 q 1058 -124 972 -124 q 1101 -121 1082 -124 q 1138 -114 1119 -118 l 1138 -286 q 1071 -301 1119 -293 q 969 -308 1022 -308 q 797 -271 863 -308 q 731 -172 731 -233 q 799 -50 731 -100 q 1001 31 868 0 z "},"ẚ":{"ha":1183,"x_min":39,"x_max":1138,"o":"m 771 0 l 731 282 l 771 399 l 731 514 l 771 799 l 1138 799 l 1082 400 l 1138 0 l 771 0 m 844 399 q 776 176 831 271 q 633 28 721 81 q 431 -25 544 -25 q 226 28 314 -25 q 88 176 138 81 q 39 399 39 272 q 88 622 39 526 q 226 771 138 718 q 431 824 314 824 q 633 772 544 824 q 776 624 721 719 q 844 399 832 529 m 394 399 q 413 317 394 353 q 466 261 432 282 q 544 240 500 240 q 633 261 590 240 q 709 317 676 282 q 754 399 742 353 q 709 481 742 444 q 633 538 676 517 q 544 558 590 558 q 466 538 500 558 q 413 481 432 517 q 394 399 394 444 m 596 857 l 596 990 q 671 1010 644 990 q 697 1065 697 1031 q 671 1121 697 1101 q 596 1140 644 1140 l 596 1274 q 810 1219 733 1274 q 888 1065 888 1164 q 810 913 888 968 q 596 857 733 857 z "},"å":{"ha":1183,"x_min":39,"x_max":1138,"o":"m 771 0 l 731 282 l 771 399 l 731 514 l 771 799 l 1138 799 l 1082 400 l 1138 0 l 771 0 m 844 399 q 776 176 831 271 q 633 28 721 81 q 431 -25 544 -25 q 226 28 314 -25 q 88 176 138 81 q 39 399 39 272 q 88 622 39 526 q 226 771 138 718 q 431 824 314 824 q 633 772 544 824 q 776 624 721 719 q 844 399 832 529 m 394 399 q 413 317 394 353 q 466 261 432 282 q 544 240 500 240 q 633 261 590 240 q 709 317 676 282 q 754 399 742 353 q 709 481 742 444 q 633 538 676 517 q 544 558 590 558 q 466 538 500 558 q 413 481 432 517 q 394 399 394 444 m 596 857 q 381 913 458 857 q 304 1067 304 968 q 381 1219 304 1164 q 596 1274 458 1274 q 810 1219 733 1274 q 888 1067 888 1164 q 810 913 888 968 q 596 857 733 857 m 596 990 q 671 1010 644 990 q 697 1065 697 1031 q 671 1121 697 1101 q 596 1140 644 1140 q 522 1121 549 1140 q 494 1065 494 1101 q 522 1010 494 1031 q 596 990 549 990 z "},"ǻ":{"ha":1183,"x_min":39,"x_max":1138,"o":"m 560 1524 l 871 1524 l 715 1242 l 463 1242 l 560 1524 m 771 0 l 731 282 l 771 399 l 731 514 l 771 799 l 1138 799 l 1082 400 l 1138 0 l 771 0 m 844 399 q 776 176 831 271 q 633 28 721 81 q 431 -25 544 -25 q 226 28 314 -25 q 88 176 138 81 q 39 399 39 272 q 88 622 39 526 q 226 771 138 718 q 431 824 314 824 q 633 772 544 824 q 776 624 721 719 q 844 399 832 529 m 394 399 q 413 317 394 353 q 466 261 432 282 q 544 240 500 240 q 633 261 590 240 q 709 317 676 282 q 754 399 742 353 q 709 481 742 444 q 633 538 676 517 q 544 558 590 558 q 466 538 500 558 q 413 481 432 517 q 394 399 394 444 m 596 857 q 381 913 458 857 q 304 1065 304 968 q 381 1219 304 1164 q 596 1274 458 1274 q 810 1219 733 1274 q 888 1065 888 1164 q 810 913 888 968 q 596 857 733 857 m 596 990 q 671 1010 644 990 q 697 1065 697 1031 q 671 1121 697 1101 q 596 1140 644 1140 q 522 1121 549 1140 q 494 1065 494 1101 q 522 1010 494 1031 q 596 990 549 990 z "},"ḁ":{"ha":1183,"x_min":39,"x_max":1138,"o":"m 771 0 l 731 282 l 771 399 l 731 514 l 771 799 l 1138 799 l 1082 400 l 1138 0 l 771 0 m 844 399 q 776 176 831 271 q 633 28 721 81 q 431 -25 544 -25 q 226 28 314 -25 q 88 176 138 81 q 39 399 39 272 q 88 622 39 526 q 226 771 138 718 q 431 824 314 824 q 633 772 544 824 q 776 624 721 719 q 844 399 832 529 m 394 399 q 413 317 394 353 q 466 261 432 282 q 544 240 500 240 q 633 261 590 240 q 709 317 676 282 q 754 399 742 353 q 709 481 742 444 q 633 538 676 517 q 544 558 590 558 q 466 538 500 558 q 413 481 432 517 q 394 399 394 444 m 596 -475 q 381 -419 458 -475 q 304 -265 304 -364 q 381 -113 304 -168 q 596 -58 458 -58 q 810 -113 733 -58 q 888 -265 888 -168 q 810 -419 888 -364 q 596 -475 733 -475 m 596 -342 q 671 -322 644 -342 q 697 -267 697 -301 q 671 -211 697 -231 q 596 -192 644 -192 q 522 -211 549 -192 q 494 -267 494 -231 q 522 -322 494 -301 q 596 -342 549 -342 z "}}}
